<svg width="25" height="24" viewBox="0 0 25 24" fill="none" xmlns="http://www.w3.org/2000/svg">
<g clip-path="url(#clip0_5340_16372)">
<path d="M20.2357 12.6212C20.4036 12.4605 20.5 12.2355 20.5 11.9998C20.5 11.7641 20.4036 11.5427 20.2357 11.3784L13.95 5.37838C13.6071 5.04981 13.0643 5.0641 12.7393 5.40695C12.4143 5.74981 12.425 6.29267 12.7679 6.61767L17.5036 11.1427H5.35714C4.88214 11.1427 4.5 11.5248 4.5 11.9998C4.5 12.4748 4.88214 12.857 5.35714 12.857H17.5036L12.7643 17.3784C12.4214 17.707 12.4107 18.2462 12.7357 18.5891C13.0607 18.932 13.6036 18.9427 13.9464 18.6177L20.2321 12.6177L20.2357 12.6212Z" fill="white"/>
</g>
<defs>
<clipPath id="clip0_5340_16372">
<rect width="16" height="16" fill="white" transform="translate(4.5 4)"/>
</clipPath>
</defs>
</svg>
