<svg width="20" height="20" viewBox="0 0 20 20" fill="none" xmlns="http://www.w3.org/2000/svg">
<path d="M3.36914 7H16.7025M3.36914 7V14.3335C3.36914 15.2669 3.36914 15.7334 3.5508 16.0899C3.71058 16.4035 3.96537 16.6587 4.27897 16.8185C4.63514 17 5.10163 17 6.03323 17H14.0384C14.97 17 15.4358 17 15.792 16.8185C16.1056 16.6587 16.3612 16.4035 16.521 16.0899C16.7025 15.7337 16.7025 15.2679 16.7025 14.3363V7M3.36914 7V6.3335C3.36914 5.40007 3.36914 4.93302 3.5508 4.5765C3.71058 4.26289 3.96537 4.00811 4.27897 3.84832C4.63549 3.66667 5.10255 3.66667 6.03597 3.66667H6.70247M16.7025 7V6.33076C16.7025 5.39916 16.7025 4.93267 16.521 4.5765C16.3612 4.26289 16.1056 4.00811 15.792 3.84832C15.4355 3.66667 14.9694 3.66667 14.036 3.66667H13.3691M6.70247 3.66667H13.3691M6.70247 3.66667V2M13.3691 3.66667V2" stroke="#5482C8" stroke-width="1.66667" stroke-linecap="round" stroke-linejoin="round"/>
</svg>
