<svg width="17" height="16" viewBox="0 0 17 16" fill="none" xmlns="http://www.w3.org/2000/svg">
<path d="M2.82666 5.33301H13.4933M2.82666 5.33301V11.1998C2.82666 11.9465 2.82666 12.3197 2.97199 12.6049C3.09981 12.8558 3.30364 13.06 3.55453 13.1878C3.83946 13.333 4.21265 13.333 4.95793 13.333H11.3621C12.1073 13.333 12.48 13.333 12.7649 13.1878C13.0158 13.06 13.2203 12.8558 13.3481 12.6049C13.4933 12.32 13.4933 11.9473 13.4933 11.2021V5.33301M2.82666 5.33301V4.79981C2.82666 4.05307 2.82666 3.67942 2.97199 3.39421C3.09981 3.14332 3.30364 2.93949 3.55453 2.81167C3.83974 2.66634 4.21339 2.66634 4.96013 2.66634H5.49333M13.4933 5.33301V4.79761C13.4933 4.05233 13.4933 3.67914 13.3481 3.39421C13.2203 3.14332 13.0158 2.93949 12.7649 2.81167C12.4797 2.66634 12.1069 2.66634 11.3601 2.66634H10.8267M5.49333 2.66634H10.8267M5.49333 2.66634V1.33301M10.8267 2.66634V1.33301" stroke="#777F93" stroke-width="1.4" stroke-linecap="round" stroke-linejoin="round"/>
</svg>
