<svg width="18" height="19" viewBox="0 0 18 19" fill="none" xmlns="http://www.w3.org/2000/svg">
<g clip-path="url(#clip0_31_13108)">
<path d="M3.4066 2.96875C3.07267 2.96875 2.79946 3.23594 2.79946 3.5625V15.4375C2.79946 15.7641 3.07267 16.0312 3.4066 16.0312H11.9066V13.0625C11.9066 12.4057 12.4492 11.875 13.1209 11.875H16.1566V3.5625C16.1566 3.23594 15.8834 2.96875 15.5495 2.96875H3.4066ZM11.9066 17.8125H3.4066C2.06709 17.8125 0.978027 16.7475 0.978027 15.4375V3.5625C0.978027 2.25254 2.06709 1.1875 3.4066 1.1875H15.5495C16.889 1.1875 17.978 2.25254 17.978 3.5625V11.875V12.0791C17.978 12.71 17.7238 13.3148 17.2684 13.7602L13.8343 17.1186C13.3789 17.5639 12.7604 17.8125 12.1153 17.8125H11.9066Z" fill="#242B37"/>
<path d="M9.88172 4.88394C9.8077 4.73405 9.65128 4.63867 9.47949 4.63867C9.3077 4.63867 9.15267 4.73405 9.07726 4.88394L8.17922 6.68667L6.17364 6.97555C6.00605 7.00007 5.86638 7.11453 5.81471 7.27123C5.76303 7.42793 5.80493 7.60099 5.92504 7.71681L7.38034 9.12166L7.03677 11.107C7.00883 11.2705 7.07867 11.4367 7.21693 11.5335C7.3552 11.6302 7.53816 11.6425 7.689 11.5648L9.48089 10.6314L11.2728 11.5648C11.4236 11.6425 11.6066 11.6316 11.7448 11.5335C11.8831 11.4354 11.9529 11.2705 11.925 11.107L11.58 9.12166L13.0353 7.71681C13.1554 7.60099 13.1987 7.42793 13.1457 7.27123C13.0926 7.11453 12.9543 7.00007 12.7867 6.97555L10.7798 6.68667L9.88172 4.88394Z" fill="#242B37"/>
</g>
<defs>
<clipPath id="clip0_31_13108">
<rect width="17" height="19" fill="white" transform="translate(0.978027)"/>
</clipPath>
</defs>
</svg>
