<svg xmlns="http://www.w3.org/2000/svg" width="26.859" height="26.366" viewBox="0 0 26.859 26.366">
  <g id="Group_27584" data-name="Group 27584" transform="translate(22045.234 15653.056)">
    <path id="turn_left_FILL0_wght700_GRAD200_opsz24_1_" data-name="turn_left_FILL0_wght700_GRAD200_opsz24 (1)" d="M14.5,17.961V6.5H4.461L4.434,8.927,0,4.464,4.434,0l.027,2.424H14.5a3.927,3.927,0,0,1,2.879,1.2,3.927,3.927,0,0,1,1.2,2.879V17.961Z" transform="translate(-22018.375 -15653.056) rotate(90)" fill="#f89d15"/>
    <path id="turn_left_FILL0_wght700_GRAD200_opsz24_1_2" data-name="turn_left_FILL0_wght700_GRAD200_opsz24 (1)" d="M14.5,17.961V6.5H4.461L4.434,8.927,0,4.464,4.434,0l.027,2.424H14.5a3.927,3.927,0,0,1,2.879,1.2,3.927,3.927,0,0,1,1.2,2.879V17.961Z" transform="translate(-22045.234 -15626.689) rotate(-90)" fill="#f89d15"/>
  </g>
</svg>
