<svg width="17" height="16" viewBox="0 0 17 16" fill="none" xmlns="http://www.w3.org/2000/svg">
<g clip-path="url(#clip0_203_4054)">
<path d="M8.25195 1.5C9.97586 1.5 11.6292 2.18482 12.8481 3.40381C14.0671 4.62279 14.752 6.27609 14.752 8C14.752 9.72391 14.0671 11.3772 12.8481 12.5962C11.6292 13.8152 9.97586 14.5 8.25195 14.5C6.52805 14.5 4.87475 13.8152 3.65576 12.5962C2.43677 11.3772 1.75195 9.72391 1.75195 8C1.75195 6.27609 2.43677 4.62279 3.65576 3.40381C4.87475 2.18482 6.52805 1.5 8.25195 1.5ZM8.25195 16C10.3737 16 12.4085 15.1571 13.9088 13.6569C15.4091 12.1566 16.252 10.1217 16.252 8C16.252 5.87827 15.4091 3.84344 13.9088 2.34315C12.4085 0.842855 10.3737 0 8.25195 0C6.13022 0 4.09539 0.842855 2.5951 2.34315C1.09481 3.84344 0.251953 5.87827 0.251953 8C0.251953 10.1217 1.09481 12.1566 2.5951 13.6569C4.09539 15.1571 6.13022 16 8.25195 16ZM7.00195 10.5C6.58633 10.5 6.25195 10.8344 6.25195 11.25C6.25195 11.6656 6.58633 12 7.00195 12H9.50195C9.91758 12 10.252 11.6656 10.252 11.25C10.252 10.8344 9.91758 10.5 9.50195 10.5H9.25195V7.75C9.25195 7.33437 8.91758 7 8.50195 7H7.00195C6.58633 7 6.25195 7.33437 6.25195 7.75C6.25195 8.16562 6.58633 8.5 7.00195 8.5H7.75195V10.5H7.00195ZM8.25195 6C8.51717 6 8.77152 5.89464 8.95906 5.70711C9.1466 5.51957 9.25195 5.26522 9.25195 5C9.25195 4.73478 9.1466 4.48043 8.95906 4.29289C8.77152 4.10536 8.51717 4 8.25195 4C7.98674 4 7.73238 4.10536 7.54485 4.29289C7.35731 4.48043 7.25195 4.73478 7.25195 5C7.25195 5.26522 7.35731 5.51957 7.54485 5.70711C7.73238 5.89464 7.98674 6 8.25195 6Z" fill="#242B37"/>
</g>
<defs>
<clipPath id="clip0_203_4054">
<rect width="16" height="16" fill="white" transform="translate(0.251953)"/>
</clipPath>
</defs>
</svg>
