<svg width="18" height="16" viewBox="0 0 18 16" fill="none" xmlns="http://www.w3.org/2000/svg">
<g clip-path="url(#clip0_236_5029)">
<path d="M2.48124 9.52832C2.75687 8.99219 2.67249 8.33301 2.27031 7.89355C1.67124 7.2373 1.35062 6.44922 1.35062 5.62891C1.35062 3.76855 3.14499 1.87891 5.85062 1.87891C8.55624 1.87891 10.3506 3.76855 10.3506 5.62891C10.3506 7.48926 8.55624 9.37891 5.85062 9.37891C5.48218 9.37891 5.12499 9.34082 4.78749 9.27344C4.49499 9.21484 4.19124 9.25586 3.92406 9.39648C3.80874 9.45801 3.69062 9.5166 3.56968 9.57227C3.11968 9.7832 2.64437 9.96777 2.16624 10.0996C2.24499 9.96484 2.31812 9.83301 2.38843 9.70117C2.41937 9.64551 2.45031 9.58691 2.47843 9.52832H2.48124ZM0.000618412 5.62891C0.000618412 6.85352 0.484368 7.97559 1.29156 8.86035C1.26624 8.91016 1.23812 8.96289 1.21281 9.00977C0.923118 9.54883 0.585618 10.0791 0.183431 10.5361C-0.00219409 10.7412 -0.0500066 11.04 0.0540559 11.2949C0.163743 11.5557 0.405618 11.7227 0.675618 11.7227C1.88499 11.7227 3.10843 11.333 4.12656 10.8525C4.26156 10.7881 4.39656 10.7207 4.52593 10.6533C4.95062 10.7412 5.39499 10.7852 5.85062 10.7852C9.08218 10.7852 11.7006 8.47656 11.7006 5.62891C11.7006 2.78125 9.08218 0.472656 5.85062 0.472656C2.61906 0.472656 0.000618412 2.78125 0.000618412 5.62891ZM12.1506 14.5352C12.6062 14.5352 13.0478 14.4883 13.4753 14.4033C13.6047 14.4707 13.7397 14.5381 13.8747 14.6025C14.8928 15.083 16.1162 15.4727 17.3256 15.4727C17.5956 15.4727 17.8375 15.3057 17.9444 15.0479C18.0512 14.79 18.0006 14.4912 17.815 14.2891C17.4156 13.832 17.0781 13.3018 16.7856 12.7627C16.7603 12.7129 16.7322 12.6631 16.7069 12.6133C17.5169 11.7256 18.0006 10.6035 18.0006 9.37891C18.0006 6.61328 15.5284 4.35449 12.4262 4.22852C12.5416 4.67383 12.6006 5.14258 12.6006 5.62891V5.64648C15.0531 5.84277 16.6506 7.62402 16.6506 9.37891C16.6506 10.1992 16.33 10.9873 15.7309 11.6406C15.3287 12.0801 15.2444 12.7422 15.52 13.2754C15.5509 13.334 15.5819 13.3926 15.61 13.4482C15.6803 13.5801 15.7562 13.7119 15.8322 13.8467C15.3541 13.7148 14.8787 13.5332 14.4287 13.3193C14.3078 13.2637 14.1897 13.2051 14.0744 13.1436C13.8072 13.0029 13.5034 12.9619 13.2109 13.0205C12.8706 13.0908 12.5162 13.126 12.1478 13.126C10.4125 13.126 9.05406 12.3496 8.30031 11.3008C7.85031 11.459 7.37781 11.5762 6.89406 11.6465C7.84749 13.3574 9.84437 14.5352 12.1506 14.5352Z" fill="#5482C8"/>
</g>
<defs>
<clipPath id="clip0_236_5029">
<rect width="18" height="15" fill="white" transform="translate(0 0.472656)"/>
</clipPath>
</defs>
</svg>
