<svg width="17" height="16" viewBox="0 0 17 16" fill="none" xmlns="http://www.w3.org/2000/svg">
<path d="M16.1476 2.05186C16.6175 1.58201 16.6175 0.822243 16.1476 0.357388C15.6778 -0.107467 14.918 -0.112465 14.4531 0.357388L8.505 6.30553L2.55186 0.35239C2.08201 -0.117463 1.32224 -0.117463 0.857388 0.35239C0.392533 0.822243 0.387535 1.58201 0.857388 2.04686L6.80553 7.995L0.85239 13.9481C0.382537 14.418 0.382537 15.1778 0.85239 15.6426C1.32224 16.1075 2.08201 16.1125 2.54686 15.6426L8.495 9.69447L14.4481 15.6476C14.918 16.1175 15.6778 16.1175 16.1426 15.6476C16.6075 15.1778 16.6125 14.418 16.1426 13.9531L10.1945 8.005L16.1476 2.05186Z" fill="#242B37"/>
</svg>
