<svg width="24" height="24" viewBox="0 0 24 24" fill="none" xmlns="http://www.w3.org/2000/svg">
<path d="M1 8.33333H23M1 8.33333V19.0891C1 20.4581 1 21.1423 1.29974 21.6652C1.56338 22.1251 1.98377 22.4995 2.50123 22.7338C3.0889 23 3.85861 23 5.39575 23H18.6043C20.1414 23 20.91 23 21.4977 22.7338C22.0151 22.4995 22.4369 22.1251 22.7005 21.6652C23 21.1428 23 20.4596 23 19.0933V8.33333M1 8.33333V7.3558C1 5.98678 1 5.30176 1.29974 4.77887C1.56338 4.31891 1.98377 3.94523 2.50123 3.71088C3.08948 3.44444 3.86012 3.44444 5.40028 3.44444H6.5M23 8.33333V7.35178C23 5.98543 23 5.30124 22.7005 4.77887C22.4369 4.31891 22.0151 3.94523 21.4977 3.71088C20.9095 3.44444 20.1404 3.44444 18.6003 3.44444H17.5M6.5 3.44444H17.5M6.5 3.44444V1M17.5 3.44444V1" stroke="#5482C8" stroke-width="1.40225" stroke-linecap="round" stroke-linejoin="round"/>
</svg>
