<svg width="12" height="12" viewBox="0 0 12 12" fill="none" xmlns="http://www.w3.org/2000/svg">
<g clip-path="url(#clip0_5078_15307)">
<path d="M0.279149 9.88438L0.758316 8.25729C0.845816 7.96354 1.00415 7.69479 1.22082 7.47813L7.55623 1.14063C8.07707 0.619792 8.92082 0.619792 9.44165 1.14063L10.2625 1.96146C10.3271 2.02604 10.3854 2.09687 10.4333 2.16979C10.775 2.68646 10.7187 3.39062 10.2625 3.84687L3.92707 10.1844C3.89998 10.2115 3.8729 10.2385 3.84373 10.2635C3.64373 10.4406 3.40623 10.5719 3.1479 10.6469L1.52082 11.126L0.641649 11.3844C0.466649 11.4365 0.277066 11.3885 0.147899 11.2573C0.0187326 11.126 -0.0312674 10.9406 0.0208159 10.7635L0.279149 9.88438ZM1.57498 9.02604L1.23748 10.1677L2.37915 9.83229L2.86665 9.68854C2.99998 9.64896 3.1229 9.57604 3.22082 9.47813L7.97915 4.71771L6.68748 3.42604L1.92707 8.18438C1.91457 8.19688 1.90207 8.20938 1.89165 8.22188C1.8104 8.31354 1.75207 8.42188 1.71665 8.53854L1.5729 9.02604H1.57498ZM5.16665 10.4052H11.5C11.7771 10.4052 12 10.6281 12 10.9052C12 11.1823 11.7771 11.4052 11.5 11.4052H5.16665C4.88957 11.4052 4.66665 11.1823 4.66665 10.9052C4.66665 10.6281 4.88957 10.4052 5.16665 10.4052Z" fill="#242B37"/>
</g>
<defs>
<clipPath id="clip0_5078_15307">
<rect width="12" height="12" fill="white"/>
</clipPath>
</defs>
</svg>
