<svg width="18" height="16" viewBox="0 0 18 16" fill="none" xmlns="http://www.w3.org/2000/svg">
<g clip-path="url(#clip0_203_4001)">
<path d="M8.6604 2.5C6.73609 2.5 5.15415 3.425 3.94112 4.61562C2.80484 5.73438 2.01977 7.0625 1.61838 8C2.01977 8.9375 2.80484 10.2656 3.93817 11.3844C5.15415 12.575 6.73609 13.5 8.6604 13.5C10.5847 13.5 12.1666 12.575 13.3797 11.3844C14.516 10.2656 15.301 8.9375 15.7024 8C15.301 7.0625 14.516 5.73438 13.3826 4.61562C12.1666 3.425 10.5847 2.5 8.6604 2.5ZM2.97602 3.51875C4.36612 2.15 6.27567 1 8.6604 1C11.0451 1 12.9547 2.15 14.3448 3.51875C15.726 4.87812 16.6498 6.5 17.0896 7.61562C17.187 7.8625 17.187 8.1375 17.0896 8.38437C16.6498 9.5 15.726 11.125 14.3448 12.4812C12.9547 13.85 11.0451 15 8.6604 15C6.27567 15 4.36612 13.85 2.97602 12.4812C1.59477 11.125 0.670985 9.5 0.23418 8.38437C0.136784 8.1375 0.136784 7.8625 0.23418 7.61562C0.670985 6.5 1.59477 4.875 2.97602 3.51875ZM8.6604 10.5C9.96491 10.5 11.0215 9.38125 11.0215 8C11.0215 6.61875 9.96491 5.5 8.6604 5.5C8.63974 5.5 8.62203 5.5 8.60137 5.5C8.63974 5.65938 8.6604 5.82812 8.6604 6C8.6604 7.10313 7.81335 8 6.77151 8C6.60918 8 6.44981 7.97813 6.29928 7.9375C6.29928 7.95937 6.29928 7.97813 6.29928 8C6.29928 9.38125 7.35588 10.5 8.6604 10.5ZM8.6604 4C9.66232 4 10.6232 4.42143 11.3317 5.17157C12.0402 5.92172 12.4382 6.93913 12.4382 8C12.4382 9.06087 12.0402 10.0783 11.3317 10.8284C10.6232 11.5786 9.66232 12 8.6604 12C7.65847 12 6.69757 11.5786 5.9891 10.8284C5.28063 10.0783 4.88262 9.06087 4.88262 8C4.88262 6.93913 5.28063 5.92172 5.9891 5.17157C6.69757 4.42143 7.65847 4 8.6604 4Z" fill="#777F93"/>
</g>
<defs>
<clipPath id="clip0_203_4001">
<rect width="17" height="16" fill="white" transform="translate(0.160156)"/>
</clipPath>
</defs>
</svg>
