<svg width="24" height="25" viewBox="0 0 24 25" fill="none" xmlns="http://www.w3.org/2000/svg">
<g clip-path="url(#clip0_2078_7733)">
<path d="M11.9998 8.27962C10.1887 8.27962 8.69979 9.10184 7.55813 10.1602C6.48868 11.1546 5.74979 12.3352 5.37202 13.1685C5.74979 14.0018 6.48868 15.1824 7.55535 16.1768C8.69979 17.2352 10.1887 18.0574 11.9998 18.0574C13.8109 18.0574 15.2998 17.2352 16.4415 16.1768C17.5109 15.1824 18.2498 14.0018 18.6276 13.1685C18.2498 12.3352 17.5109 11.1546 16.4442 10.1602C15.2998 9.10184 13.8109 8.27962 11.9998 8.27962ZM6.64979 9.18518C7.95813 7.96851 9.75535 6.94629 11.9998 6.94629C14.2442 6.94629 16.0415 7.96851 17.3498 9.18518C18.6498 10.3935 19.5192 11.8352 19.9331 12.8268C20.0248 13.0463 20.0248 13.2907 19.9331 13.5102C19.5192 14.5018 18.6498 15.9463 17.3498 17.1518C16.0415 18.3685 14.2442 19.3907 11.9998 19.3907C9.75535 19.3907 7.95813 18.3685 6.64979 17.1518C5.34979 15.9463 4.48035 14.5018 4.06924 13.5102C3.97757 13.2907 3.97757 13.0463 4.06924 12.8268C4.48035 11.8352 5.34979 10.3907 6.64979 9.18518ZM11.9998 15.3907C13.2276 15.3907 14.222 14.3963 14.222 13.1685C14.222 11.9407 13.2276 10.9463 11.9998 10.9463C11.9803 10.9463 11.9637 10.9463 11.9442 10.9463C11.9803 11.088 11.9998 11.238 11.9998 11.3907C11.9998 12.3713 11.2026 13.1685 10.222 13.1685C10.0692 13.1685 9.91924 13.1491 9.77757 13.113C9.77757 13.1324 9.77757 13.1491 9.77757 13.1685C9.77757 14.3963 10.772 15.3907 11.9998 15.3907ZM11.9998 9.61296C12.9428 9.61296 13.8472 9.98756 14.514 10.6544C15.1807 11.3211 15.5553 12.2255 15.5553 13.1685C15.5553 14.1115 15.1807 15.0159 14.514 15.6827C13.8472 16.3495 12.9428 16.7241 11.9998 16.7241C11.0568 16.7241 10.1524 16.3495 9.48564 15.6827C8.81884 15.0159 8.44424 14.1115 8.44424 13.1685C8.44424 12.2255 8.81884 11.3211 9.48564 10.6544C10.1524 9.98756 11.0568 9.61296 11.9998 9.61296Z" fill="#242B37"/>
</g>
<defs>
<clipPath id="clip0_2078_7733">
<rect width="16" height="16" fill="white" transform="translate(4 4.94629)"/>
</clipPath>
</defs>
</svg>
