<svg width="24" height="24" viewBox="0 0 24 24" fill="none" xmlns="http://www.w3.org/2000/svg">
<path d="M6.89895 6.19859C7.16373 5.9338 7.5919 5.9338 7.85387 6.19859L10.5581 8.90282C10.8229 9.16761 10.8229 9.59577 10.5581 9.85775C10.2933 10.1197 9.86514 10.1225 9.60317 9.85775L8.05387 8.30845V17.9451C8.05387 18.3197 7.75247 18.6211 7.37782 18.6211C7.00317 18.6211 6.70176 18.3197 6.70176 17.9451V8.30845L5.15247 9.86056C4.88768 10.1254 4.45951 10.1254 4.19754 9.86056C3.93556 9.59577 3.93275 9.16761 4.19754 8.90563L6.90176 6.20141L6.89895 6.19859ZM12.5609 18.6211C12.1863 18.6211 11.8849 18.3197 11.8849 17.9451C11.8849 17.5704 12.1863 17.269 12.5609 17.269H13.913C14.2877 17.269 14.5891 17.5704 14.5891 17.9451C14.5891 18.3197 14.2877 18.6211 13.913 18.6211H12.5609ZM12.5609 15.0155C12.1863 15.0155 11.8849 14.7141 11.8849 14.3394C11.8849 13.9648 12.1863 13.6634 12.5609 13.6634H15.7158C16.0905 13.6634 16.3919 13.9648 16.3919 14.3394C16.3919 14.7141 16.0905 15.0155 15.7158 15.0155H12.5609ZM12.5609 11.4099C12.1863 11.4099 11.8849 11.1085 11.8849 10.7338C11.8849 10.3592 12.1863 10.0577 12.5609 10.0577H17.5187C17.8933 10.0577 18.1947 10.3592 18.1947 10.7338C18.1947 11.1085 17.8933 11.4099 17.5187 11.4099H12.5609ZM12.5609 7.80423C12.1863 7.80423 11.8849 7.50282 11.8849 7.12817C11.8849 6.75352 12.1863 6.45211 12.5609 6.45211H19.3215C19.6961 6.45211 19.9975 6.75352 19.9975 7.12817C19.9975 7.50282 19.6961 7.80423 19.3215 7.80423H12.5609Z" fill="white"/>
</svg>
