<svg width="24" height="22" viewBox="0 0 24 22" fill="none" xmlns="http://www.w3.org/2000/svg">
<path d="M6.26182 4.24885C6.55975 3.95514 7.04151 3.95514 7.33628 4.24885L10.379 7.24852C10.6769 7.54223 10.6769 8.01718 10.379 8.30777C10.0811 8.59837 9.5993 8.60149 9.30454 8.30777L7.56131 6.58922V17.2786C7.56131 17.6942 7.22218 18.0286 6.80063 18.0286C6.37909 18.0286 6.03995 17.6942 6.03995 17.2786V6.58922L4.29672 8.3109C3.99879 8.60462 3.51703 8.60462 3.22226 8.3109C2.9275 8.01718 2.92433 7.54224 3.22226 7.25164L6.26499 4.25198L6.26182 4.24885ZM12.6325 18.0286C12.211 18.0286 11.8718 17.6942 11.8718 17.2786C11.8718 16.8631 12.211 16.5287 12.6325 16.5287H14.1539C14.5754 16.5287 14.9146 16.8631 14.9146 17.2786C14.9146 17.6942 14.5754 18.0286 14.1539 18.0286H12.6325ZM12.6325 14.029C12.211 14.029 11.8718 13.6947 11.8718 13.2791C11.8718 12.8635 12.211 12.5292 12.6325 12.5292H16.1824C16.6039 12.5292 16.943 12.8635 16.943 13.2791C16.943 13.6947 16.6039 14.029 16.1824 14.029H12.6325ZM12.6325 10.0295C12.211 10.0295 11.8718 9.69512 11.8718 9.27954C11.8718 8.86396 12.211 8.52962 12.6325 8.52962H18.2108C18.6324 8.52962 18.9715 8.86396 18.9715 9.27954C18.9715 9.69512 18.6324 10.0295 18.2108 10.0295H12.6325ZM12.6325 6.0299C12.211 6.0299 11.8718 5.69557 11.8718 5.27999C11.8718 4.86441 12.211 4.53007 12.6325 4.53007H20.2393C20.6609 4.53007 21 4.86441 21 5.27999C21 5.69557 20.6609 6.0299 20.2393 6.0299H12.6325Z" fill="black"/>
</svg>
