<svg width="24" height="25" viewBox="0 0 24 25" fill="none" xmlns="http://www.w3.org/2000/svg">
<g clip-path="url(#clip0_2078_5775)">
<path d="M6.5 5.69629C6.5 5.28066 6.16562 4.94629 5.75 4.94629C5.33437 4.94629 5 5.28066 5 5.69629V6.94629V15.8994V17.4463V20.1963C5 20.6119 5.33437 20.9463 5.75 20.9463C6.16562 20.9463 6.5 20.6119 6.5 20.1963V17.0713L9.00938 16.4432C10.2937 16.1213 11.6531 16.2713 12.8375 16.8619C14.2188 17.5525 15.8219 17.6369 17.2656 17.0932L18.35 16.6869C18.7406 16.54 19 16.1682 19 15.7494V7.01191C19 6.29316 18.2438 5.82441 17.6 6.14629L17.3 6.29629C15.8531 7.02129 14.15 7.02129 12.7031 6.29629C11.6062 5.74629 10.3469 5.60879 9.15625 5.90566L6.5 6.57129V5.69629ZM6.5 8.11816L9.51875 7.36191C10.3625 7.15254 11.2531 7.24941 12.0312 7.63691C13.7469 8.49316 15.7406 8.56504 17.5 7.84941V15.4057L16.7375 15.69C15.6844 16.0838 14.5125 16.0244 13.5063 15.5213C12 14.7682 10.2781 14.5807 8.64375 14.9869L6.5 15.5244V8.11816Z" fill="#242B37"/>
</g>
<defs>
<clipPath id="clip0_2078_5775">
<rect width="16" height="16" fill="white" transform="translate(4 4.94629)"/>
</clipPath>
</defs>
</svg>
