<svg width="16" height="16" viewBox="0 0 16 16" fill="none" xmlns="http://www.w3.org/2000/svg">
<path d="M8 14.5C4.40938 14.5 1.5 11.5906 1.5 8C1.5 7.3125 1.60625 6.65312 1.80313 6.03125L2.09687 6.54375C2.35625 6.99687 2.78125 7.33125 3.28437 7.475L5.09375 7.99062C5.63125 8.14375 6 8.63438 6 9.19375V10.4406C6 10.7844 6.19375 11.0969 6.5 11.25C6.80625 11.4031 7 11.7156 7 12.0594V13.0094C7 13.5062 7.475 13.8625 7.95312 13.7281C8.45 13.5875 8.8375 13.1969 8.97812 12.7031L9.025 12.5344C9.16875 12.0312 9.50313 11.6062 9.95625 11.3469L10.2437 11.1812C10.7125 10.9156 11 10.4156 11 9.87813V9.61875C11 9.22187 10.8406 8.84062 10.5594 8.55937L10.4375 8.4375C10.1562 8.15625 9.775 7.99687 9.37813 7.99687H8.03125C7.68437 7.99687 7.34062 7.90625 7.0375 7.73438L5.95937 7.11875C5.825 7.04063 5.72188 6.91563 5.67188 6.76875C5.57188 6.46875 5.70625 6.14375 5.99062 6.00313L6.175 5.90938C6.38125 5.80625 6.62187 5.7875 6.84062 5.8625L7.56563 6.10313C7.82188 6.1875 8.10312 6.09063 8.25 5.86875C8.39688 5.65 8.38125 5.35938 8.2125 5.15625L7.7875 4.64687C7.475 4.27187 7.47813 3.725 7.79688 3.35625L8.2875 2.78437C8.5625 2.4625 8.60625 2.00312 8.39688 1.6375L8.32187 1.50625C10.6219 1.61875 12.6094 2.93125 13.6719 4.82812L12.875 5.15C12.3844 5.34688 12.1313 5.89375 12.2969 6.39375L12.825 7.97813C12.9344 8.30313 13.2 8.55 13.5312 8.63125L14.4406 8.85938C14.0219 12.0437 11.2969 14.5 8 14.5ZM8 16C10.1217 16 12.1566 15.1571 13.6569 13.6569C15.1571 12.1566 16 10.1217 16 8C16 5.87827 15.1571 3.84344 13.6569 2.34315C12.1566 0.842855 10.1217 0 8 0C5.87827 0 3.84344 0.842855 2.34315 2.34315C0.842855 3.84344 0 5.87827 0 8C0 10.1217 0.842855 12.1566 2.34315 13.6569C3.84344 15.1571 5.87827 16 8 16Z" fill="black"/>
</svg>
