<svg width="24" height="24" viewBox="0 0 24 24" fill="none" xmlns="http://www.w3.org/2000/svg">
<g clip-path="url(#clip0_4625_39887)">
<path d="M12 18.5C8.40938 18.5 5.5 15.5906 5.5 12C5.5 11.3125 5.60625 10.6531 5.80313 10.0312L6.09687 10.5437C6.35625 10.9969 6.78125 11.3312 7.28437 11.475L9.09375 11.9906C9.63125 12.1438 10 12.6344 10 13.1938V14.4406C10 14.7844 10.1937 15.0969 10.5 15.25C10.8063 15.4031 11 15.7156 11 16.0594V17.0094C11 17.5062 11.475 17.8625 11.9531 17.7281C12.45 17.5875 12.8375 17.1969 12.9781 16.7031L13.025 16.5344C13.1687 16.0312 13.5031 15.6062 13.9563 15.3469L14.2437 15.1812C14.7125 14.9156 15 14.4156 15 13.8781V13.6187C15 13.2219 14.8406 12.8406 14.5594 12.5594L14.4375 12.4375C14.1562 12.1562 13.775 11.9969 13.3781 11.9969H12.0312C11.6844 11.9969 11.3406 11.9062 11.0375 11.7344L9.95937 11.1188C9.825 11.0406 9.72188 10.9156 9.67188 10.7688C9.57188 10.4688 9.70625 10.1438 9.99062 10.0031L10.175 9.90938C10.3813 9.80625 10.6219 9.7875 10.8406 9.8625L11.5656 10.1031C11.8219 10.1875 12.1031 10.0906 12.25 9.86875C12.3969 9.65 12.3812 9.35938 12.2125 9.15625L11.7875 8.64687C11.475 8.27187 11.4781 7.725 11.7969 7.35625L12.2875 6.78437C12.5625 6.4625 12.6063 6.00312 12.3969 5.6375L12.3219 5.50625C14.6219 5.61875 16.6094 6.93125 17.6719 8.82812L16.875 9.15C16.3844 9.34688 16.1313 9.89375 16.2969 10.3938L16.825 11.9781C16.9344 12.3031 17.2 12.55 17.5312 12.6313L18.4406 12.8594C18.0219 16.0437 15.2969 18.5 12 18.5ZM12 20C14.1217 20 16.1566 19.1571 17.6569 17.6569C19.1571 16.1566 20 14.1217 20 12C20 9.87827 19.1571 7.84344 17.6569 6.34315C16.1566 4.84285 14.1217 4 12 4C9.87827 4 7.84344 4.84285 6.34315 6.34315C4.84285 7.84344 4 9.87827 4 12C4 14.1217 4.84285 16.1566 6.34315 17.6569C7.84344 19.1571 9.87827 20 12 20Z" fill="black"/>
</g>
<defs>
<clipPath id="clip0_4625_39887">
<rect width="16" height="16" fill="white" transform="translate(4 4)"/>
</clipPath>
</defs>
</svg>
