<svg width="13" height="16" viewBox="0 0 13 16" fill="none" xmlns="http://www.w3.org/2000/svg">
<path opacity="0.2" d="M11.6506 7.23365V9.97749C11.6506 11.4329 11.0725 12.8287 10.0433 13.8579C9.0142 14.887 7.61839 15.4652 6.16297 15.4652C4.70755 15.4652 3.31174 14.887 2.2826 13.8579C1.25346 12.8287 0.675293 11.4329 0.675293 9.97749V4.21543C0.675293 3.85157 0.819834 3.50262 1.07712 3.24533C1.3344 2.98805 1.68336 2.84351 2.04721 2.84351C2.41107 2.84351 2.76002 2.98805 3.01731 3.24533C3.27459 3.50262 3.41913 3.85157 3.41913 4.21543V2.02036C3.41913 1.6565 3.56367 1.30755 3.82096 1.05026C4.07824 0.792979 4.4272 0.648438 4.79105 0.648438C5.15491 0.648438 5.50386 0.792979 5.76114 1.05026C6.01843 1.30755 6.16297 1.6565 6.16297 2.02036V3.11789C6.16297 2.75404 6.30751 2.40508 6.5648 2.1478C6.82208 1.89051 7.17103 1.74597 7.53489 1.74597C7.89874 1.74597 8.2477 1.89051 8.50498 2.1478C8.76227 2.40508 8.90681 2.75404 8.90681 3.11789V7.23365C8.90681 6.8698 9.05135 6.52084 9.30863 6.26356C9.56592 6.00627 9.91487 5.86173 10.2787 5.86173C10.6426 5.86173 10.9915 6.00627 11.2488 6.26356C11.5061 6.52084 11.6506 6.8698 11.6506 7.23365Z" fill="white"/>
<path d="M10.222 5.25627C9.93723 5.25599 9.65597 5.31944 9.39888 5.44196V3.0612C9.39897 2.7283 9.31251 2.40109 9.14799 2.11168C8.98346 1.82228 8.74652 1.58062 8.46041 1.41043C8.17431 1.24023 7.84887 1.14734 7.51603 1.14087C7.18319 1.13441 6.85439 1.21459 6.56189 1.37355C6.42131 0.938055 6.12986 0.567071 5.74002 0.327412C5.35017 0.0877536 4.88757 -0.00482825 4.43552 0.0663418C3.98347 0.137512 3.57169 0.367756 3.27434 0.715605C2.977 1.06345 2.81363 1.50604 2.81366 1.96366V2.42373C2.52095 2.28471 2.19781 2.22202 1.87435 2.24152C1.55088 2.26103 1.23761 2.36208 0.963725 2.53526C0.689835 2.70845 0.464233 2.94814 0.307933 3.23201C0.151633 3.51587 0.06972 3.83468 0.0698243 4.15873V9.92079C0.0698243 11.5218 0.705805 13.0572 1.83786 14.1892C2.96991 15.3213 4.5053 15.9572 6.10627 15.9572C7.70723 15.9572 9.24263 15.3213 10.3747 14.1892C11.5067 13.0572 12.1427 11.5218 12.1427 9.92079V7.17696C12.1421 6.66773 11.9396 6.17953 11.5795 5.81946C11.2195 5.45938 10.7312 5.25684 10.222 5.25627ZM11.0452 9.92079C11.0452 11.2307 10.5248 12.4869 9.59861 13.4131C8.67238 14.3394 7.41615 14.8597 6.10627 14.8597C4.79639 14.8597 3.54016 14.3394 2.61393 13.4131C1.68771 12.4869 1.16736 11.2307 1.16736 9.92079V4.15873C1.16736 3.94042 1.25408 3.73105 1.40846 3.57668C1.56283 3.42231 1.7722 3.33558 1.99051 3.33558C2.20882 3.33558 2.4182 3.42231 2.57257 3.57668C2.72694 3.73105 2.81366 3.94042 2.81366 4.15873V7.17696C2.81366 7.3225 2.87148 7.46208 2.97439 7.56499C3.07731 7.66791 3.21689 7.72572 3.36243 7.72572C3.50797 7.72572 3.64755 7.66791 3.75047 7.56499C3.85338 7.46208 3.9112 7.3225 3.9112 7.17696V1.96366C3.9112 1.74535 3.99792 1.53598 4.15229 1.38161C4.30666 1.22723 4.51604 1.14051 4.73435 1.14051C4.95266 1.14051 5.16204 1.22723 5.31641 1.38161C5.47078 1.53598 5.5575 1.74535 5.5575 1.96366V6.62819C5.5575 6.77373 5.61532 6.91331 5.71823 7.01622C5.82115 7.11914 5.96073 7.17696 6.10627 7.17696C6.25181 7.17696 6.39139 7.11914 6.49431 7.01622C6.59722 6.91331 6.65504 6.77373 6.65504 6.62819V3.0612C6.65504 2.84288 6.74176 2.63351 6.89613 2.47914C7.0505 2.32477 7.25988 2.23805 7.47819 2.23805C7.6965 2.23805 7.90587 2.32477 8.06024 2.47914C8.21461 2.63351 8.30134 2.84288 8.30134 3.0612V8.04583C7.53452 8.17653 6.83859 8.57408 6.3365 9.16821C5.83442 9.76235 5.5585 10.5148 5.5575 11.2927C5.5575 11.4383 5.61532 11.5778 5.71823 11.6808C5.82115 11.7837 5.96073 11.8415 6.10627 11.8415C6.25181 11.8415 6.39139 11.7837 6.49431 11.6808C6.59722 11.5778 6.65504 11.4383 6.65504 11.2927C6.6557 10.7107 6.88717 10.1528 7.29869 9.74129C7.7102 9.32978 8.26814 9.0983 8.85011 9.09764C8.99565 9.09764 9.13523 9.03982 9.23814 8.93691C9.34106 8.834 9.39887 8.69442 9.39888 8.54887V7.17696C9.39888 6.95864 9.4856 6.74927 9.63997 6.5949C9.79434 6.44053 10.0037 6.3538 10.222 6.3538C10.4403 6.3538 10.6497 6.44053 10.8041 6.5949C10.9585 6.74927 11.0452 6.95864 11.0452 7.17696V9.92079Z" fill="white"/>
</svg>
