<svg width="22" height="18" viewBox="0 0 22 18" fill="none" xmlns="http://www.w3.org/2000/svg">
<path d="M7.29587 16.9075C7.29587 17.3755 7.66706 17.7549 8.12493 17.7549C8.5828 17.7549 8.954 17.3755 8.954 16.9075H7.29587ZM8.12493 14.387L7.29647 14.3546C7.29607 14.3654 7.29587 14.3761 7.29587 14.387H8.12493ZM10.7779 11.8676L10.7488 12.7144C10.7682 12.715 10.7877 12.715 10.8071 12.7144L10.7779 11.8676ZM13.431 14.387H14.26C14.26 14.3761 14.2598 14.3654 14.2595 14.3546L13.431 14.387ZM12.6019 16.9075C12.6019 17.3755 12.9731 17.7549 13.431 17.7549C13.8888 17.7549 14.26 17.3755 14.26 16.9075H12.6019ZM8.12493 16.0602C7.66706 16.0602 7.29587 16.4396 7.29587 16.9075C7.29587 17.3755 7.66706 17.7549 8.12493 17.7549V16.0602ZM13.431 17.7549C13.8888 17.7549 14.26 17.3755 14.26 16.9075C14.26 16.4396 13.8888 16.0602 13.431 16.0602V17.7549ZM8.12493 17.7549C8.5828 17.7549 8.954 17.3755 8.954 16.9075C8.954 16.4396 8.5828 16.0602 8.12493 16.0602V17.7549ZM7.46168 16.9075V16.0602C7.45195 16.0602 7.44222 16.0603 7.4325 16.0606L7.46168 16.9075ZM3.48216 13.1273H2.6531C2.6531 13.1379 2.6533 13.1486 2.65369 13.1594L3.48216 13.1273ZM4.31123 5.55095C4.31123 5.08298 3.94004 4.70361 3.48216 4.70361C3.02429 4.70361 2.6531 5.08298 2.6531 5.55095H4.31123ZM0.363547 6.69028C-0.0153136 6.95304 -0.113972 7.47997 0.143171 7.86726C0.400325 8.25443 0.915904 8.35521 1.29475 8.09242L0.363547 6.69028ZM3.94777 6.25204C4.32663 5.98922 4.42529 5.46228 4.16814 5.07508C3.91099 4.68789 3.39541 4.58704 3.01656 4.84986L3.94777 6.25204ZM3.01656 4.84986C2.63769 5.11265 2.53904 5.63957 2.79616 6.02678C3.05329 6.414 3.5689 6.51483 3.94777 6.25204L3.01656 4.84986ZM9.24804 1.55153L8.79824 0.83973C8.79294 0.843233 8.78763 0.846791 8.78244 0.850418L9.24804 1.55153ZM12.3078 1.55153L12.7735 0.850418C12.7683 0.846791 12.7629 0.843233 12.7576 0.83973L12.3078 1.55153ZM17.6081 6.25207C17.9871 6.51485 18.5026 6.414 18.7598 6.02678C19.0169 5.63957 18.9182 5.11263 18.5393 4.84984L17.6081 6.25207ZM13.431 16.0602C12.9731 16.0602 12.6019 16.4396 12.6019 16.9075C12.6019 17.3755 12.9731 17.7549 13.431 17.7549V16.0602ZM14.0942 16.9075L14.1234 16.0606C14.1137 16.0603 14.1039 16.0602 14.0942 16.0602V16.9075ZM18.0737 13.1273L18.9022 13.1594C18.9026 13.1486 18.9028 13.1379 18.9028 13.1273H18.0737ZM18.9028 5.55095C18.9028 5.08298 18.5316 4.70361 18.0737 4.70361C17.6159 4.70361 17.2447 5.08298 17.2447 5.55095H18.9028ZM20.2614 8.09141C20.6403 8.35419 21.1559 8.25319 21.4129 7.8659C21.6699 7.47861 21.5711 6.95168 21.1921 6.68901L20.2614 8.09141ZM18.5393 4.84984C18.1604 4.58713 17.6447 4.68801 17.3876 5.07529C17.1306 5.46256 17.2292 5.98936 17.6081 6.25207L18.5393 4.84984ZM8.954 16.9075V14.387H7.29587V16.9075H8.954ZM8.95345 14.4193C8.98993 13.4425 9.7929 12.6799 10.7488 12.7144L10.8071 11.0207C8.93797 10.9535 7.36786 12.4444 7.29647 14.3546L8.95345 14.4193ZM10.8071 12.7144C11.763 12.6799 12.566 13.4425 12.6024 14.4193L14.2595 14.3546C14.1881 12.4444 12.6179 10.9535 10.7488 11.0207L10.8071 12.7144ZM12.6019 14.387V16.9075H14.26V14.387H12.6019ZM8.12493 17.7549H13.431V16.0602H8.12493V17.7549ZM8.12493 16.0602H7.46168V17.7549H8.12493V16.0602ZM7.4325 16.0606C5.77001 16.1205 4.37366 14.7941 4.31063 13.0952L2.65369 13.1594C2.75135 15.7918 4.91492 17.8471 7.49086 17.7543L7.4325 16.0606ZM4.31123 13.1273V5.55095H2.6531V13.1273H4.31123ZM1.29475 8.09242L3.94777 6.25204L3.01656 4.84986L0.363547 6.69028L1.29475 8.09242ZM3.94777 6.25204L9.71364 2.25264L8.78244 0.850418L3.01656 4.84986L3.94777 6.25204ZM9.69784 2.26332C10.3553 1.82934 11.2005 1.82934 11.8581 2.26332L12.7576 0.83973C11.5526 0.0443086 10.0033 0.0443086 8.79824 0.83973L9.69784 2.26332ZM11.8422 2.25264L17.6081 6.25207L18.5393 4.84984L12.7735 0.850418L11.8422 2.25264ZM13.431 17.7549H14.0942V16.0602H13.431V17.7549ZM14.065 17.7543C16.641 17.8471 18.8045 15.7918 18.9022 13.1594L17.2452 13.0952C17.1822 14.7941 15.7858 16.1205 14.1234 16.0606L14.065 17.7543ZM18.9028 13.1273V5.55095H17.2447V13.1273H18.9028ZM21.1921 6.68901L18.5393 4.84984L17.6081 6.25207L20.2614 8.09141L21.1921 6.68901Z" fill="#242B37"/>
</svg>
