<svg width="12" height="10" viewBox="0 0 12 10" fill="none" xmlns="http://www.w3.org/2000/svg">
<path d="M5.71344 0.438563C5.88011 0.297823 6.1227 0.297823 6.28937 0.438563L11.1783 4.58671C11.3653 4.74597 11.3894 5.0256 11.2301 5.21264C11.0708 5.39967 10.7912 5.4219 10.6042 5.26449L10.1486 4.8793V8.33301C10.1486 9.15153 9.48566 9.81449 8.66715 9.81449H3.33381C2.51529 9.81449 1.85233 9.15153 1.85233 8.33301V4.8793L1.39863 5.26449C1.21159 5.42375 0.930108 5.39967 0.772701 5.21264C0.615293 5.0256 0.637515 4.74412 0.824552 4.58671L5.71344 0.438563ZM6.00048 1.36079L2.74122 4.1256V8.33301C2.74122 8.66079 3.00603 8.9256 3.33381 8.9256H4.2227V6.11079C4.2227 5.70153 4.55418 5.37004 4.96344 5.37004H7.03752C7.44678 5.37004 7.77826 5.70153 7.77826 6.11079V8.9256H8.66715C8.99492 8.9256 9.25974 8.66079 9.25974 8.33301V4.1256L6.00048 1.36079ZM5.11159 8.9256H6.88937V6.25893H5.11159V8.9256Z" fill="#777F93"/>
</svg>
