<svg width="24" height="24" viewBox="0 0 24 24" fill="none" xmlns="http://www.w3.org/2000/svg">
<g clip-path="url(#clip0_1533_8147)">
<path d="M12.9231 4.92308C12.9231 4.41154 12.5115 4 12 4C11.4885 4 11.0769 4.41154 11.0769 4.92308V11.0769H4.92308C4.41154 11.0769 4 11.4885 4 12C4 12.5115 4.41154 12.9231 4.92308 12.9231H11.0769V19.0769C11.0769 19.5885 11.4885 20 12 20C12.5115 20 12.9231 19.5885 12.9231 19.0769V12.9231H19.0769C19.5885 12.9231 20 12.5115 20 12C20 11.4885 19.5885 11.0769 19.0769 11.0769H12.9231V4.92308Z" fill="#242B37"/>
</g>
<defs>
<clipPath id="clip0_1533_8147">
<rect width="16" height="16" fill="white" transform="translate(4 4)"/>
</clipPath>
</defs>
</svg>
