<svg width="16" height="16" viewBox="0 0 16 16" fill="none" xmlns="http://www.w3.org/2000/svg">
<path d="M13.7812 1.83906L14.1594 2.21719C14.4531 2.51094 14.4531 2.98594 14.1594 3.27656L13.25 4.18906L11.8094 2.74844L12.7188 1.83906C13.0125 1.54531 13.4875 1.54531 13.7781 1.83906H13.7812ZM6.55625 8.00469L10.75 3.80781L12.1906 5.24844L7.99375 9.44219C7.90313 9.53281 7.79062 9.59844 7.66875 9.63281L5.84062 10.1547L6.3625 8.32656C6.39688 8.20469 6.4625 8.09219 6.55312 8.00156L6.55625 8.00469ZM11.6594 0.779688L5.49375 6.94219C5.22188 7.21406 5.025 7.54844 4.92188 7.91406L4.02812 11.0391C3.95312 11.3016 4.025 11.5828 4.21875 11.7766C4.4125 11.9703 4.69375 12.0422 4.95625 11.9672L8.08125 11.0734C8.45 10.9672 8.78438 10.7703 9.05313 10.5016L15.2188 4.33906C16.0969 3.46094 16.0969 2.03594 15.2188 1.15781L14.8406 0.779688C13.9625 -0.0984375 12.5375 -0.0984375 11.6594 0.779688ZM2.75 1.99844C1.23125 1.99844 0 3.22969 0 4.74844V13.2484C0 14.7672 1.23125 15.9984 2.75 15.9984H11.25C12.7688 15.9984 14 14.7672 14 13.2484V9.74844C14 9.33281 13.6656 8.99844 13.25 8.99844C12.8344 8.99844 12.5 9.33281 12.5 9.74844V13.2484C12.5 13.9391 11.9406 14.4984 11.25 14.4984H2.75C2.05938 14.4984 1.5 13.9391 1.5 13.2484V4.74844C1.5 4.05781 2.05938 3.49844 2.75 3.49844H6.25C6.66563 3.49844 7 3.16406 7 2.74844C7 2.33281 6.66563 1.99844 6.25 1.99844H2.75Z" fill="white"/>
</svg>
