<svg width="24" height="24" viewBox="0 0 24 24" fill="none" xmlns="http://www.w3.org/2000/svg">
<path d="M18.8727 12.4846C20.3566 11.0008 20.3566 8.59551 18.8727 7.11169C17.4602 5.69914 15.1922 5.62258 13.6873 6.94007L13.5262 7.08264C13.2622 7.31235 13.2358 7.71367 13.4655 7.97769C13.6952 8.24172 14.0965 8.26812 14.3605 8.03842L14.5216 7.89584C15.5249 7.01928 17.0351 7.06944 17.9777 8.01202C18.9651 8.99947 18.9651 10.6021 17.9777 11.5922L14.9863 14.581C13.9988 15.5685 12.3935 15.5685 11.4061 14.581C10.4635 13.6384 10.4133 12.1282 11.2899 11.1249L11.414 10.9823C11.6437 10.7183 11.6173 10.3196 11.3533 10.0873C11.0892 9.85492 10.6906 9.88396 10.4582 10.148L10.3341 10.2906C9.01927 11.7955 9.09584 14.0635 10.5084 15.476C11.9922 16.9599 14.3975 16.9599 15.8813 15.476L18.8727 12.4846ZM5.12752 11.8932C3.64369 13.377 3.64369 15.7823 5.12752 17.2635C6.5427 18.6787 8.81069 18.7526 10.3156 17.4351L10.4767 17.2925C10.7407 17.0628 10.7671 16.6615 10.5374 16.3975C10.3077 16.1335 9.9064 16.1071 9.64237 16.3368L9.48132 16.4793C8.47801 17.3559 6.96778 17.3057 6.02521 16.3632C5.03775 15.3757 5.03775 13.7731 6.02521 12.783L9.01663 9.79683C10.0041 8.80938 11.6067 8.80938 12.5968 9.79683C13.5394 10.7394 13.5896 12.2496 12.713 13.2529L12.5704 13.414C12.3407 13.678 12.3671 14.0767 12.6312 14.309C12.8952 14.5414 13.2939 14.5123 13.5262 14.2483L13.6688 14.0873C14.9863 12.5823 14.9097 10.3143 13.4972 8.89914C12.0133 7.41532 9.60805 7.41532 8.12422 8.89914L5.12752 11.8932Z" fill="#242B37"/>
</svg>
