<svg width="24" height="24" viewBox="0 0 24 24" fill="none" xmlns="http://www.w3.org/2000/svg">
<path d="M16.5 10C16.5 7.51562 14.4844 5.5 12 5.5C9.51562 5.5 7.5 7.51562 7.5 10C7.5 10.3875 7.64062 10.9875 7.97812 11.7875C8.30625 12.5625 8.77188 13.4187 9.30625 14.2844C10.1969 15.7281 11.2281 17.1219 12 18.1156C12.775 17.1219 13.8063 15.7281 14.6938 14.2844C15.2281 13.4187 15.6938 12.5625 16.0219 11.7875C16.3594 10.9875 16.5 10.3875 16.5 10ZM18 10C18 12.7312 14.3438 17.5938 12.7406 19.6C12.3562 20.0781 11.6438 20.0781 11.2594 19.6C9.65625 17.5938 6 12.7312 6 10C6 6.6875 8.6875 4 12 4C15.3125 4 18 6.6875 18 10ZM13 10C13 9.73478 12.8946 9.48043 12.7071 9.29289C12.5196 9.10536 12.2652 9 12 9C11.7348 9 11.4804 9.10536 11.2929 9.29289C11.1054 9.48043 11 9.73478 11 10C11 10.2652 11.1054 10.5196 11.2929 10.7071C11.4804 10.8946 11.7348 11 12 11C12.2652 11 12.5196 10.8946 12.7071 10.7071C12.8946 10.5196 13 10.2652 13 10ZM9.5 10C9.5 9.33696 9.76339 8.70107 10.2322 8.23223C10.7011 7.76339 11.337 7.5 12 7.5C12.663 7.5 13.2989 7.76339 13.7678 8.23223C14.2366 8.70107 14.5 9.33696 14.5 10C14.5 10.663 14.2366 11.2989 13.7678 11.7678C13.2989 12.2366 12.663 12.5 12 12.5C11.337 12.5 10.7011 12.2366 10.2322 11.7678C9.76339 11.2989 9.5 10.663 9.5 10Z" fill="#242B37"/>
</svg>
