<svg width="2000" height="390" viewBox="0 0 2000 390" fill="none" xmlns="http://www.w3.org/2000/svg">
<path d="M590.818 289.553C569.518 310.553 549.618 316.253 522.318 316.253C468.718 316.253 424.218 283.953 424.218 218.453C424.218 152.953 468.618 120.653 522.318 120.653C548.418 120.653 567.918 127.453 588.418 147.353L583.418 156.253C580.418 161.753 577.818 167.553 575.718 173.453L571.318 185.553C559.718 171.053 535.718 163.653 523.018 163.653C492.218 163.653 470.018 186.153 470.018 218.453C470.018 253.753 494.018 272.353 522.518 272.353C537.018 272.353 561.918 263.753 573.218 249.853L577.118 261.753C579.218 268.253 582.118 274.553 585.718 280.453L590.818 289.553Z" fill="#4484CE"/>
<path d="M789.618 124.153V310.553L748.718 290.153C730.618 310.853 704.818 315.653 684.418 316.253C629.618 316.553 589.318 283.053 589.318 218.153C589.318 154.453 631.718 121.253 685.618 121.553C710.218 121.553 734.218 127.753 754.318 147.353L789.618 124.153ZM634.918 217.853C634.918 253.153 659.218 274.153 689.718 274.153C761.718 274.153 761.718 162.153 689.718 162.153C659.518 162.153 634.918 182.553 634.918 217.853Z" fill="#4484CE"/>
<path d="M944.618 313.253V212.253C944.618 184.153 929.218 162.753 900.218 162.753C872.118 162.753 853.118 186.453 853.118 214.353V313.353H807.818V123.853L849.318 141.053C868.018 122.653 889.318 121.153 912.418 121.153C956.018 121.153 990.618 153.753 990.618 211.853V313.153L944.618 313.253Z" fill="#4484CE"/>
<path d="M1355.62 313.253V212.253C1355.62 184.153 1340.22 162.753 1311.12 162.753C1283.02 162.753 1264.02 186.453 1264.02 214.353V313.353H1218.72V123.853L1260.22 141.053C1278.92 122.653 1300.22 121.153 1323.32 121.153C1366.92 121.153 1401.52 153.753 1401.52 211.853V313.153L1355.62 313.253Z" fill="#4484CE"/>
<path d="M1201.52 218.653C1201.52 271.653 1165.12 314.953 1105.22 314.953C1045.32 314.953 1009.22 271.953 1009.22 218.653C1009.22 165.953 1045.92 122.353 1104.62 122.353C1163.22 122.353 1201.52 165.653 1201.52 218.653ZM1055.12 218.653C1055.12 246.753 1072.02 272.853 1105.22 272.853C1138.42 272.853 1155.32 246.753 1155.32 218.653C1155.32 190.753 1135.72 163.853 1105.22 163.853C1072.32 163.853 1055.12 190.853 1055.12 218.653Z" fill="#4484CE"/>
<path d="M1463.42 125.053H1417.82V313.553H1463.42V125.053Z" fill="#4484CE"/>
<path d="M1635.02 123.253L1614.92 172.153L1542.92 269.953H1614.62L1620.82 282.953C1623.72 288.953 1627.22 294.553 1631.22 299.853L1642.82 314.953H1480.42V276.453L1561.62 164.753H1484.02V123.253H1635.02Z" fill="#4484CE"/>
<path d="M1675.62 235.553C1678.62 258.353 1698.42 274.953 1730.72 274.953C1747.62 274.953 1765.72 269.653 1776.02 258.653L1808.62 282.653C1791.12 307.853 1756.72 316.453 1730.12 316.453C1666.42 316.453 1628.82 277.053 1628.82 218.053C1628.82 161.753 1667.02 121.453 1726.92 121.453C1788.82 121.453 1830.62 162.953 1818.82 235.553H1675.62ZM1776.02 197.953C1773.02 173.953 1754.42 162.053 1728.02 162.053C1703.42 162.053 1683.02 173.953 1676.42 197.953H1776.02Z" fill="#4484CE"/>
<path d="M1880.02 145.553C1896.92 125.353 1917.92 121.553 1936.62 121.553C1955.62 121.553 1978.72 130.753 1989.92 151.453L1963.52 178.753C1954.62 170.553 1942.72 166.253 1930.62 166.853C1906.62 166.853 1884.72 207.753 1884.72 241.853V314.153H1839.12V126.253L1880.02 145.553Z" fill="#4484CE"/>
<path d="M196.1 380.7C297.665 380.7 380 298.365 380 196.8C380 95.2347 297.665 12.8999 196.1 12.8999C94.5349 12.8999 12.2 95.2347 12.2 196.8C12.2 298.365 94.5349 380.7 196.1 380.7Z" fill="#4484CE"/>
<path d="M39.28 244.791L120.98 299.191C130.98 305.491 133.58 303.091 151.48 298.291L369.78 226.991L130.78 354.191C98.18 319.591 67.58 283.091 39.28 244.791Z" fill="white"/>
<path d="M106.838 179.707C94.3381 179.707 84.1381 169.507 84.1381 157.007C84.1381 144.507 94.3381 134.307 106.838 134.307C119.338 134.307 129.538 144.507 129.538 157.007C129.538 169.607 119.438 179.707 106.838 179.707Z" fill="white"/>
<path d="M167.46 143.419C154.96 143.419 144.76 133.219 144.76 120.719C144.76 108.219 154.96 98.019 167.46 98.019C179.96 98.019 190.16 108.219 190.16 120.719C190.16 133.219 180.06 143.319 167.46 143.419Z" fill="white"/>
<path d="M227.774 110.891C215.274 110.891 205.074 100.691 205.074 88.191C205.074 75.691 215.274 65.491 227.774 65.491C240.274 65.491 250.474 75.691 250.474 88.191C250.374 100.691 240.274 110.891 227.774 110.891Z" fill="white"/>
<path d="M287.988 152.457C275.488 152.457 265.288 142.257 265.288 129.757C265.288 117.257 275.488 107.057 287.988 107.057C300.488 107.057 310.688 117.257 310.688 129.757C310.688 142.257 300.488 152.457 287.988 152.457Z" fill="white"/>
<path d="M139.138 268.104C128.738 269.104 119.038 262.904 115.538 253.004L115.338 251.804C114.638 247.904 114.238 244.004 114.238 240.104V213.604C113.738 209.504 109.938 206.604 105.838 207.104C102.138 207.604 99.3381 210.704 99.3381 214.504V246.304C99.3381 250.504 95.9381 253.904 91.7381 253.904C87.5381 253.904 84.1381 250.504 84.1381 246.304V215.504C83.9381 203.704 92.5381 193.604 104.138 191.904C111.038 191.004 118.038 193.504 122.938 198.504C126.538 202.004 128.738 206.604 129.338 211.604C129.538 212.604 129.538 213.604 129.538 214.604V245.504C129.538 249.604 132.838 252.904 136.938 252.904C141.038 252.904 144.338 249.604 144.338 245.504V180.304C144.138 168.504 152.538 158.404 164.238 156.504C176.638 154.904 188.138 163.604 189.738 176.004C189.838 177.004 189.938 178.004 189.938 178.904V226.904C189.938 231.004 193.238 234.304 197.338 234.304C201.438 234.304 204.738 231.004 204.738 226.904V147.904C204.538 136.804 212.138 127.104 223.038 124.704C235.438 122.204 247.438 130.304 249.938 142.604C250.238 144.104 250.338 145.504 250.338 147.004V209.804C250.338 213.904 253.638 217.204 257.738 217.204C261.838 217.204 265.138 213.904 265.138 209.804V187.104C264.938 176.004 272.538 166.304 283.438 163.904C295.838 161.404 307.838 169.504 310.338 181.804C310.638 183.304 310.738 184.704 310.738 186.204V202.904C310.738 207.104 307.338 210.504 303.138 210.504C298.938 210.504 295.538 207.104 295.538 202.904V186.204C295.538 182.104 292.238 178.804 288.138 178.804C284.038 178.804 280.738 182.104 280.738 186.204V208.904C280.938 220.004 273.338 229.704 262.438 232.104C250.038 234.604 238.038 226.504 235.538 214.204C235.238 212.704 235.138 211.304 235.138 209.804V147.104C235.138 143.004 231.838 139.704 227.738 139.704C223.638 139.704 220.338 143.004 220.338 147.104V226.204C220.538 237.304 212.938 247.004 202.038 249.404C189.638 251.904 177.638 243.804 175.138 231.504C174.838 230.004 174.738 228.604 174.738 227.104V179.104C174.738 177.104 174.038 175.204 172.638 173.804C171.238 172.404 169.338 171.604 167.338 171.704C163.238 171.704 159.938 175.004 159.938 179.104V244.104C160.038 256.204 151.138 266.504 139.138 268.104Z" fill="white"/>
</svg>
