<svg xmlns="http://www.w3.org/2000/svg" width="224.997" height="41.836" viewBox="0 0 224.997 41.836">
  <g id="Group_9393" data-name="Group 9393" transform="translate(-23.815 -21)">
    <g id="Group_9223" data-name="Group 9223" transform="translate(70.683 33.253)">
      <path id="Path_4539" data-name="Path 4539" d="M174.746,60.915a9.867,9.867,0,0,1-7.787,3.034c-6.1,0-11.158-3.674-11.158-11.125S160.857,41.7,166.958,41.7a9.818,9.818,0,0,1,7.518,3.034l-.573,1.011a12.789,12.789,0,0,0-.876,1.955l-.506,1.382a8.04,8.04,0,0,0-5.495-2.495,5.9,5.9,0,0,0-6.034,6.237,5.722,5.722,0,0,0,5.967,6.135,8.588,8.588,0,0,0,5.765-2.562l.438,1.348a10.085,10.085,0,0,0,.978,2.124Z" transform="translate(-155.8 -41.7)" fill="#fff"/>
      <path id="Path_4540" data-name="Path 4540" d="M234.289,42.3v21.2l-4.652-2.326a9.721,9.721,0,0,1-7.315,2.967c-6.237.034-10.821-3.776-10.821-11.158,0-7.248,4.821-11.023,10.956-10.99a10.7,10.7,0,0,1,7.821,2.933Zm-17.6,10.653a6.026,6.026,0,0,0,6.237,6.405c8.192,0,8.192-12.743,0-12.743A5.988,5.988,0,0,0,216.692,52.956Z" transform="translate(-192.723 -41.898)" fill="#fff"/>
      <path id="Path_4541" data-name="Path 4541" d="M300.775,63.745v-11.5c0-3.2-1.753-5.63-5.057-5.63-3.2,0-5.36,2.7-5.36,5.866V63.745H285.2V42.2l4.72,1.955c2.124-2.09,4.551-2.259,7.18-2.259,4.956,0,8.9,3.708,8.9,10.316V63.745Z" transform="translate(-241.578 -41.833)" fill="#fff"/>
      <path id="Path_4542" data-name="Path 4542" d="M439.474,63.745v-11.5c0-3.2-1.753-5.63-5.057-5.63-3.2,0-5.36,2.7-5.36,5.866V63.745H423.9V42.2l4.72,1.955c2.124-2.09,4.551-2.259,7.18-2.259,4.956,0,8.9,3.708,8.9,10.316V63.745Z" transform="translate(-333.521 -41.833)" fill="#fff"/>
      <path id="Path_4543" data-name="Path 4543" d="M375.078,53.256c0,6.034-4.146,10.956-10.956,10.956S353.2,59.324,353.2,53.256c0-6,4.18-10.956,10.855-10.956A10.643,10.643,0,0,1,375.078,53.256Zm-16.653,0c0,3.2,1.922,6.169,5.7,6.169s5.7-2.967,5.7-6.169c0-3.169-2.225-6.237-5.7-6.237C360.38,47.02,358.425,50.087,358.425,53.256Z" transform="translate(-286.655 -42.098)" fill="#fff"/>
      <rect id="Rectangle_419" data-name="Rectangle 419" width="5.191" height="21.44" transform="translate(113.033 0.506)" fill="#fff"/>
      <path id="Path_4544" data-name="Path 4544" d="M529.8,42.6,527.5,48.162l-8.192,11.125h8.158l.708,1.483a11.314,11.314,0,0,0,1.18,1.922l1.315,1.719H512.2V60.029l9.237-12.709H512.6V42.6Z" transform="translate(-392.054 -42.297)" fill="#fff"/>
      <path id="Path_4545" data-name="Path 4545" d="M567.626,54.979c.337,2.6,2.6,4.484,6.27,4.484a7.286,7.286,0,0,0,5.158-1.854l3.708,2.731c-1.989,2.865-5.9,3.843-8.933,3.843-7.248,0-11.529-4.484-11.529-11.192,0-6.405,4.349-10.99,11.158-10.99,7.046,0,11.8,4.72,10.45,12.979H567.626ZM579.054,50.7c-.337-2.731-2.461-4.079-5.461-4.079-2.8,0-5.124,1.348-5.866,4.079Z" transform="translate(-425.265 -41.899)" fill="#fff"/>
      <path id="Path_4546" data-name="Path 4546" d="M637.952,44.731A7.819,7.819,0,0,1,644.391,42a6.946,6.946,0,0,1,6.068,3.4l-3,3.1a5.153,5.153,0,0,0-3.742-1.348c-2.731,0-5.225,4.652-5.225,8.529v8.225H633.3V42.539Z" transform="translate(-472.33 -41.899)" fill="#fff"/>
    </g>
    <g id="Group_9392" data-name="Group 9392">
      <circle id="Ellipse_7870" data-name="Ellipse 7870" cx="20.918" cy="20.918" r="20.918" transform="translate(23.815 21)" fill="#fff"/>
      <g id="Group_9391" data-name="Group 9391">
        <path id="Path_4725" data-name="Path 4725" d="M263.664,384.021l9.3,6.194c1.134.713,1.428.448,3.475-.107L301.268,382l-27.185,14.473A133.975,133.975,0,0,1,263.664,384.021Z" transform="translate(-236.77 -336.645)" fill="#4484ce"/>
        <g id="Group_9245" data-name="Group 9245" transform="translate(31.997 26.981)">
          <g id="Group_9241" data-name="Group 9241" transform="translate(0 7.835)">
            <path id="Path_4720" data-name="Path 4720" d="M289.981,342.262a2.581,2.581,0,1,1,2.581-2.581A2.586,2.586,0,0,1,289.981,342.262Z" transform="translate(-287.4 -337.1)" fill="#4484ce"/>
          </g>
          <g id="Group_9242" data-name="Group 9242" transform="translate(6.896 3.699)">
            <path id="Path_4721" data-name="Path 4721" d="M324.081,314.062a2.581,2.581,0,1,1,2.581-2.581A2.586,2.586,0,0,1,324.081,314.062Z" transform="translate(-321.5 -308.9)" fill="#4484ce"/>
          </g>
          <g id="Group_9243" data-name="Group 9243" transform="translate(13.752 0)">
            <path id="Path_4722" data-name="Path 4722" d="M358.181,299.562a2.581,2.581,0,1,1,2.581-2.581A2.586,2.586,0,0,1,358.181,299.562Z" transform="translate(-355.6 -294.4)" fill="#4484ce"/>
          </g>
          <g id="Group_9244" data-name="Group 9244" transform="translate(20.608 4.73)">
            <path id="Path_4723" data-name="Path 4723" d="M392.181,329.362a2.581,2.581,0,1,1,2.581-2.581A2.586,2.586,0,0,1,392.181,329.362Z" transform="translate(-389.6 -324.2)" fill="#4484ce"/>
          </g>
        </g>
        <g id="Group_9246" data-name="Group 9246" transform="translate(31.997 33.686)">
          <path id="Path_4724" data-name="Path 4724" d="M293.651,346a2.588,2.588,0,0,1-2.682-1.714l-.02-.141a7.423,7.423,0,0,1-.121-1.331v-3.016a.85.85,0,0,0-1.694.1v3.621a.867.867,0,1,1-1.734,0v-3.5a2.665,2.665,0,0,1,2.279-2.682,2.546,2.546,0,0,1,2.137.746,2.494,2.494,0,0,1,.726,1.492,1.738,1.738,0,0,1,.02.343v3.52a.847.847,0,1,0,1.694,0v-7.414a2.683,2.683,0,0,1,2.258-2.7,2.585,2.585,0,0,1,2.924,2.561v5.458a.847.847,0,1,0,1.694,0v-9a2.665,2.665,0,0,1,2.077-2.642,2.6,2.6,0,0,1,3.105,2.541v7.14a.847.847,0,0,0,1.694,0V336.8a2.665,2.665,0,0,1,2.077-2.642,2.6,2.6,0,0,1,3.105,2.541v1.9a.867.867,0,1,1-1.734,0v-1.9a.847.847,0,0,0-1.694,0v2.581a2.665,2.665,0,0,1-2.077,2.641,2.6,2.6,0,0,1-3.105-2.541v-7.14a.847.847,0,1,0-1.694,0v9a2.665,2.665,0,0,1-2.077,2.642,2.6,2.6,0,0,1-3.105-2.541V335.88a.854.854,0,0,0-.242-.6.821.821,0,0,0-.6-.242.852.852,0,0,0-.847.847v7.394A2.712,2.712,0,0,1,293.651,346Z" transform="translate(-287.4 -329.65)" fill="#4484ce"/>
        </g>
      </g>
    </g>
  </g>
</svg>
