<svg width="1978" height="369" viewBox="0 0 1978 369" fill="none" xmlns="http://www.w3.org/2000/svg">
<path d="M578.818 277.553C557.518 298.553 537.618 304.253 510.318 304.253C456.718 304.253 412.218 271.953 412.218 206.453C412.218 140.953 456.618 108.653 510.318 108.653C536.418 108.653 555.918 115.453 576.418 135.353L571.418 144.253C568.418 149.753 565.818 155.553 563.718 161.453L559.318 173.553C547.718 159.053 523.718 151.653 511.018 151.653C480.218 151.653 458.018 174.153 458.018 206.453C458.018 241.753 482.018 260.353 510.518 260.353C525.018 260.353 549.918 251.753 561.218 237.853L565.118 249.753C567.218 256.253 570.118 262.553 573.718 268.453L578.818 277.553Z" fill="white"/>
<path d="M777.618 112.153V298.553L736.718 278.153C718.618 298.853 692.818 303.653 672.418 304.253C617.618 304.553 577.318 271.053 577.318 206.153C577.318 142.453 619.718 109.253 673.618 109.553C698.218 109.553 722.218 115.753 742.318 135.353L777.618 112.153ZM622.918 205.853C622.918 241.153 647.218 262.153 677.718 262.153C749.718 262.153 749.718 150.153 677.718 150.153C647.518 150.153 622.918 170.553 622.918 205.853Z" fill="white"/>
<path d="M932.618 301.253V200.253C932.618 172.153 917.218 150.753 888.218 150.753C860.118 150.753 841.118 174.453 841.118 202.353V301.353H795.818V111.853L837.318 129.053C856.018 110.653 877.318 109.153 900.418 109.153C944.018 109.153 978.618 141.753 978.618 199.853V301.153L932.618 301.253Z" fill="white"/>
<path d="M1343.62 301.253V200.253C1343.62 172.153 1328.22 150.753 1299.12 150.753C1271.02 150.753 1252.02 174.453 1252.02 202.353V301.353H1206.72V111.853L1248.22 129.053C1266.92 110.653 1288.22 109.153 1311.32 109.153C1354.92 109.153 1389.52 141.753 1389.52 199.853V301.153L1343.62 301.253Z" fill="white"/>
<path d="M1189.52 206.653C1189.52 259.653 1153.12 302.953 1093.22 302.953C1033.32 302.953 997.218 259.953 997.218 206.653C997.218 153.953 1033.92 110.353 1092.62 110.353C1151.22 110.353 1189.52 153.653 1189.52 206.653ZM1043.12 206.653C1043.12 234.753 1060.02 260.853 1093.22 260.853C1126.42 260.853 1143.32 234.753 1143.32 206.653C1143.32 178.753 1123.72 151.853 1093.22 151.853C1060.32 151.853 1043.12 178.853 1043.12 206.653Z" fill="white"/>
<path d="M1451.42 113.053H1405.82V301.553H1451.42V113.053Z" fill="white"/>
<path d="M1623.02 111.253L1602.92 160.153L1530.92 257.953H1602.62L1608.82 270.953C1611.72 276.953 1615.22 282.553 1619.22 287.853L1630.82 302.953H1468.42V264.453L1549.62 152.753H1472.02V111.253H1623.02Z" fill="white"/>
<path d="M1663.62 223.553C1666.62 246.353 1686.42 262.953 1718.72 262.953C1735.62 262.953 1753.72 257.653 1764.02 246.653L1796.62 270.653C1779.12 295.853 1744.72 304.453 1718.12 304.453C1654.42 304.453 1616.82 265.053 1616.82 206.053C1616.82 149.753 1655.02 109.453 1714.92 109.453C1776.82 109.453 1818.62 150.953 1806.82 223.553H1663.62ZM1764.02 185.953C1761.02 161.953 1742.42 150.053 1716.02 150.053C1691.42 150.053 1671.02 161.953 1664.42 185.953H1764.02Z" fill="white"/>
<path d="M1868.02 133.553C1884.92 113.353 1905.92 109.553 1924.62 109.553C1943.62 109.553 1966.72 118.753 1977.92 139.453L1951.52 166.753C1942.62 158.553 1930.72 154.253 1918.62 154.853C1894.62 154.853 1872.72 195.753 1872.72 229.853V302.153H1827.12V114.253L1868.02 133.553Z" fill="white"/>
<path d="M184.1 368.7C285.665 368.7 368 286.365 368 184.8C368 83.2347 285.665 0.899902 184.1 0.899902C82.5349 0.899902 0.200012 83.2347 0.200012 184.8C0.200012 286.365 82.5349 368.7 184.1 368.7Z" fill="white"/>
<path d="M27.28 232.791L108.98 287.191C118.98 293.491 121.58 291.091 139.48 286.291L357.78 214.991L118.78 342.191C86.18 307.591 55.58 271.091 27.28 232.791Z" fill="#4484CE"/>
<path d="M94.8381 167.707C82.3381 167.707 72.1381 157.507 72.1381 145.007C72.1381 132.507 82.3381 122.307 94.8381 122.307C107.338 122.307 117.538 132.507 117.538 145.007C117.538 157.607 107.438 167.707 94.8381 167.707Z" fill="#4484CE"/>
<path d="M155.46 131.419C142.96 131.419 132.76 121.219 132.76 108.719C132.76 96.219 142.96 86.019 155.46 86.019C167.96 86.019 178.16 96.219 178.16 108.719C178.16 121.219 168.06 131.319 155.46 131.419Z" fill="#4484CE"/>
<path d="M215.774 98.891C203.274 98.891 193.074 88.691 193.074 76.191C193.074 63.691 203.274 53.491 215.774 53.491C228.274 53.491 238.474 63.691 238.474 76.191C238.374 88.691 228.274 98.891 215.774 98.891Z" fill="#4484CE"/>
<path d="M275.988 140.457C263.488 140.457 253.288 130.257 253.288 117.757C253.288 105.257 263.488 95.0569 275.988 95.0569C288.488 95.0569 298.688 105.257 298.688 117.757C298.688 130.257 288.488 140.457 275.988 140.457Z" fill="#4484CE"/>
<path d="M127.138 256.104C116.738 257.104 107.038 250.904 103.538 241.004L103.338 239.804C102.638 235.904 102.238 232.004 102.238 228.104V201.604C101.738 197.504 97.9381 194.604 93.8381 195.104C90.1381 195.604 87.3381 198.704 87.3381 202.504V234.304C87.3381 238.504 83.9381 241.904 79.7381 241.904C75.5381 241.904 72.1381 238.504 72.1381 234.304V203.504C71.9381 191.704 80.5381 181.604 92.1381 179.904C99.0381 179.004 106.038 181.504 110.938 186.504C114.538 190.004 116.738 194.604 117.338 199.604C117.538 200.604 117.538 201.604 117.538 202.604V233.504C117.538 237.604 120.838 240.904 124.938 240.904C129.038 240.904 132.338 237.604 132.338 233.504V168.304C132.138 156.504 140.538 146.404 152.238 144.504C164.638 142.904 176.138 151.604 177.738 164.004C177.838 165.004 177.938 166.004 177.938 166.904V214.904C177.938 219.004 181.238 222.304 185.338 222.304C189.438 222.304 192.738 219.004 192.738 214.904V135.904C192.538 124.804 200.138 115.104 211.038 112.704C223.438 110.204 235.438 118.304 237.938 130.604C238.238 132.104 238.338 133.504 238.338 135.004V197.804C238.338 201.904 241.638 205.204 245.738 205.204C249.838 205.204 253.138 201.904 253.138 197.804V175.104C252.938 164.004 260.538 154.304 271.438 151.904C283.838 149.404 295.838 157.504 298.338 169.804C298.638 171.304 298.738 172.704 298.738 174.204V190.904C298.738 195.104 295.338 198.504 291.138 198.504C286.938 198.504 283.538 195.104 283.538 190.904V174.204C283.538 170.104 280.238 166.804 276.138 166.804C272.038 166.804 268.738 170.104 268.738 174.204V196.904C268.938 208.004 261.338 217.704 250.438 220.104C238.038 222.604 226.038 214.504 223.538 202.204C223.238 200.704 223.138 199.304 223.138 197.804V135.104C223.138 131.004 219.838 127.704 215.738 127.704C211.638 127.704 208.338 131.004 208.338 135.104V214.204C208.538 225.304 200.938 235.004 190.038 237.404C177.638 239.904 165.638 231.804 163.138 219.504C162.838 218.004 162.738 216.604 162.738 215.104V167.104C162.738 165.104 162.038 163.204 160.638 161.804C159.238 160.404 157.338 159.604 155.338 159.704C151.238 159.704 147.938 163.004 147.938 167.104V232.104C148.038 244.204 139.138 254.504 127.138 256.104Z" fill="#4484CE"/>
</svg>
