<svg width="24" height="24" viewBox="0 0 24 24" fill="none" xmlns="http://www.w3.org/2000/svg">
<path d="M15 9.56875L18.4375 13L15 16.4312V14.75C15 14.3344 14.6656 14 14.25 14H10.5V12H14.25C14.6656 12 15 11.6656 15 11.25V9.56875ZM20 13C20 12.6406 19.8562 12.2969 19.6031 12.0437L15.975 8.425C15.7031 8.15313 15.3344 8 14.95 8C14.15 8 13.5 8.65 13.5 9.45V10.5H10.5C9.67188 10.5 9 11.1719 9 12V14C9 14.8281 9.67188 15.5 10.5 15.5H13.5V16.55C13.5 17.35 14.15 18 14.95 18C15.3344 18 15.7031 17.8469 15.975 17.575L19.6031 13.9563C19.8562 13.7031 20 13.3594 20 13ZM9.25 7.5C9.66563 7.5 10 7.16562 10 6.75C10 6.33437 9.66563 6 9.25 6H6.75C5.23125 6 4 7.23125 4 8.75V17.25C4 18.7688 5.23125 20 6.75 20H9.25C9.66563 20 10 19.6656 10 19.25C10 18.8344 9.66563 18.5 9.25 18.5H6.75C6.05938 18.5 5.5 17.9406 5.5 17.25V8.75C5.5 8.05938 6.05938 7.5 6.75 7.5H9.25Z" fill="#DB4F4F"/>
</svg>
