<svg width="16" height="16" viewBox="0 0 16 16" fill="none" xmlns="http://www.w3.org/2000/svg">
<path d="M14.5 2H1.5C0.671875 2 0 2.67188 0 3.5V12.5C0 13.3281 0.671875 14 1.5 14H14.5C15.3281 14 16 13.3281 16 12.5V3.5C16 2.67188 15.3281 2 14.5 2ZM14.5 3.5V4.775C13.8 5.34688 12.6812 6.23437 10.2937 8.10312C9.76875 8.51562 8.725 9.5125 8 9.5C7.275 9.5125 6.23125 8.51562 5.70625 8.10312C3.31875 6.23437 2.2 5.34688 1.5 4.775V3.5H14.5ZM1.5 12.5V6.7C2.21563 7.27187 3.23125 8.07188 4.77812 9.28125C5.4625 9.81875 6.65625 11.0063 8 11C9.33438 11.0063 10.5156 9.8375 11.2219 9.28438C12.7688 8.07188 13.7844 7.27187 14.5 6.7V12.5H1.5Z" fill="#242B37"/>
</svg>
