<svg width="24" height="24" viewBox="0 0 24 24" fill="none" xmlns="http://www.w3.org/2000/svg">
<path d="M4.37252 17.1792L5.01141 15.0097C5.12808 14.6181 5.33919 14.2597 5.62808 13.9708L14.0753 5.52083C14.7697 4.82639 15.8947 4.82639 16.5892 5.52083L17.6836 6.61528C17.7697 6.70139 17.8475 6.79583 17.9114 6.89306C18.367 7.58194 18.292 8.52083 17.6836 9.12917L9.23641 17.5792C9.2003 17.6153 9.16419 17.6514 9.1253 17.6847C8.85864 17.9208 8.54197 18.0958 8.19752 18.1958L6.02808 18.8347L4.85586 19.1792C4.62252 19.2486 4.36975 19.1847 4.19752 19.0097C4.0253 18.8347 3.95864 18.5875 4.02808 18.3514L4.37252 17.1792ZM6.1003 16.0347L5.6503 17.5569L7.17252 17.1097L7.82252 16.9181C8.0003 16.8653 8.16419 16.7681 8.29475 16.6375L14.6392 10.2903L12.917 8.56806L6.56975 14.9125C6.55308 14.9292 6.53641 14.9458 6.52252 14.9625C6.41419 15.0847 6.33641 15.2292 6.28919 15.3847L6.09752 16.0347H6.1003ZM10.8892 17.8736H19.3336C19.7031 17.8736 20.0003 18.1708 20.0003 18.5403C20.0003 18.9097 19.7031 19.2069 19.3336 19.2069H10.8892C10.5197 19.2069 10.2225 18.9097 10.2225 18.5403C10.2225 18.1708 10.5197 17.8736 10.8892 17.8736Z" fill="white"/>
</svg>
