<svg width="399" height="171" viewBox="0 0 399 171" fill="none" xmlns="http://www.w3.org/2000/svg">
<mask id="mask0_302_1777" style="mask-type:alpha" maskUnits="userSpaceOnUse" x="0" y="0" width="399" height="171">
<rect width="398.462" height="171" fill="#D9D9D9"/>
</mask>
<g mask="url(#mask0_302_1777)">
<path d="M185.171 173.034H234.968L212.592 126.191H162.795L185.171 173.034ZM235.63 173.869H184.908C184.748 173.869 184.6 173.777 184.532 173.631L161.757 125.953C161.697 125.824 161.705 125.673 161.782 125.55C161.858 125.429 161.992 125.357 162.134 125.357H212.855C213.018 125.357 213.163 125.448 213.231 125.594L236.006 173.272C236.069 173.4 236.059 173.553 235.984 173.674C235.906 173.795 235.774 173.869 235.63 173.869Z" fill="#242B37"/>
<path d="M199.685 147.878C198.346 147.878 197.257 149.49 197.257 151.475C197.257 153.458 198.346 155.071 199.685 155.071C201.023 155.071 202.112 153.458 202.112 151.475C202.112 149.49 201.023 147.878 199.685 147.878ZM199.685 155.904C197.887 155.904 196.424 153.918 196.424 151.475C196.424 149.031 197.887 147.044 199.685 147.044C201.484 147.044 202.947 149.031 202.947 151.475C202.947 153.918 201.484 155.904 199.685 155.904Z" fill="#242B37"/>
<path d="M227.783 218.441H298.422C322.501 218.441 342.094 195.785 342.094 167.941V134.337H286.607V147.901C286.607 165.958 274.468 180.806 259.106 182.18V182.282C242.419 182.282 227.783 197.959 227.783 215.832V218.441ZM298.422 219.274H226.948V215.832C226.948 198.35 240.637 182.919 256.776 181.549V181.449C272.763 181.449 285.772 166.4 285.772 147.901V133.504H342.929V167.941C342.929 196.246 322.962 219.274 298.422 219.274Z" fill="#242B37"/>
<path d="M226.808 115.978L241.326 115.077L234.325 99.9523C234.325 99.9523 234.298 96.148 230.232 94.3586C229.29 93.9429 227.277 93.26 225.57 92.7018C223.631 92.0684 221.784 91.1797 220.076 90.0633L218.12 88.7826C217.136 88.1393 215.82 88.3848 215.135 89.3408L214.989 89.5447C214.296 90.5126 214.504 91.8566 215.456 92.5732L221.592 97.1832L218.532 99.3051C216.962 100.394 215.123 101.023 213.217 101.124L205.525 101.682C204.246 101.775 203.231 102.797 203.15 104.075L203.136 104.293L198.981 104.184C197.758 104.19 196.756 105.158 196.709 106.381C196.661 107.581 197.548 108.614 198.744 108.745L224.783 111.605L226.808 115.978Z" fill="#FEDFFF"/>
<path d="M241.396 115.072L235.744 102.892L223.548 108.446L228.924 122.051L241.396 115.072Z" fill="#FEDFFF"/>
<path d="M198.972 104.6C197.983 104.606 197.166 105.395 197.127 106.396C197.087 107.374 197.819 108.222 198.792 108.329L225.018 111.211C225.172 111.227 225.305 111.33 225.361 111.477L229.141 121.45L240.837 114.896L233.948 100.128C233.922 100.075 233.908 100.015 233.908 99.9557C233.907 99.811 233.821 96.3935 230.065 94.7383C229.312 94.4073 227.712 93.8383 225.442 93.097C223.472 92.4527 221.59 91.5488 219.848 90.4109L217.891 89.1304C217.095 88.607 216.032 88.8073 215.477 89.5823L215.33 89.7865C214.773 90.5636 214.942 91.6638 215.707 92.2386L221.844 96.8495C221.953 96.9288 222.013 97.0556 222.011 97.1904C222.009 97.3232 221.941 97.4481 221.832 97.5254L218.772 99.6465C217.138 100.78 215.225 101.435 213.241 101.54L205.556 102.097C204.491 102.174 203.635 103.036 203.567 104.101L203.551 104.319C203.538 104.543 203.339 104.721 203.125 104.709L198.972 104.6ZM228.923 122.467C228.875 122.467 228.826 122.459 228.78 122.441C228.667 122.401 228.576 122.312 228.532 122.197L224.671 112.012L198.699 109.158C197.293 109.003 196.237 107.776 196.294 106.363C196.352 104.915 197.531 103.774 198.982 103.766L202.753 103.865C202.929 102.471 204.077 101.367 205.496 101.266L213.187 100.707C215.027 100.61 216.791 100.007 218.298 98.9626L220.883 97.1686L215.205 92.9047C214.081 92.0602 213.834 90.4446 214.652 89.3008L214.797 89.0986C215.616 87.9568 217.176 87.6654 218.349 88.4326L220.306 89.7132C221.985 90.8114 223.799 91.6836 225.702 92.306C227.303 92.8274 229.419 93.541 230.4 93.9751C234.351 95.7136 234.707 99.2124 234.739 99.8527L241.756 114.896C241.85 115.093 241.772 115.329 241.582 115.436L229.127 122.413C229.064 122.449 228.994 122.467 228.923 122.467Z" fill="#242B37"/>
<path d="M220.753 104.668L218.558 104.292C217.162 104.051 215.868 103.412 214.828 102.452L209.137 97.1889C208.319 96.431 207.043 96.4715 206.275 97.2776C205.542 98.0471 205.521 99.2466 206.229 100.039L211.999 106.523C212.466 107.048 213.033 107.472 213.667 107.773L217.081 109.395L220.753 104.668Z" fill="#FEDFFF"/>
<path d="M214.978 103.473L212.751 103.466C211.335 103.46 209.952 103.045 208.766 102.268L202.285 98.0172C201.353 97.4059 200.101 97.6558 199.476 98.5786C198.882 99.4572 199.059 100.645 199.888 101.311L206.653 106.751C207.199 107.19 207.828 107.517 208.503 107.709L212.136 108.743L214.978 103.473Z" fill="#FEDFFF"/>
<path d="M208.503 108.125C208.465 108.125 208.426 108.119 208.388 108.11C207.656 107.9 206.984 107.553 206.389 107.076L199.625 101.636C198.637 100.841 198.42 99.3951 199.13 98.3458C199.879 97.2387 201.396 96.9364 202.513 97.668L207.481 100.955C207.671 101.082 207.723 101.34 207.598 101.532C207.471 101.725 207.211 101.777 207.019 101.65L202.053 98.365C201.317 97.8817 200.316 98.082 199.821 98.8117C199.352 99.5068 199.496 100.462 200.147 100.986L206.913 106.425C207.417 106.833 207.993 107.13 208.617 107.307C208.838 107.37 208.965 107.601 208.904 107.823C208.852 108.006 208.684 108.125 208.503 108.125Z" fill="#242B37"/>
<path d="M215.004 109.235C214.944 109.235 214.884 109.224 214.828 109.197C213.281 108.474 211.883 107.404 210.784 106.099L205.909 100.309C205.075 99.3721 205.098 97.9101 205.973 96.9908C206.894 96.0251 208.441 95.9768 209.42 96.8826L215.112 102.145C216.093 103.055 217.31 103.654 218.629 103.882L223.146 104.309C223.374 104.332 223.542 104.535 223.521 104.764C223.5 104.992 223.297 105.168 223.067 105.139L218.521 104.706C217.011 104.45 215.647 103.777 214.544 102.758L208.855 97.4948C208.208 96.8961 207.186 96.929 206.578 97.5663C205.998 98.1727 205.983 99.1384 206.541 99.7641L211.421 105.562C212.443 106.775 213.743 107.769 215.18 108.442C215.388 108.538 215.479 108.785 215.382 108.996C215.311 109.147 215.16 109.235 215.004 109.235Z" fill="#242B37"/>
<path d="M223.374 98.9209C223.29 98.9209 223.203 98.8939 223.126 98.838L221.255 97.4524C221.07 97.3155 221.031 97.0534 221.168 96.8684C221.305 96.6834 221.567 96.6449 221.75 96.7817L223.623 98.1674C223.81 98.3042 223.847 98.5663 223.712 98.7513C223.629 98.8612 223.504 98.9209 223.374 98.9209Z" fill="#242B37"/>
<path d="M296.135 170.094C296.135 170.094 274.598 164.039 272.492 164.036L239.878 164.028V181.915L284.314 181.924C290.843 181.926 296.135 176.627 296.135 170.094Z" fill="#FEDFFF"/>
<path d="M220.26 169.59L218.322 171.687C217.342 172.747 217.245 174.349 218.084 175.521L219.99 178.169L224.605 173.013H253.597V166.94H226.32C224.02 166.94 221.823 167.9 220.26 169.59Z" fill="#FEDFFF"/>
<path d="M221.152 165.801L220.055 166.989C219.078 168.049 218.978 169.653 219.822 170.823L221.725 173.469L226.341 168.315H253.597V164.091H248.972C247.059 164.091 243.645 162.242 239.325 162.242H229.294C226.205 162.242 223.253 163.533 221.152 165.801Z" fill="#FEDFFF"/>
<path d="M217.962 175.845C217.832 175.845 217.705 175.784 217.624 175.671C216.694 174.38 216.851 172.665 218.015 171.406L219.955 169.31C221.59 167.539 223.911 166.525 226.319 166.525H231.656C231.886 166.525 232.073 166.711 232.073 166.941C232.073 167.172 231.886 167.359 231.656 167.359H226.319C224.142 167.359 222.045 168.276 220.567 169.875L218.627 171.971C217.739 172.932 217.609 174.223 218.3 175.185C218.435 175.372 218.391 175.631 218.206 175.765C218.132 175.82 218.047 175.845 217.962 175.845Z" fill="#242B37"/>
<path d="M284.315 182.343C284.313 182.343 284.313 182.343 284.311 182.343H236.834C236.602 182.343 236.417 182.157 236.417 181.926C236.417 181.696 236.602 181.508 236.834 181.508H284.311C284.313 181.508 284.313 181.508 284.315 181.508C287.362 181.508 290.223 180.321 292.375 178.166C294.455 176.084 295.633 173.34 295.713 170.409C289.518 168.671 274.143 164.457 272.491 164.457H249.837C248.035 164.457 246.634 164.068 245.148 163.658C243.369 163.168 241.53 162.66 238.655 162.66H229.295C226.328 162.66 223.474 163.909 221.46 166.088L220.363 167.274C219.635 168.06 219.46 169.192 219.915 170.163C220.012 170.371 219.922 170.62 219.714 170.718C219.502 170.817 219.257 170.724 219.158 170.517C218.56 169.241 218.791 167.744 219.752 166.706L220.847 165.521C223.019 163.172 226.099 161.825 229.295 161.825H238.655C241.642 161.825 243.622 162.373 245.371 162.854C246.861 163.267 248.15 163.622 249.837 163.622H272.491C274.628 163.622 295.364 169.444 296.245 169.693C296.426 169.744 296.55 169.907 296.55 170.095C296.55 173.367 295.278 176.442 292.964 178.755C290.655 181.069 287.582 182.343 284.315 182.343Z" fill="#242B37"/>
<path d="M324.101 154.775L280.687 155.285L268.759 178.513L282.675 188.214L290.576 178.513L295.76 188.214L338.671 182.609L324.101 154.775Z" fill="#9BB4F6"/>
<path d="M305.042 100.276L289.06 104.527C279.951 106.949 271.651 111.748 265.009 118.43L254.527 128.975L244.664 107.97L221.464 118.074L237.52 151.307C242.392 161.392 255.771 163.627 263.661 155.679L278.927 140.318L280.688 155.286H320.584L331.941 108.61L305.042 100.276Z" fill="#C3D3FD"/>
<path d="M263.321 148.114C263.162 148.114 263.012 148.026 262.941 147.875L254.15 129.154C254.054 128.947 254.142 128.696 254.351 128.6C254.56 128.501 254.808 128.592 254.907 128.798L263.696 147.52C263.794 147.729 263.706 147.978 263.495 148.074C263.439 148.104 263.379 148.114 263.321 148.114Z" fill="#242B37"/>
<path d="M294.42 136.807L296.314 102.599L305.044 99.8803L316.388 103.561L294.42 136.807Z" fill="white"/>
<path d="M278.97 140.759C278.9 140.759 278.828 140.742 278.764 140.704C275.867 139.057 274.067 135.966 274.067 132.638C274.067 128.975 276.206 125.681 279.532 124.183L281.361 115.869C281.412 115.642 281.634 115.502 281.859 115.551C282.084 115.6 282.226 115.822 282.177 116.047L280.301 124.568C280.271 124.7 280.18 124.81 280.055 124.863C276.924 126.188 274.9 129.238 274.9 132.638C274.9 135.667 276.538 138.48 279.178 139.979C279.377 140.093 279.447 140.345 279.334 140.547C279.256 140.682 279.114 140.759 278.97 140.759Z" fill="#242B37"/>
<path d="M290.421 180.762C290.214 180.762 290.034 180.61 290.005 180.399L286.613 155.669C286.604 155.597 286.61 155.526 286.637 155.458L294.033 136.651C294.117 136.437 294.358 136.334 294.574 136.418C294.789 136.501 294.892 136.743 294.809 136.958L287.454 155.663L290.832 180.289C290.865 180.516 290.704 180.727 290.476 180.757C290.458 180.76 290.438 180.762 290.421 180.762Z" fill="#242B37"/>
<path d="M294.421 148.85C294.31 148.85 294.196 148.805 294.113 148.715C293.96 148.545 293.969 148.282 294.139 148.126L311.96 131.639L308.126 124.729C308.055 124.602 308.055 124.448 308.126 124.32C308.199 124.195 308.332 124.115 308.476 124.11L318.839 123.803L321.158 105.008C321.186 104.779 321.397 104.613 321.621 104.644C321.85 104.672 322.014 104.88 321.985 105.11L319.621 124.259C319.595 124.465 319.425 124.621 319.22 124.625L309.187 124.923L312.849 131.518C312.944 131.686 312.911 131.896 312.769 132.026L294.704 148.739C294.624 148.812 294.522 148.85 294.421 148.85Z" fill="#9BB4F6"/>
<path d="M288.631 148.114C288.43 148.114 288.253 147.97 288.22 147.765L284.853 126.814C284.823 126.63 284.917 126.451 285.085 126.372L291.421 123.357L285.098 120.63C284.904 120.545 284.803 120.327 284.867 120.123L289.839 104.093C289.907 103.872 290.139 103.75 290.362 103.817C290.58 103.885 290.702 104.119 290.635 104.34L285.773 120.012L292.597 122.957C292.748 123.023 292.846 123.169 292.848 123.333C292.852 123.495 292.761 123.645 292.61 123.715L285.725 126.991L289.044 147.634C289.079 147.859 288.926 148.073 288.697 148.11C288.675 148.112 288.653 148.114 288.631 148.114Z" fill="#9BB4F6"/>
<path d="M320.584 155.701C320.551 155.701 320.517 155.696 320.482 155.689C320.293 155.639 320.166 155.472 320.166 155.285C320.166 155.25 320.171 155.216 320.181 155.183L325.339 134.829C325.396 134.606 325.623 134.473 325.846 134.528C326.034 134.575 326.161 134.745 326.161 134.931C326.161 134.965 326.156 135.001 326.147 135.034L320.988 155.386C320.94 155.577 320.771 155.701 320.584 155.701Z" fill="#242B37"/>
<path d="M330.386 169.311C330.255 169.311 330.127 169.252 330.045 169.139L320.247 155.531C320.114 155.343 320.155 155.081 320.341 154.948C320.527 154.813 320.788 154.854 320.924 155.043L330.722 168.652C330.857 168.838 330.814 169.099 330.628 169.233C330.553 169.286 330.468 169.311 330.386 169.311Z" fill="#242B37"/>
<path d="M315.244 185.627C320.586 185.179 325.688 181.372 327.668 175.924C331.64 165.011 338.433 143.444 340.416 132.871C342.624 121.087 340.675 112.55 330.791 108.317C330.529 108.205 326.234 106.84 325.96 106.755L316.076 135.209L309.265 161.304L256.359 162.437V185.926L315.244 185.627Z" fill="#C3D3FD"/>
<path d="M256.357 186.342C256.25 186.342 256.143 186.298 256.063 186.221C255.985 186.141 255.94 186.036 255.94 185.926V162.435C255.94 162.208 256.123 162.023 256.35 162.019L308.937 160.893L315.075 136.591C315.132 136.369 315.357 136.232 315.581 136.289C315.803 136.347 315.94 136.574 315.883 136.796L309.671 161.405C309.623 161.588 309.461 161.716 309.274 161.72L256.776 162.843V185.506L315.217 185.209C320.877 184.476 325.525 180.977 327.351 176.073C331.825 164.062 339.132 137.766 340.833 127.563C342.462 117.786 336.46 111.189 332.027 109.139C328.871 107.679 321.214 106.434 321.137 106.422C320.91 106.387 320.755 106.172 320.79 105.945C320.828 105.718 321.04 105.561 321.269 105.598C321.589 105.651 329.118 106.873 332.376 108.383C337.041 110.538 343.363 117.464 341.657 127.7C339.95 137.938 332.618 164.319 328.135 176.365C326.194 181.567 321.277 185.276 315.297 186.039C315.279 186.041 315.264 186.043 315.247 186.043L256.36 186.342H256.357Z" fill="#242B37"/>
<path d="M335.004 93.9503C335.004 101.366 328.988 107.38 321.569 107.38C314.148 107.38 308.135 101.366 308.135 93.9503C308.135 86.5343 314.148 80.5232 321.569 80.5232C328.988 80.5232 335.004 86.5343 335.004 93.9503Z" fill="#242B37"/>
<path d="M311.158 102.455L299.713 111.214V85.6343H311.158V102.455Z" fill="#FEDFFF"/>
<path d="M311.159 89.975V85.6355H299.714V95.2103C300.748 95.4171 302.806 95.6744 305.17 94.8956C308.871 93.6781 310.688 90.7859 311.159 89.975Z" fill="#242B37"/>
<path d="M311.817 87.8135L304.915 81.41L295.776 78.7821L296.186 76.7537C297.56 69.9006 305.203 66.3662 311.321 69.753C317.408 73.1257 318.485 81.4287 313.459 86.2419L311.817 87.8135Z" fill="#242B37"/>
<path d="M313.09 82.2566C313.09 87.8723 308.969 92.4258 303.886 92.4258C298.804 92.4258 294.682 87.8723 294.682 82.2566C294.682 76.6387 298.804 72.0875 303.886 72.0875C308.969 72.0875 313.09 76.6387 313.09 82.2566Z" fill="#FEDFFF"/>
<path d="M298.901 87.0459C299.883 87.8633 301.123 88.3883 302.499 88.4637C305.565 88.628 308.221 86.5186 308.842 83.6077L298.901 87.0459Z" fill="white"/>
<path d="M291.745 79.4951H308.84V70.8403H300.405C295.622 70.8403 291.745 74.7145 291.745 79.4951Z" fill="#242B37"/>
<path d="M70.1772 93.5616C70.1772 101.09 64.499 107.191 57.4947 107.191C50.4903 107.191 44.812 101.09 44.812 93.5616C44.812 86.0353 50.4903 79.9338 57.4947 79.9338C64.499 79.9338 70.1772 86.0353 70.1772 93.5616Z" fill="#955B50"/>
<path d="M44.813 120.89H61.7898V92.1825H44.813V120.89Z" fill="#955B50"/>
<path d="M61.2329 121.306C61.0023 121.306 60.8159 121.121 60.8159 120.89V100.553C60.8159 100.323 61.0023 100.136 61.2329 100.136C61.4633 100.136 61.6499 100.323 61.6499 100.553V120.89C61.6499 121.121 61.4633 121.306 61.2329 121.306Z" fill="#242B37"/>
<path d="M63.4773 95.8234C58.2437 101.657 50.1744 102.952 45.4539 98.7206C40.7336 94.4872 41.1499 86.3296 46.3835 80.496C51.617 74.6644 61.5449 75.6542 66.2652 79.8856C70.9857 84.1191 68.7108 89.9918 63.4773 95.8234Z" fill="#242B37"/>
<path d="M114.629 158.679L111.915 179.361L74.0772 179.286L72.3096 155.163L114.629 158.679Z" fill="white"/>
<path d="M74.4644 178.869L111.549 178.943L114.159 159.058L72.761 155.618L74.4644 178.869ZM111.915 179.778C111.914 179.778 111.914 179.778 111.914 179.778L74.0761 179.703C73.8578 179.701 73.6771 179.533 73.6612 179.315L71.8937 155.193C71.8847 155.07 71.9295 154.951 72.0158 154.866C72.1026 154.78 72.2191 154.733 72.344 154.746L114.664 158.262C114.777 158.272 114.882 158.329 114.954 158.417C115.025 158.506 115.057 158.62 115.042 158.733L112.328 179.415C112.301 179.623 112.124 179.778 111.915 179.778Z" fill="#242B37"/>
<path d="M13.1417 183.623C5.33929 180.572 1.70152 171.242 5.01699 162.782L19.9698 124.675L47.7674 136.851L33.2725 173.833C29.9572 182.293 20.9442 186.676 13.1417 183.623Z" fill="white"/>
<path d="M20.1989 125.232L5.4042 162.934C3.83956 166.929 3.80176 171.241 5.29796 175.08C6.78982 178.908 9.62948 181.804 13.2932 183.237C20.8687 186.201 29.6573 181.913 32.8841 173.683L47.2325 137.073L20.1989 125.232ZM18.2763 185.01C16.5028 185.01 14.717 184.688 12.9894 184.014C9.10586 182.494 6.09852 179.429 4.52122 175.382C2.94826 171.348 2.98664 166.819 4.62821 162.63L19.5812 124.525C19.6224 124.419 19.705 124.334 19.8101 124.29C19.9143 124.247 20.0324 124.249 20.1366 124.294L47.9344 136.47C48.1395 136.56 48.237 136.797 48.1552 137.005L33.6601 173.987C30.9988 180.777 24.7212 185.008 18.2763 185.01Z" fill="#242B37"/>
<path d="M122.022 150.508L96.4732 127.452C88.7288 121.372 83.5156 117.078 75.4427 115.679L52.8967 111.775L33.4666 115.1C24.2943 116.671 17.5889 124.618 17.5889 133.917V182.262L87.9929 182.865L87.9931 167.417C87.9931 167.417 94.6446 171.674 98.5397 174.164C105.928 178.886 112.592 184.011 124.088 173.096C130.221 162.406 127.141 157.14 122.022 150.508Z" fill="white"/>
<path d="M87.9927 183.283C87.9916 183.283 87.9903 183.283 87.9891 183.283L17.5851 182.68C17.3562 182.678 17.1719 182.491 17.1719 182.264V133.917C17.1719 124.386 23.9951 116.299 33.3959 114.69L52.8258 111.363C53.0566 111.325 53.2683 111.479 53.3071 111.704C53.346 111.932 53.1935 112.148 52.9666 112.186L33.5367 115.513C24.5374 117.053 18.0057 124.792 18.0057 133.917V181.85L87.5759 182.446V167.418C87.5759 167.187 87.7623 167.002 87.9927 167.002C88.2232 167.002 88.4097 167.187 88.4097 167.418V182.865C88.4097 182.977 88.3653 183.083 88.2863 183.162C88.2082 183.24 88.1028 183.283 87.9927 183.283Z" fill="#242B37"/>
<path d="M111.006 179.838C107.76 179.838 104.492 178.919 101.629 177.01L87.7613 167.766C87.5694 167.638 87.5178 167.379 87.6456 167.188C87.7732 166.995 88.0313 166.944 88.2239 167.072L102.092 176.316C109.071 180.97 118.588 179.441 123.76 172.84C129.008 166.137 128.124 156.466 121.745 150.823C113.449 143.483 102.451 133.683 97.1707 128.672C92.9323 124.649 84.4636 117.665 75.3709 116.09L52.8248 112.186C52.598 112.147 52.4462 111.931 52.4851 111.704C52.5242 111.477 52.7409 111.326 52.9673 111.364L75.5134 115.27C84.8224 116.882 93.438 123.98 97.745 128.067C103.016 133.071 114.006 142.863 122.298 150.197C129.006 156.133 129.937 166.303 124.416 173.354C121.099 177.588 116.081 179.838 111.006 179.838Z" fill="#242B37"/>
<path d="M87.9924 167.834C87.9088 167.834 87.8247 167.809 87.7514 167.756L67.0328 153.05C66.8451 152.917 66.8013 152.656 66.9344 152.469C67.0678 152.282 67.3277 152.237 67.5158 152.371L88.2343 167.076C88.4219 167.21 88.4659 167.471 88.3328 167.658C88.2514 167.773 88.1232 167.834 87.9924 167.834Z" fill="#242B37"/>
<path d="M55.102 104.735C55.3337 109.028 52.0396 112.695 47.7447 112.928C43.4496 113.159 39.7803 109.867 39.5486 105.572C39.317 101.279 42.6109 97.6119 46.906 97.379C51.2006 97.1481 54.8704 100.44 55.102 104.735Z" fill="#242B37"/>
<path d="M52.5894 116.121C52.821 120.414 49.5271 124.081 45.2322 124.314C40.9372 124.544 37.2677 121.251 37.0359 116.958C36.8043 112.665 40.0981 108.998 44.3931 108.766C48.6882 108.535 52.3575 111.826 52.5894 116.121Z" fill="#242B37"/>
<path d="M50.9677 128.254C51.1993 132.547 47.9053 136.216 43.6105 136.446C39.3154 136.679 35.6459 133.386 35.4143 129.093C35.1826 124.8 38.4765 121.131 42.7714 120.9C47.0664 120.668 50.7359 123.961 50.9677 128.254Z" fill="#242B37"/>
<path d="M71.4748 138.625V162.161C71.4748 180.15 85.6923 194.732 103.231 194.732C120.769 194.732 134.986 209.316 134.986 227.304V230.206H48.0236C21.7315 230.206 0.41748 208.344 0.41748 181.377V138.625H71.4748Z" fill="white"/>
<path d="M0.833831 139.04V181.376C0.833831 208.071 22.003 229.788 48.0232 229.788H134.568V227.304C134.568 209.572 120.51 195.149 103.23 195.149C85.4897 195.149 71.057 180.349 71.057 162.161V139.04H0.833831ZM134.986 230.623H48.0232C21.5429 230.623 0 208.531 0 181.376V138.624C0 138.393 0.186389 138.206 0.416821 138.206H71.474C71.7044 138.206 71.8908 138.393 71.8908 138.624V162.161C71.8908 179.89 85.9495 194.315 103.23 194.315C120.97 194.315 135.403 209.113 135.403 227.304V230.205C135.403 230.436 135.216 230.623 134.986 230.623Z" fill="#242B37"/>
<path d="M103.573 111.461C103.573 116.742 103.914 124.068 98.6238 124.068C93.333 124.068 84.4141 116.742 84.4141 111.461C84.4141 106.18 88.703 101.897 93.9938 101.897C99.2846 101.897 103.573 106.18 103.573 111.461Z" fill="#FEDFFF"/>
<path d="M107.09 109.12C105.629 104.25 101.107 100.698 95.752 100.698C90.3973 100.698 86.0408 103.965 84.7036 109.12H107.09Z" fill="#242B37"/>
<path d="M97.4281 127.895H86.3477V111.462H97.4281V127.895Z" fill="#FEDFFF"/>
<path d="M97.4278 128.479C97.1973 128.479 97.0107 128.294 97.0107 128.064V118.807C97.0107 118.576 97.1973 118.389 97.4278 118.389C97.6582 118.389 97.8446 118.576 97.8446 118.807V128.064C97.8446 128.294 97.6582 128.479 97.4278 128.479Z" fill="#242B37"/>
<path d="M149.585 106.691L145.039 118.373L143.973 111.492L145.071 108.509C145.685 106.84 147.528 105.972 149.211 106.558L149.585 106.691Z" fill="#FEDFFF"/>
<path d="M167.145 115.67L165.372 129.022L149.043 133.789L144.254 121.349C142.965 118.003 142.939 114.303 144.177 110.939L144.935 108.88L167.145 115.67Z" fill="#FEDFFF"/>
<path d="M159.318 93.4728L150.305 118.067L145.801 116.414L154.814 91.8197C155.253 90.6272 156.577 90.0172 157.769 90.456L157.952 90.5229C159.145 90.9598 159.757 92.2802 159.318 93.4728Z" fill="#FEDFFF"/>
<path d="M160.576 104.062L155.303 118.388L150.44 116.424L156.073 102.408C156.515 101.209 157.845 100.595 159.044 101.034L159.202 101.093C160.403 101.533 161.019 102.863 160.576 104.062Z" fill="#FEDFFF"/>
<path d="M169.577 107.387L164.386 121.481L159.883 119.829L165.072 105.733C165.518 104.523 166.861 103.903 168.07 104.347L168.189 104.391C169.401 104.837 170.021 106.177 169.577 107.387Z" fill="#FEDFFF"/>
<path d="M169.575 117.765L165.422 128.918L160.895 127.256L167.9 108.359L169.533 112.589C170.176 114.253 170.191 116.092 169.575 117.765Z" fill="#FEDFFF"/>
<path d="M163.127 103.698L163.373 103.787C164.549 104.22 165.089 105.687 164.583 107.067L159.946 121.054L154.787 119.003L160.078 105.415C160.587 104.035 161.952 103.266 163.127 103.698Z" fill="#FEDFFF"/>
<path d="M165.574 127.845L165.092 148.028L147.668 142.473L148.067 121.42L165.574 127.845Z" fill="#FEDFFF"/>
<path d="M165.409 134.724L165.092 148.028L147.668 142.473L147.778 136.647L158.595 135.467L165.409 134.724Z" fill="#242B37"/>
<path d="M158.796 109.312C158.747 109.312 158.699 109.304 158.653 109.287C158.436 109.207 158.325 108.967 158.405 108.751L160.184 103.918C160.359 103.443 160.338 102.929 160.126 102.469C159.913 102.01 159.534 101.659 159.057 101.484L158.901 101.427C157.917 101.067 156.824 101.572 156.461 102.553L154.441 108.044C154.361 108.259 154.121 108.37 153.906 108.29C153.69 108.212 153.58 107.972 153.658 107.754L155.678 102.264C156.198 100.853 157.773 100.125 159.187 100.646L159.345 100.703C160.031 100.954 160.576 101.457 160.883 102.119C161.19 102.78 161.218 103.522 160.967 104.206L159.187 109.039C159.126 109.209 158.966 109.312 158.796 109.312Z" fill="#242B37"/>
<path d="M163.039 111.677C162.992 111.677 162.943 111.667 162.895 111.65C162.68 111.571 162.568 111.331 162.648 111.115L164.328 106.552C164.498 106.089 164.479 105.588 164.272 105.14C164.066 104.692 163.695 104.352 163.23 104.18L162.984 104.091C162.026 103.739 160.96 104.231 160.606 105.187L158.986 109.592C158.907 109.807 158.667 109.919 158.451 109.837C158.234 109.758 158.124 109.52 158.204 109.302L159.824 104.9C160.336 103.512 161.882 102.796 163.272 103.308L163.517 103.397C164.19 103.645 164.727 104.14 165.03 104.79C165.33 105.441 165.359 106.168 165.111 106.841L163.43 111.403C163.37 111.573 163.209 111.677 163.039 111.677Z" fill="#242B37"/>
<path d="M146.266 115.576C146.219 115.576 146.17 115.568 146.122 115.551C145.906 115.472 145.795 115.231 145.874 115.015L154.423 91.6766C154.942 90.2694 156.506 89.5462 157.914 90.0625L158.097 90.1295C158.779 90.3798 159.323 90.8804 159.626 91.5386C159.934 92.1969 159.961 92.9339 159.711 93.6158L154.084 109.017C154.005 109.234 153.765 109.345 153.548 109.266C153.331 109.187 153.219 108.948 153.3 108.732L158.928 93.3281C159.102 92.8551 159.082 92.3447 158.869 91.8894C158.658 91.4342 158.282 91.0873 157.809 90.9139L157.626 90.8449C156.65 90.4882 155.566 90.9888 155.208 91.9623L146.656 115.302C146.595 115.472 146.436 115.576 146.266 115.576Z" fill="#242B37"/>
<path d="M165.091 148.446C165.048 148.446 165.006 148.441 164.965 148.427L147.541 142.872C147.366 142.815 147.246 142.651 147.25 142.467L147.471 130.866L143.865 121.498C142.672 118.399 142.53 114.938 143.468 111.753C143.534 111.532 143.764 111.403 143.986 111.471C144.207 111.535 144.333 111.768 144.267 111.987C143.383 114.999 143.515 118.269 144.643 121.199L148.279 130.643C148.297 130.694 148.307 130.747 148.305 130.802L148.09 142.172L164.687 147.463L165.139 128.632C165.139 128.586 165.148 128.541 165.165 128.498L169.184 117.622C169.764 116.044 169.751 114.311 169.146 112.742L168.214 110.331C168.18 110.239 168.178 110.137 168.21 110.042L169.184 107.25C169.362 106.762 169.341 106.244 169.127 105.779C168.912 105.314 168.528 104.961 168.046 104.785L167.929 104.742C166.936 104.375 165.829 104.887 165.464 105.878L163.173 112.104C163.091 112.32 162.853 112.432 162.636 112.352C162.42 112.271 162.311 112.033 162.39 111.815L164.681 105.59C165.205 104.167 166.793 103.435 168.216 103.959L168.333 104.001C169.025 104.256 169.575 104.762 169.883 105.43C170.191 106.095 170.222 106.842 169.968 107.532L169.048 110.173L169.923 112.441C170.602 114.199 170.619 116.14 169.966 117.91L165.97 128.722L165.507 148.04C165.503 148.172 165.439 148.293 165.333 148.369C165.261 148.42 165.176 148.446 165.091 148.446Z" fill="#242B37"/>
<path d="M156.571 196.688C148.335 196.546 141.774 189.766 141.915 181.543L142.522 139.528L172.476 139.589L171.741 182.057C171.599 190.278 164.807 196.83 156.571 196.688Z" fill="#F0E097"/>
<path d="M142.933 139.945L142.333 181.548C142.265 185.414 143.712 189.075 146.401 191.854C149.091 194.635 152.706 196.204 156.579 196.27C156.664 196.272 156.749 196.272 156.832 196.272C164.711 196.272 171.189 189.943 171.326 182.049L172.051 140.004L142.933 139.945ZM156.834 197.107C156.743 197.107 156.655 197.106 156.564 197.104C152.469 197.034 148.647 195.376 145.802 192.434C142.955 189.495 141.428 185.624 141.498 181.535L142.105 139.522C142.108 139.293 142.294 139.11 142.522 139.11L172.477 139.17C172.588 139.17 172.696 139.216 172.774 139.295C172.851 139.375 172.895 139.482 172.893 139.596L172.159 182.062C172.016 190.412 165.165 197.106 156.834 197.107Z" fill="#242B37"/>
<path d="M167.535 171.432L140.863 144.797C130.029 133.975 115.33 127.895 100.005 127.895H82.738C70.8345 127.895 59.9822 134.701 54.8123 145.404L41.6713 172.613C38.0495 180.137 40.2384 191.201 47.7733 194.817C52.8664 197.261 57.1248 197.078 61.8516 194.812L60.3459 211.721L133.059 208.685L129.173 178.335L146.441 192.49L167.535 171.432Z" fill="#F0E097"/>
<path d="M146.441 192.907C146.348 192.907 146.253 192.877 146.176 192.813L114.312 166.694C114.134 166.546 114.108 166.284 114.254 166.106C114.399 165.928 114.662 165.902 114.84 166.049L146.705 192.168C146.883 192.314 146.909 192.576 146.764 192.754C146.681 192.854 146.562 192.907 146.441 192.907Z" fill="#242B37"/>
<path d="M60.331 191.783C60.3089 191.783 60.287 191.783 60.2647 191.779C60.0371 191.742 59.8823 191.528 59.919 191.301L66.4841 150.358C66.5208 150.131 66.7346 149.976 66.9616 150.012C67.1892 150.048 67.344 150.264 67.3073 150.491L60.7422 191.433C60.7093 191.638 60.5322 191.783 60.331 191.783Z" fill="#242B37"/>
<path d="M167.536 171.849C167.43 171.849 167.322 171.807 167.241 171.728L140.568 145.091C129.578 134.114 115.388 128.312 99.5327 128.312H85.2593C85.0289 128.312 84.8423 128.125 84.8423 127.894C84.8423 127.664 85.0289 127.479 85.2593 127.479H99.5327C115.614 127.479 130.009 133.363 141.158 144.499L167.831 171.136C167.993 171.299 167.993 171.563 167.831 171.726C167.749 171.807 167.642 171.849 167.536 171.849Z" fill="#242B37"/>
<path d="M65.9957 153.72L56.4219 196.483C56.4219 196.483 57.8737 196.361 59.3969 195.86C60.4802 195.504 61.8513 194.81 61.8513 194.81L65.9957 153.72Z" fill="#242B37"/>
<path d="M107.547 164.127V187.819C107.547 205.924 121.858 220.603 139.511 220.603C157.163 220.603 171.473 235.279 171.473 253.387V256.308H83.943C57.4792 256.308 36.0259 234.304 36.0259 207.161V164.127H107.547Z" fill="white"/>
<path d="M36.4422 164.544V207.16C36.4422 234.029 57.7507 255.889 83.9421 255.889H171.057V253.386C171.057 235.538 156.906 221.018 139.511 221.018C121.656 221.018 107.13 206.124 107.13 187.818V164.544H36.4422ZM171.473 256.725H83.9421C57.291 256.725 35.6084 234.489 35.6084 207.16V164.126C35.6084 163.896 35.7948 163.71 36.0252 163.71H107.547C107.777 163.71 107.964 163.896 107.964 164.126V187.818C107.964 205.665 122.115 220.184 139.511 220.184C157.365 220.184 171.89 235.078 171.89 253.386V256.307C171.89 256.537 171.703 256.725 171.473 256.725Z" fill="#242B37"/>
<path d="M217.652 41.4874C217.652 46.9252 216.588 52.1022 214.662 56.8202C208.843 71.0469 195.175 81.0322 179.24 81.0322C179.1 81.0322 178.967 81.0322 178.828 81.0272C178.778 81.0272 178.735 81.0272 178.684 81.0222C178.538 81.0272 178.395 81.0222 178.247 81.0172H178.234C177.818 81.0097 177.402 80.9896 176.99 80.9595C170.44 80.5757 164.329 78.4964 159.06 75.1379C152.301 70.8362 146.93 64.4352 143.819 56.8152C142.928 54.6431 142.227 52.3756 141.726 50.0279C141.136 47.2789 140.828 44.422 140.828 41.4874C140.828 35.9893 141.919 30.7471 143.89 25.9865C146.301 20.1649 150.028 15.0581 154.692 11.07C160.809 5.83029 168.535 2.50689 176.99 2.01276C177.402 1.98016 177.818 1.96259 178.234 1.95256H178.247C178.395 1.95005 178.538 1.94505 178.684 1.95006C178.735 1.94505 178.778 1.94504 178.828 1.94504C178.967 1.94003 179.1 1.94002 179.24 1.94002C188.571 1.94002 197.127 5.36877 203.786 11.07C208.449 15.0581 212.179 20.1699 214.592 25.994C216.561 30.7521 217.652 35.9893 217.652 41.4874Z" fill="#C3D3FD"/>
<path d="M214.598 26.4109C214.584 26.4109 214.57 26.4108 214.556 26.4085C203.843 25.2904 191.618 24.6994 179.197 24.6994C166.786 24.6994 154.565 25.2904 143.856 26.4085C143.623 26.4346 143.421 26.2661 143.398 26.0358C143.374 25.8079 143.54 25.6014 143.769 25.5777C154.506 24.4573 166.757 23.8662 179.197 23.8662C191.647 23.8662 203.9 24.4597 214.641 25.58C214.871 25.6038 215.038 25.8079 215.011 26.0382C214.99 26.2518 214.81 26.4109 214.598 26.4109Z" fill="white"/>
<path d="M179.24 58.9434C166.784 58.9434 154.518 58.3498 143.769 57.2257C143.54 57.2017 143.374 56.9974 143.398 56.7691C143.421 56.5386 143.623 56.3711 143.856 56.3972C154.577 57.517 166.812 58.1106 179.24 58.1106C191.675 58.1106 203.917 57.517 214.642 56.3951C214.871 56.369 215.075 56.5386 215.099 56.7669C215.123 56.9952 214.956 57.2017 214.727 57.2257C203.975 58.3498 191.703 58.9434 179.24 58.9434Z" fill="white"/>
<path d="M203.802 11.4863C203.782 11.4863 203.762 11.4839 203.745 11.4814C195.863 10.3993 187.618 9.84968 179.239 9.84968C170.867 9.84968 162.629 10.3993 154.752 11.4789C154.525 11.511 154.315 11.3508 154.283 11.1215C154.251 10.8948 154.412 10.6828 154.638 10.6532C162.553 9.56624 170.829 9.01658 179.239 9.01658C187.655 9.01658 195.939 9.5687 203.858 10.6557C204.085 10.6853 204.245 10.8972 204.213 11.124C204.184 11.3335 204.006 11.4863 203.802 11.4863Z" fill="white"/>
<path d="M179.225 72.8105C170.277 72.8105 161.508 72.1751 153.158 70.923C152.932 70.8896 152.773 70.6764 152.809 70.4485C152.842 70.2207 153.049 70.0681 153.281 70.0974C161.59 71.3453 170.319 71.9786 179.225 71.9786C188.176 71.9786 197.122 71.3557 205.097 70.1768C205.324 70.1434 205.538 70.3001 205.571 70.528C205.605 70.7558 205.446 70.9669 205.22 71.0004C197.204 72.1855 188.216 72.8105 179.225 72.8105Z" fill="white"/>
<path d="M178.542 2.35645C164.171 2.35645 152.48 19.9094 152.48 41.4846C152.48 63.0598 164.171 80.6127 178.542 80.6127C192.913 80.6127 204.604 63.0598 204.604 41.4846C204.604 19.9094 192.913 2.35645 178.542 2.35645ZM178.542 81.4463C163.712 81.4463 151.646 63.5192 151.646 41.4846C151.646 19.4499 163.712 1.52287 178.542 1.52287C193.37 1.52287 205.437 19.4499 205.437 41.4846C205.437 63.5192 193.37 81.4463 178.542 81.4463Z" fill="white"/>
<path d="M178.524 2.35645C172.734 2.35645 167.842 20.2759 167.842 41.4846C167.842 62.6957 172.734 80.6127 178.524 80.6127C184.314 80.6127 189.209 62.6957 189.209 41.4846C189.209 20.2759 184.314 2.35645 178.524 2.35645ZM178.524 81.4463C172.067 81.4463 167.008 63.8934 167.008 41.4846C167.008 19.0758 172.067 1.52287 178.524 1.52287C184.984 1.52287 190.043 19.0758 190.043 41.4846C190.043 63.8934 184.984 81.4463 178.524 81.4463Z" fill="white"/>
<path d="M217.653 41.9023H140.829C140.598 41.9023 140.411 41.7141 140.411 41.485C140.411 41.2537 140.598 41.0677 140.829 41.0677H217.653C217.885 41.0677 218.071 41.2537 218.071 41.485C218.071 41.7141 217.885 41.9023 217.653 41.9023Z" fill="white"/>
<path d="M165.479 44.0898L157.112 29.759C155.063 23.9075 159.426 17.7933 165.624 17.8271C171.821 17.8608 176.116 24.0257 174.002 29.8506L165.479 44.0898Z" fill="white"/>
<path d="M171.024 26.8857C171.007 29.8981 168.554 32.3229 165.542 32.3085C162.533 32.2918 160.106 29.836 160.123 26.826C160.138 23.8159 162.593 21.3888 165.603 21.4055C168.614 21.4222 171.041 23.8757 171.024 26.8857Z" fill="#C3D3FD"/>
<path d="M178.464 63.3184L172.863 53.7236C171.49 49.8086 174.411 45.7145 178.561 45.7369C182.709 45.7593 185.584 49.8848 184.169 53.7863L178.464 63.3184Z" fill="white"/>
<path d="M182.176 51.8028C182.165 53.8185 180.523 55.4427 178.507 55.4316C176.494 55.4205 174.867 53.7785 174.878 51.7627C174.89 49.7469 176.532 48.1227 178.547 48.1339C180.563 48.145 182.187 49.787 182.176 51.8028Z" fill="#C3D3FD"/>
<path d="M207.428 14.6192H280.614C290.138 14.6192 297.86 22.3407 297.86 31.8657V59.5801L291.75 49.1097H206.385C196.863 49.1097 189.141 41.3882 189.141 31.8657C189.141 22.3407 196.863 14.6192 206.385 14.6192H207.428Z" fill="white"/>
<path d="M216.939 49.5283H206.382C196.645 49.5283 188.721 41.604 188.721 31.8672C188.721 22.1279 196.645 14.2036 206.382 14.2036H207.426C207.657 14.2036 207.845 14.3909 207.845 14.6196C207.845 14.8507 207.657 15.0381 207.426 15.0381H206.382C197.105 15.0381 189.556 22.5877 189.556 31.8672C189.556 41.1466 197.105 48.6938 206.382 48.6938H216.939C217.17 48.6938 217.355 48.8811 217.355 49.1123C217.355 49.341 217.17 49.5283 216.939 49.5283Z" fill="#9BB4F6"/>
<path d="M297.857 59.998C297.713 59.998 297.574 59.9202 297.499 59.7912L291.509 49.5288H216.94C216.709 49.5288 216.521 49.3415 216.521 49.1128C216.521 48.8817 216.709 48.6943 216.94 48.6943H291.747C291.896 48.6943 292.034 48.7746 292.107 48.9011L297.443 58.0395V31.8677C297.443 22.5882 289.891 15.0386 280.611 15.0386H207.427C207.198 15.0386 207.011 14.8513 207.011 14.6201C207.011 14.3914 207.198 14.2041 207.427 14.2041H280.611C290.351 14.2041 298.275 22.1284 298.275 31.8677V59.5796C298.275 59.7693 298.149 59.9348 297.968 59.9834C297.932 59.9932 297.893 59.998 297.857 59.998Z" fill="#F0E097"/>
<path d="M232.825 41.1592H210.772C210.543 41.1592 210.354 40.9728 210.354 40.741C210.354 40.5114 210.543 40.3251 210.772 40.3251H232.825C233.056 40.3251 233.243 40.5114 233.243 40.741C233.243 40.9728 233.056 41.1592 232.825 41.1592Z" fill="#F0E097"/>
<path d="M284.132 41.1592H238.805C238.575 41.1592 238.389 40.9728 238.389 40.741C238.389 40.5114 238.575 40.3251 238.805 40.3251H284.132C284.362 40.3251 284.548 40.5114 284.548 40.741C284.548 40.9728 284.362 41.1592 284.132 41.1592Z" fill="#F0E097"/>
<path d="M249.508 35.1758H210.774C210.543 35.1758 210.356 34.9887 210.356 34.7601C210.356 34.5291 210.543 34.3421 210.774 34.3421H249.508C249.739 34.3421 249.926 34.5291 249.926 34.7601C249.926 34.9887 249.739 35.1758 249.508 35.1758Z" fill="#F0E097"/>
<path d="M284.131 35.1768H261.468C261.237 35.1768 261.053 34.9897 261.053 34.7611C261.053 34.5301 261.237 34.3431 261.468 34.3431H284.131C284.362 34.3431 284.547 34.5301 284.547 34.7611C284.547 34.9897 284.362 35.1768 284.131 35.1768Z" fill="#F0E097"/>
<path d="M232.827 29.1904H210.773C210.543 29.1904 210.355 29.0051 210.355 28.7752C210.355 28.5429 210.543 28.3575 210.773 28.3575H232.827C233.057 28.3575 233.245 28.5429 233.245 28.7752C233.245 29.0051 233.057 29.1904 232.827 29.1904Z" fill="#F0E097"/>
<path d="M284.133 29.1904H238.805C238.578 29.1904 238.39 29.0051 238.39 28.7752C238.39 28.5429 238.578 28.3575 238.805 28.3575H284.133C284.363 28.3575 284.548 28.5429 284.548 28.7752C284.548 29.0051 284.363 29.1904 284.133 29.1904Z" fill="#F0E097"/>
<path d="M249.509 23.4053H210.774C210.543 23.4053 210.357 23.2195 210.357 22.9885C210.357 22.7575 210.543 22.5717 210.774 22.5717H249.509C249.741 22.5717 249.926 22.7575 249.926 22.9885C249.926 23.2195 249.741 23.4053 249.509 23.4053Z" fill="#F0E097"/>
<path d="M284.134 23.4053H261.47C261.239 23.4053 261.053 23.2195 261.053 22.9885C261.053 22.7575 261.239 22.5717 261.47 22.5717H284.134C284.363 22.5717 284.549 22.7575 284.549 22.9885C284.549 23.2195 284.363 23.4053 284.134 23.4053Z" fill="#F0E097"/>
<path d="M77.0887 83.455H144.246C150.303 83.455 155.866 80.1446 158.76 74.8156C160.063 72.4181 160.752 69.6972 160.752 66.9496C160.752 57.8472 153.347 50.442 144.246 50.442H103.777C94.6754 50.442 87.2709 57.8472 87.2709 66.9474V76.3512C87.2709 76.4886 87.202 76.6171 87.0872 76.6946L77.0887 83.455ZM144.246 84.2881H75.7276C75.5443 84.2881 75.3828 84.1684 75.3289 83.9934C75.2751 83.8183 75.3422 83.63 75.4942 83.5259L86.4371 76.1296V66.9474C86.4371 57.3863 94.2156 49.6089 103.777 49.6089H144.246C153.808 49.6089 161.588 57.3863 161.588 66.9474C161.588 69.8345 160.863 72.6929 159.494 75.2145C156.452 80.8115 150.609 84.2881 144.246 84.2881Z" fill="#C3D3FD"/>
<path d="M139.977 76.3467H119.924C119.693 76.3467 119.507 76.1616 119.507 75.9312C119.507 75.7008 119.693 75.5137 119.924 75.5137H139.977C140.207 75.5137 140.392 75.7008 140.392 75.9312C140.392 76.1616 140.207 76.3467 139.977 76.3467Z" fill="#C3D3FD"/>
<path d="M114.486 76.3467H98.2565C98.0259 76.3467 97.8394 76.1616 97.8394 75.9312C97.8394 75.7008 98.0259 75.5137 98.2565 75.5137H114.486C114.717 75.5137 114.903 75.7008 114.903 75.9312C114.903 76.1616 114.717 76.3467 114.486 76.3467Z" fill="#C3D3FD"/>
<path d="M139.976 71.1914H104.754C104.523 71.1914 104.337 71.0055 104.337 70.7758C104.337 70.544 104.523 70.3581 104.754 70.3581H139.976C140.206 70.3581 140.391 70.544 140.391 70.7758C140.391 71.0055 140.206 71.1914 139.976 71.1914Z" fill="#C3D3FD"/>
<path d="M118.863 71.1914H98.2559C98.0256 71.1914 97.8389 71.0055 97.8389 70.7758C97.8389 70.544 98.0256 70.3581 98.2559 70.3581H118.863C119.093 70.3581 119.28 70.544 119.28 70.7758C119.28 71.0055 119.093 71.1914 118.863 71.1914Z" fill="#C3D3FD"/>
<path d="M139.977 66.0352H119.924C119.694 66.0352 119.507 65.8486 119.507 65.6196C119.507 65.3885 119.694 65.2019 119.924 65.2019H139.977C140.208 65.2019 140.393 65.3885 140.393 65.6196C140.393 65.8486 140.208 66.0352 139.977 66.0352Z" fill="#C3D3FD"/>
<path d="M114.486 66.0352H98.2559C98.0254 66.0352 97.8389 65.8486 97.8389 65.6196C97.8389 65.3885 98.0254 65.2019 98.2559 65.2019H114.486C114.716 65.2019 114.903 65.3885 114.903 65.6196C114.903 65.8486 114.716 66.0352 114.486 66.0352Z" fill="#C3D3FD"/>
<path d="M139.976 61.0498H104.754C104.523 61.0498 104.337 60.8627 104.337 60.6326C104.337 60.4025 104.523 60.2153 104.754 60.2153H139.976C140.206 60.2153 140.392 60.4025 140.392 60.6326C140.392 60.8627 140.206 61.0498 139.976 61.0498Z" fill="#C3D3FD"/>
<path d="M118.863 61.0498H98.2564C98.0258 61.0498 97.8394 60.8627 97.8394 60.6326C97.8394 60.4025 98.0258 60.2153 98.2564 60.2153H118.863C119.094 60.2153 119.28 60.4025 119.28 60.6326C119.28 60.8627 119.094 61.0498 118.863 61.0498Z" fill="#C3D3FD"/>
<path d="M161.167 66.95C161.167 68.258 161.021 69.5328 160.74 70.759C160.687 70.9869 160.627 71.2149 160.565 71.4384C160.224 72.6933 159.742 73.8929 159.131 75.015C159.107 75.0548 159.085 75.0947 159.062 75.1367C152.303 70.8342 146.932 64.4313 143.821 56.8134C142.93 54.64 142.229 52.3737 141.728 50.0254H144.246C147.495 50.0254 150.537 50.9417 153.115 52.533C154.242 53.228 155.285 54.0491 156.216 54.9786C157.117 55.8816 157.919 56.8887 158.598 57.9753C160.224 60.5781 161.167 63.6545 161.167 66.95Z" fill="#9BB4F6"/>
</g>
</svg>
