<svg width="543" height="472" viewBox="0 0 543 472" fill="none" xmlns="http://www.w3.org/2000/svg">
<mask id="mask0_31_13962" style="mask-type:alpha" maskUnits="userSpaceOnUse" x="0" y="0" width="543" height="472">
<rect y="0.106934" width="543" height="471.893" fill="#D9D9D9"/>
</mask>
<g mask="url(#mask0_31_13962)">
<path d="M289.441 313.446H367.279L332.303 240.226H254.465L289.441 313.446ZM368.313 314.752H289.03C288.779 314.752 288.548 314.607 288.442 314.38L252.843 239.854C252.748 239.653 252.76 239.416 252.881 239.224C252.999 239.035 253.209 238.923 253.431 238.923H332.714C332.968 238.923 333.195 239.065 333.302 239.292L368.901 313.818C368.999 314.019 368.984 314.259 368.866 314.448C368.745 314.637 368.538 314.752 368.313 314.752Z" fill="#242B37"/>
<path d="M289.803 323.403H412.81V314.751H289.803V323.403ZM413.462 324.707H289.152C288.79 324.707 288.497 324.414 288.497 324.055V314.1C288.497 313.738 288.79 313.445 289.152 313.445H413.462C413.82 313.445 414.113 313.738 414.113 314.1V324.055C414.113 324.414 413.82 324.707 413.462 324.707Z" fill="#242B37"/>
<path d="M312.127 274.123C310.035 274.123 308.333 276.644 308.333 279.746C308.333 282.846 310.035 285.366 312.127 285.366C314.219 285.366 315.921 282.846 315.921 279.746C315.921 276.644 314.219 274.123 312.127 274.123ZM312.127 286.669C309.317 286.669 307.03 283.564 307.03 279.746C307.03 275.926 309.317 272.82 312.127 272.82C314.94 272.82 317.227 275.926 317.227 279.746C317.227 283.564 314.94 286.669 312.127 286.669Z" fill="#242B37"/>
<path d="M451.493 514.728H438.438V385.248C438.438 384.888 438.732 384.595 439.094 384.595C439.451 384.595 439.745 384.888 439.745 385.248V513.424H450.19V385.077C450.19 384.716 450.48 384.424 450.841 384.424C451.199 384.424 451.493 384.716 451.493 385.077V514.728Z" fill="#242B37"/>
<path d="M356.048 384.423H466.465C504.103 384.423 534.729 349.01 534.729 305.486V252.959H447.997V274.162C447.997 302.386 429.022 325.596 405.01 327.744V327.904C378.926 327.904 356.048 352.408 356.048 380.346V384.423ZM466.465 385.726H354.743V380.346C354.743 353.02 376.141 328.899 401.368 326.757V326.601C426.357 326.601 446.692 303.078 446.692 274.162V251.658H536.034V305.486C536.034 349.731 504.824 385.726 466.465 385.726Z" fill="#242B37"/>
<path d="M391.276 492.699L337.036 524.785L359.804 482.467L354.333 401.978L359.804 334.715H401.841L394.185 403.748L391.276 492.699Z" fill="#FEDFFF"/>
<path d="M393.792 416.304L354.332 401.979L353.98 392.48L394.588 395.978L393.792 416.304Z" fill="#242B37"/>
<path d="M467.661 448.54L422.379 375.252V342.017H373.156L386.966 396.21L442.165 464.292L456.733 508.853L465.228 498.668L467.661 448.54Z" fill="#FEDFFF"/>
<path d="M443.854 410.006L391.644 401.978L388.254 397.797H436.309L443.854 410.006Z" fill="#242B37"/>
<path d="M476.207 470.086C481.922 464.649 481.22 455.339 474.756 450.821L463.838 443.189L463.802 442.787L463.745 443.12L463.574 443.002L463.627 443.803L462.729 490.498L449.021 508.933C445.995 513.002 445.24 518.329 447.018 523.077L449.238 529.005L470.188 509.072L470.323 508.945L468.527 490.743C467.768 483.043 470.601 475.422 476.207 470.086Z" fill="#242B37"/>
<path d="M503.49 477.387L484.394 495.56L463.084 464.49L473.913 454.186L503.49 477.387Z" fill="#242B37"/>
<path d="M518.643 334.122L517.232 324.88H378.623C373.394 324.88 368.378 326.331 363.976 328.951C356.449 333.437 351.441 341.175 350 349.815L342.743 393.26L445.344 403.528L441.578 386.801C440.797 383.323 443.442 380.019 447.002 380.019H482.63C505.166 380.019 522.317 358.16 518.643 334.122Z" fill="#C3D3FD"/>
<path d="M343.5 392.683L444.503 402.791L440.984 387.146C440.558 385.245 441.007 383.284 442.224 381.762C443.441 380.24 445.256 379.369 447.208 379.369H482.625C492.699 379.369 502.019 374.975 508.867 366.999C516.494 358.12 519.823 346.174 517.997 334.222L516.669 325.532H378.621C373.63 325.532 368.676 326.909 364.305 329.515C357.066 333.826 352.082 341.266 350.641 349.924L343.5 392.683ZM446.173 404.269L341.986 393.841L349.355 349.711C350.861 340.673 356.065 332.904 363.64 328.396C368.212 325.668 373.394 324.229 378.621 324.229H517.788L519.283 334.027C521.166 346.355 517.731 358.682 509.86 367.848C502.753 376.118 493.083 380.672 482.625 380.672H447.208C445.655 380.672 444.214 381.366 443.243 382.577C442.277 383.789 441.916 385.349 442.254 386.862L446.173 404.269Z" fill="#242B37"/>
<path d="M518.155 330.945C449.455 338.631 472.018 327.328 402.045 325.553L402.303 324.471L517.084 324.87C517.084 324.87 517.625 328.611 518.155 330.945Z" fill="#242B37"/>
<path d="M354.525 224.263L377.219 222.855L366.276 199.214C366.276 199.214 366.233 193.267 359.877 190.47C358.405 189.821 355.258 188.753 352.591 187.881C349.559 186.891 346.672 185.502 344.002 183.757L340.945 181.755C339.408 180.749 337.35 181.133 336.28 182.627L336.051 182.946C334.968 184.459 335.293 186.56 336.781 187.68L346.372 194.886L341.589 198.202C339.135 199.904 336.261 200.888 333.281 201.046L321.258 201.918C319.259 202.064 317.672 203.66 317.545 205.659L317.524 205.999L311.029 205.829C309.117 205.838 307.552 207.351 307.477 209.263C307.403 211.138 308.789 212.753 310.658 212.958L351.36 217.429L354.525 224.263Z" fill="#FEDFFF"/>
<path d="M377.328 222.846L368.494 203.808L349.429 212.489L357.833 233.755L377.328 222.846Z" fill="#FEDFFF"/>
<path d="M311.015 206.479C309.469 206.488 308.193 207.721 308.131 209.286C308.069 210.813 309.212 212.14 310.733 212.307L351.727 216.812C351.969 216.837 352.176 216.998 352.263 217.227L358.172 232.816L376.454 222.572L365.686 199.488C365.646 199.405 365.624 199.312 365.624 199.219C365.621 198.992 365.488 193.651 359.616 191.063C358.439 190.546 355.938 189.656 352.39 188.498C349.31 187.491 346.37 186.078 343.646 184.299L340.588 182.297C339.342 181.479 337.681 181.792 336.814 183.004L336.585 183.323C335.714 184.538 335.977 186.257 337.173 187.156L346.766 194.363C346.937 194.487 347.03 194.685 347.027 194.896C347.024 195.104 346.918 195.299 346.748 195.42L341.964 198.735C339.41 200.508 336.42 201.53 333.319 201.694L321.306 202.565C319.642 202.686 318.303 204.034 318.198 205.698L318.173 206.039C318.151 206.389 317.841 206.668 317.507 206.649L311.015 206.479ZM357.831 234.406C357.757 234.406 357.68 234.393 357.608 234.365C357.432 234.304 357.289 234.164 357.221 233.984L351.185 218.064L310.588 213.602C308.391 213.36 306.739 211.442 306.829 209.233C306.919 206.971 308.763 205.186 311.031 205.174L316.924 205.329C317.2 203.151 318.994 201.425 321.213 201.267L333.235 200.393C336.111 200.241 338.868 199.299 341.223 197.666L345.264 194.862L336.389 188.197C334.632 186.877 334.245 184.352 335.525 182.564L335.751 182.248C337.031 180.463 339.469 180.008 341.304 181.207L344.362 183.208C346.986 184.925 349.822 186.288 352.796 187.261C355.3 188.076 358.606 189.192 360.14 189.87C366.315 192.588 366.873 198.057 366.923 199.057L377.891 222.572C378.037 222.879 377.916 223.248 377.619 223.415L358.15 234.322C358.051 234.378 357.943 234.406 357.831 234.406Z" fill="#242B37"/>
<path d="M345.06 206.585L341.629 205.997C339.447 205.62 337.424 204.622 335.799 203.121L326.903 194.894C325.625 193.71 323.63 193.773 322.43 195.033C321.284 196.236 321.251 198.111 322.358 199.35L331.377 209.485C332.106 210.305 332.993 210.968 333.984 211.438L339.32 213.973L345.06 206.585Z" fill="#FEDFFF"/>
<path d="M336.033 204.716L332.553 204.704C330.338 204.695 328.178 204.046 326.324 202.832L316.193 196.187C314.736 195.232 312.779 195.622 311.803 197.065C310.874 198.438 311.151 200.295 312.446 201.335L323.021 209.84C323.874 210.525 324.857 211.036 325.912 211.336L331.592 212.953L336.033 204.716Z" fill="#FEDFFF"/>
<path d="M325.912 211.989C325.852 211.989 325.792 211.98 325.731 211.965C324.588 211.637 323.537 211.095 322.607 210.349L312.035 201.846C310.491 200.603 310.151 198.343 311.261 196.703C312.432 194.972 314.803 194.5 316.549 195.643L324.314 200.781C324.612 200.98 324.693 201.383 324.498 201.684C324.299 201.985 323.893 202.066 323.592 201.867L315.83 196.733C314.68 195.977 313.115 196.29 312.342 197.431C311.607 198.518 311.833 200.01 312.85 200.829L323.426 209.331C324.215 209.969 325.114 210.433 326.09 210.71C326.436 210.809 326.634 211.17 326.538 211.516C326.457 211.802 326.195 211.989 325.912 211.989Z" fill="#242B37"/>
<path d="M336.073 213.722C335.98 213.722 335.886 213.704 335.799 213.661C333.38 212.532 331.195 210.86 329.477 208.819L321.858 199.768C320.553 198.304 320.59 196.019 321.957 194.582C323.397 193.073 325.815 192.997 327.346 194.413L336.242 202.639C337.776 204.061 339.678 204.997 341.74 205.353L348.801 206.021C349.157 206.057 349.42 206.374 349.387 206.733C349.353 207.089 349.036 207.364 348.677 207.319L341.571 206.642C339.21 206.241 337.079 205.19 335.355 203.596L326.461 195.37C325.45 194.434 323.853 194.485 322.902 195.482C321.996 196.43 321.972 197.939 322.845 198.917L330.473 207.98C332.07 209.876 334.102 211.43 336.348 212.481C336.674 212.632 336.816 213.018 336.665 213.347C336.553 213.583 336.318 213.722 336.073 213.722Z" fill="#242B37"/>
<path d="M349.157 197.6C349.025 197.6 348.889 197.558 348.769 197.471L345.844 195.305C345.554 195.091 345.494 194.681 345.708 194.392C345.922 194.103 346.332 194.042 346.618 194.256L349.546 196.422C349.838 196.636 349.895 197.046 349.684 197.335C349.555 197.507 349.359 197.6 349.157 197.6Z" fill="#242B37"/>
<path d="M462.888 308.852C462.888 308.852 429.224 299.387 425.933 299.383L374.952 299.37V327.329L444.41 327.343C454.616 327.347 462.888 319.064 462.888 308.852Z" fill="#FEDFFF"/>
<path d="M344.29 308.065L341.26 311.344C339.728 313 339.577 315.504 340.889 317.336L343.867 321.475L351.081 313.416H396.399V303.923H353.762C350.167 303.923 346.733 305.424 344.29 308.065Z" fill="#FEDFFF"/>
<path d="M345.684 302.142L343.97 303.999C342.442 305.655 342.287 308.162 343.606 309.992L346.581 314.127L353.795 306.072H396.399V299.468H389.17C386.179 299.468 380.843 296.578 374.091 296.578H358.411C353.582 296.578 348.969 298.596 345.684 302.142Z" fill="#FEDFFF"/>
<path d="M343.23 314.448L339.593 318.381C338.062 320.038 337.909 322.544 339.226 324.376L342.202 328.513L349.417 320.452H377.494V310.958H351.208C348.179 310.958 345.287 312.223 343.23 314.448Z" fill="#FEDFFF"/>
<path d="M344.559 321.363L340.764 325.469C339.358 326.987 339.219 329.288 340.426 330.972C342.054 333.227 345.344 333.405 347.198 331.331L349.256 329.034C350.241 327.935 351.644 327.304 353.117 327.304H376.694C382.859 327.304 387.2 326.954 393.138 317.801L352.677 317.81C349.594 317.81 346.654 319.096 344.559 321.363Z" fill="#FEDFFF"/>
<path d="M340.698 317.84C340.494 317.84 340.296 317.745 340.169 317.568C338.715 315.55 338.96 312.87 340.781 310.902L343.812 307.625C346.368 304.856 349.997 303.273 353.761 303.273H362.102C362.463 303.273 362.755 303.562 362.755 303.923C362.755 304.283 362.463 304.576 362.102 304.576H353.761C350.357 304.576 347.08 306.009 344.77 308.509L341.738 311.785C340.349 313.286 340.145 315.305 341.227 316.809C341.437 317.101 341.369 317.506 341.079 317.716C340.964 317.801 340.831 317.84 340.698 317.84Z" fill="#242B37"/>
<path d="M340.387 326.636C340.184 326.636 339.986 326.542 339.856 326.364L338.697 324.754C337.205 322.68 337.382 319.814 339.114 317.937L342.751 314.007C344.926 311.655 348.008 310.305 351.208 310.305H362.179C362.54 310.305 362.832 310.598 362.832 310.958C362.832 311.319 362.54 311.611 362.179 311.611H351.208C348.371 311.611 345.638 312.805 343.709 314.891L340.071 318.824C338.756 320.245 338.623 322.42 339.755 323.995L340.913 325.605C341.123 325.898 341.058 326.305 340.766 326.515C340.65 326.598 340.517 326.636 340.387 326.636Z" fill="#242B37"/>
<path d="M343.963 333.434C343.873 333.434 343.783 333.431 343.692 333.425C342.171 333.346 340.787 332.589 339.897 331.35C338.511 329.428 338.676 326.764 340.285 325.025L344.08 320.92C346.288 318.53 349.424 317.158 352.678 317.158H361.808C362.169 317.158 362.461 317.45 362.461 317.811C362.461 318.172 362.169 318.46 361.808 318.46H352.678C349.788 318.46 347 319.681 345.037 321.808L341.242 325.906C340.051 327.197 339.93 329.166 340.956 330.592C341.614 331.503 342.637 332.062 343.762 332.125C344.874 332.183 345.96 331.738 346.712 330.898L348.772 328.598C349.875 327.362 351.46 326.655 353.117 326.655H379.193C383.517 326.655 387.544 324.514 389.974 320.929C390.176 320.632 390.581 320.554 390.879 320.755C391.177 320.957 391.255 321.359 391.054 321.66C388.38 325.603 383.948 327.957 379.193 327.957H353.117C351.833 327.957 350.6 328.508 349.743 329.467L347.683 331.768C346.727 332.835 345.386 333.434 343.963 333.434Z" fill="#242B37"/>
<path d="M444.414 327.996C444.411 327.996 444.411 327.996 444.408 327.996H370.197C369.834 327.996 369.545 327.706 369.545 327.343C369.545 326.985 369.834 326.691 370.197 326.691H444.408C444.411 326.691 444.411 326.691 444.414 326.691C449.176 326.691 453.649 324.835 457.013 321.467C460.264 318.213 462.106 313.924 462.23 309.341C452.548 306.625 428.514 300.038 425.933 300.038H390.521C387.706 300.038 385.514 299.431 383.192 298.789C380.411 298.023 377.536 297.229 373.044 297.229H358.413C353.775 297.229 349.313 299.182 346.166 302.588L344.451 304.441C343.312 305.67 343.04 307.44 343.75 308.958C343.902 309.282 343.761 309.672 343.436 309.824C343.105 309.979 342.722 309.835 342.567 309.51C341.632 307.516 341.994 305.176 343.495 303.554L345.207 301.701C348.602 298.03 353.416 295.925 358.413 295.925H373.044C377.712 295.925 380.808 296.781 383.541 297.533C385.87 298.178 387.885 298.734 390.521 298.734H425.933C429.273 298.734 461.685 307.833 463.062 308.223C463.345 308.302 463.538 308.558 463.538 308.851C463.538 313.965 461.551 318.772 457.934 322.388C454.325 326.005 449.522 327.996 444.414 327.996Z" fill="#242B37"/>
<path d="M506.605 284.903L438.744 285.701L420.099 322.008L441.851 337.172L454.201 322.008L462.303 337.172L529.378 328.412L506.605 284.903Z" fill="#9BB4F6"/>
<path d="M476.812 199.72L451.831 206.364C437.592 210.15 424.618 217.65 414.237 228.096L397.853 244.579L382.435 211.745L346.171 227.539L371.269 279.486C378.883 295.249 399.797 298.743 412.13 286.319L435.992 262.309L438.744 285.705H501.106L518.859 212.746L476.812 199.72Z" fill="#C3D3FD"/>
<path d="M411.596 274.493C411.348 274.493 411.113 274.355 411.003 274.12L397.262 244.856C397.111 244.533 397.249 244.14 397.576 243.99C397.902 243.836 398.291 243.977 398.444 244.3L412.183 273.565C412.336 273.891 412.198 274.28 411.869 274.43C411.781 274.477 411.687 274.493 411.596 274.493Z" fill="#242B37"/>
<path d="M460.208 256.817L463.169 203.346L476.815 199.097L494.546 204.85L460.208 256.817Z" fill="white"/>
<path d="M436.058 262.996C435.948 262.996 435.836 262.969 435.736 262.909C431.207 260.335 428.394 255.504 428.394 250.302C428.394 244.577 431.737 239.428 436.936 237.085L439.795 224.09C439.875 223.736 440.223 223.517 440.574 223.593C440.925 223.67 441.147 224.018 441.071 224.369L438.139 237.688C438.092 237.894 437.95 238.066 437.754 238.149C432.86 240.22 429.696 244.988 429.696 250.302C429.696 255.037 432.257 259.434 436.383 261.776C436.694 261.955 436.803 262.35 436.628 262.664C436.505 262.876 436.283 262.996 436.058 262.996Z" fill="#242B37"/>
<path d="M453.957 325.526C453.634 325.526 453.353 325.289 453.308 324.959L448.005 286.304C447.991 286.19 448.001 286.081 448.043 285.974L459.604 256.576C459.735 256.242 460.112 256.081 460.449 256.211C460.786 256.342 460.947 256.72 460.817 257.056L449.32 286.293L454.6 324.787C454.651 325.141 454.4 325.471 454.043 325.519C454.016 325.522 453.985 325.526 453.957 325.526Z" fill="#242B37"/>
<path d="M460.21 275.645C460.036 275.645 459.859 275.574 459.73 275.434C459.489 275.168 459.504 274.758 459.77 274.514L487.626 248.742L481.633 237.942C481.522 237.742 481.522 237.502 481.633 237.303C481.747 237.107 481.954 236.981 482.18 236.974L498.378 236.493L502.003 207.115C502.047 206.757 502.376 206.498 502.727 206.546C503.085 206.591 503.34 206.916 503.296 207.274L499.601 237.207C499.561 237.528 499.295 237.772 498.973 237.779L483.292 238.245L489.015 248.554C489.163 248.816 489.111 249.145 488.89 249.348L460.653 275.471C460.528 275.585 460.369 275.645 460.21 275.645Z" fill="#9BB4F6"/>
<path d="M451.161 274.494C450.846 274.494 450.57 274.268 450.519 273.947L445.256 241.198C445.208 240.912 445.355 240.631 445.618 240.509L455.522 235.795L445.638 231.533C445.334 231.4 445.177 231.059 445.276 230.741L453.049 205.683C453.155 205.338 453.517 205.147 453.865 205.253C454.207 205.359 454.398 205.724 454.292 206.069L446.693 230.567L457.359 235.171C457.595 235.273 457.749 235.502 457.752 235.758C457.759 236.011 457.615 236.246 457.38 236.356L446.618 241.475L451.806 273.742C451.861 274.094 451.622 274.429 451.263 274.487C451.229 274.49 451.195 274.494 451.161 274.494Z" fill="#9BB4F6"/>
<path d="M501.107 286.355C501.054 286.355 501.002 286.348 500.946 286.336C500.651 286.258 500.453 285.996 500.453 285.705C500.453 285.649 500.461 285.597 500.476 285.545L508.539 253.729C508.628 253.382 508.983 253.173 509.33 253.258C509.625 253.333 509.823 253.598 509.823 253.89C509.823 253.942 509.816 253.998 509.801 254.05L501.738 285.862C501.663 286.161 501.398 286.355 501.107 286.355Z" fill="#242B37"/>
<path d="M516.427 307.625C516.222 307.625 516.022 307.534 515.894 307.357L500.578 286.087C500.37 285.792 500.435 285.384 500.726 285.176C501.017 284.964 501.425 285.029 501.637 285.323L516.952 306.596C517.164 306.887 517.096 307.295 516.805 307.504C516.687 307.587 516.555 307.625 516.427 307.625Z" fill="#242B37"/>
<path d="M492.759 333.128C501.108 332.428 509.084 326.477 512.179 317.962C518.387 300.903 529.006 267.192 532.104 250.664C535.557 232.245 532.509 218.901 517.06 212.284C516.651 212.109 509.936 209.976 509.508 209.843L494.059 254.319L483.413 295.109L400.716 296.879V333.595L492.759 333.128Z" fill="#C3D3FD"/>
<path d="M400.713 334.248C400.545 334.248 400.377 334.18 400.253 334.058C400.132 333.934 400.062 333.769 400.062 333.597V296.878C400.062 296.524 400.346 296.234 400.701 296.228L482.901 294.469L492.494 256.482C492.584 256.135 492.935 255.921 493.286 256.011C493.633 256.1 493.848 256.455 493.758 256.802L484.048 295.268C483.974 295.555 483.72 295.756 483.428 295.761L401.368 297.517V332.942L492.717 332.478C501.565 331.331 508.83 325.862 511.685 318.197C518.677 299.422 530.099 258.319 532.758 242.37C535.305 227.087 525.922 216.776 518.992 213.571C514.059 211.29 502.091 209.344 501.971 209.324C501.616 209.27 501.374 208.934 501.428 208.579C501.487 208.224 501.818 207.979 502.177 208.037C502.676 208.119 514.445 210.03 519.538 212.389C526.831 215.759 536.712 226.584 534.045 242.584C531.378 258.588 519.917 299.824 512.909 318.652C509.875 326.784 502.189 332.581 492.841 333.775C492.814 333.778 492.791 333.781 492.763 333.781L400.717 334.248H400.713Z" fill="#242B37"/>
<path d="M523.646 189.832C523.646 201.424 514.242 210.824 502.646 210.824C491.047 210.824 481.647 201.424 481.647 189.832C481.647 178.24 491.047 168.844 502.646 168.844C514.242 168.844 523.646 178.24 523.646 189.832Z" fill="#242B37"/>
<path d="M486.373 203.122L468.483 216.814V176.83H486.373V203.122Z" fill="#FEDFFF"/>
<path d="M486.373 183.614V176.831H468.483V191.797C470.099 192.12 473.317 192.523 477.012 191.305C482.796 189.402 485.637 184.881 486.373 183.614Z" fill="#242B37"/>
<path d="M487.403 180.237L476.614 170.228L462.329 166.12L462.969 162.95C465.118 152.238 477.064 146.713 486.627 152.007C496.142 157.279 497.826 170.257 489.97 177.781L487.403 180.237Z" fill="#242B37"/>
<path d="M489.392 171.552C489.392 180.33 482.95 187.447 475.005 187.447C467.061 187.447 460.619 180.33 460.619 171.552C460.619 162.77 467.061 155.656 475.005 155.656C482.95 155.656 489.392 162.77 489.392 171.552Z" fill="#FEDFFF"/>
<path d="M467.213 179.037C468.748 180.315 470.686 181.135 472.837 181.253C477.63 181.51 481.78 178.213 482.751 173.663L467.213 179.037Z" fill="white"/>
<path d="M456.029 167.236H482.751V153.707H469.565C462.089 153.707 456.029 159.763 456.029 167.236Z" fill="#242B37"/>
<path d="M174.185 335.457H539.542V325.027H174.185V335.457ZM540.194 336.76H173.533C173.173 336.76 172.881 336.471 172.881 336.11V324.377C172.881 324.016 173.173 323.724 173.533 323.724H540.194C540.551 323.724 540.845 324.016 540.845 324.377V336.11C540.845 336.471 540.551 336.76 540.194 336.76Z" fill="#242B37"/>
<path d="M508.829 543.073H519.246V336.76H508.829V543.073ZM519.9 544.379H508.179C507.818 544.379 507.525 544.086 507.525 543.726V336.11C507.525 335.75 507.818 335.457 508.179 335.457H519.9C520.261 335.457 520.55 335.75 520.55 336.11V543.726C520.55 544.086 520.261 544.379 519.9 544.379Z" fill="#242B37"/>
<path d="M126.402 502.577H90.8491L96.1326 439.362H146.431L126.402 502.577Z" fill="#955B50"/>
<path d="M173.687 502.577H138.135L143.418 439.362H193.717L173.687 502.577Z" fill="#955B50"/>
<path d="M201.066 357.555C188.977 336.877 129.783 327.129 129.783 327.129L75.5593 323.303H74.6004H28.0171L29.0941 352.331C29.0941 361.231 32.7235 369.746 39.1469 375.919C45.2557 381.787 66.9962 389.892 75.4748 389.892L181.253 395.444H209.8C209.487 388.122 208.973 371.085 201.066 357.555Z" fill="#C3D3FD"/>
<path d="M167.225 341.656L114.536 338.71L80.7059 344.341L73.7985 359.296L48.3296 448.25L203.046 447.579L206.976 423.498C211.73 390.874 212.554 379.486 203.264 362.277C196.47 349.69 181.518 342.456 167.225 341.656Z" fill="#C3D3FD"/>
<path d="M109.694 189.22C109.694 200.988 100.819 210.525 89.8703 210.525C78.9216 210.525 70.0459 200.988 70.0459 189.22C70.0459 177.456 78.9216 167.918 89.8703 167.918C100.819 167.918 109.694 177.456 109.694 189.22Z" fill="#955B50"/>
<path d="M70.0464 231.94H96.5829V187.068H70.0464V231.94Z" fill="#955B50"/>
<path d="M95.7133 232.589C95.3529 232.589 95.0615 232.3 95.0615 231.94V200.151C95.0615 199.791 95.3529 199.499 95.7133 199.499C96.0735 199.499 96.3651 199.791 96.3651 200.151V231.94C96.3651 232.3 96.0735 232.589 95.7133 232.589Z" fill="#242B37"/>
<path d="M99.2203 192.756C91.0397 201.875 78.4265 203.899 71.0478 197.285C63.6695 190.667 64.3203 177.916 72.5009 168.798C80.6814 159.682 96.1998 161.23 103.578 167.844C110.957 174.461 107.401 183.641 99.2203 192.756Z" fill="#242B37"/>
<path d="M179.177 291.007L174.934 323.336L115.79 323.218L113.027 285.512L179.177 291.007Z" fill="white"/>
<path d="M116.396 322.568L174.362 322.683L178.442 291.601L113.733 286.223L116.396 322.568ZM174.934 323.989C174.933 323.989 174.933 323.989 174.932 323.989L115.789 323.871C115.447 323.868 115.165 323.605 115.14 323.265L112.377 285.559C112.363 285.367 112.433 285.18 112.568 285.047C112.704 284.914 112.886 284.841 113.081 284.861L179.231 290.357C179.409 290.372 179.572 290.461 179.684 290.6C179.796 290.738 179.847 290.916 179.823 291.093L175.58 323.421C175.537 323.746 175.261 323.989 174.934 323.989Z" fill="#242B37"/>
<path d="M20.5406 329.999C8.34471 325.23 2.65849 310.645 7.84092 297.422L31.2137 237.856L74.6643 256.888L52.0072 314.696C46.8251 327.919 32.7369 334.771 20.5406 329.999Z" fill="white"/>
<path d="M31.5731 238.725L8.4474 297.658C6.00171 303.902 5.94261 310.642 8.28133 316.643C10.6133 322.626 15.052 327.153 20.7787 329.393C32.62 334.026 46.3575 327.325 51.4013 314.459L73.8294 257.234L31.5731 238.725ZM28.5678 332.165C25.7956 332.165 23.0042 331.662 20.3038 330.607C14.2335 328.232 9.53269 323.442 7.0672 317.116C4.60852 310.81 4.6685 303.73 7.23445 297.183L30.6075 237.62C30.6719 237.454 30.8011 237.321 30.9653 237.253C31.1282 237.185 31.3128 237.188 31.4756 237.259L74.9266 256.291C75.2472 256.433 75.3996 256.802 75.2717 257.127L52.6143 314.935C48.4545 325.549 38.6419 332.162 28.5678 332.165Z" fill="#242B37"/>
<path d="M190.732 278.236L150.797 242.196C138.692 232.694 130.543 225.981 117.924 223.794L82.6825 217.692L52.3112 222.89C37.9739 225.345 27.4927 237.767 27.4927 252.302V327.871L137.542 328.813L137.542 304.667C137.542 304.667 147.939 311.321 154.027 315.213C165.577 322.594 175.993 330.604 193.962 313.543C203.548 296.834 198.735 288.602 190.732 278.236Z" fill="white"/>
<path d="M137.541 329.467C137.539 329.467 137.537 329.467 137.536 329.467L27.4868 328.524C27.1289 328.521 26.8408 328.229 26.8408 327.874V252.302C26.8408 237.404 37.5062 224.763 52.2007 222.249L82.5716 217.048C82.9324 216.989 83.2633 217.229 83.3239 217.58C83.3848 217.938 83.1463 218.275 82.7918 218.334L52.4208 223.534C38.3539 225.942 28.1442 238.039 28.1442 252.302V327.227L136.89 328.158V304.667C136.89 304.307 137.181 304.017 137.541 304.017C137.901 304.017 138.193 304.307 138.193 304.667V328.814C138.193 328.988 138.124 329.154 138 329.278C137.878 329.399 137.713 329.467 137.541 329.467Z" fill="#242B37"/>
<path d="M173.513 324.08C168.44 324.08 163.332 322.644 158.857 319.66L137.18 305.211C136.88 305.01 136.799 304.605 136.999 304.307C137.198 304.005 137.602 303.925 137.903 304.126L159.58 318.575C170.488 325.85 185.366 323.46 193.449 313.141C201.653 302.664 200.27 287.547 190.301 278.727C177.332 267.253 160.141 251.936 151.888 244.102C145.263 237.815 132.025 226.897 117.812 224.435L82.5703 218.334C82.2157 218.272 81.9784 217.935 82.0393 217.58C82.1005 217.226 82.4391 216.989 82.7931 217.048L118.035 223.153C132.586 225.673 146.053 236.769 152.785 243.157C161.024 250.978 178.203 266.284 191.164 277.749C201.65 287.027 203.104 302.924 194.475 313.945C189.291 320.564 181.446 324.08 173.513 324.08Z" fill="#242B37"/>
<path d="M137.541 305.32C137.41 305.32 137.278 305.282 137.164 305.199L104.779 282.211C104.485 282.004 104.417 281.596 104.625 281.304C104.833 281.011 105.24 280.94 105.534 281.15L137.919 304.135C138.212 304.345 138.281 304.753 138.073 305.046C137.945 305.226 137.745 305.32 137.541 305.32Z" fill="#242B37"/>
<path d="M86.1294 206.686C86.4915 213.396 81.3424 219.129 74.6291 219.493C67.9155 219.854 62.1799 214.708 61.8178 207.995C61.4557 201.285 66.6044 195.552 73.3181 195.188C80.0311 194.827 85.7673 199.973 86.1294 206.686Z" fill="#242B37"/>
<path d="M82.2028 224.486C82.5648 231.196 77.416 236.928 70.7027 237.292C63.9891 237.652 58.2533 232.505 57.891 225.795C57.5291 219.084 62.6775 213.352 69.3911 212.988C76.1047 212.628 81.8403 217.772 82.2028 224.486Z" fill="#242B37"/>
<path d="M79.6684 243.453C80.0303 250.163 74.8816 255.898 68.1683 256.259C61.4547 256.622 55.7188 251.475 55.3569 244.765C54.9946 238.054 60.1434 232.319 66.8567 231.958C73.5703 231.595 79.3061 236.742 79.6684 243.453Z" fill="#242B37"/>
<path d="M109.764 535.753V402.734H97.9696V535.865L48.8765 540.085V543.716H159.144V540.085L109.764 535.753Z" fill="white"/>
<path d="M49.5285 543.064H158.492V540.682L109.707 536.403C109.371 536.374 109.112 536.09 109.112 535.753V403.387H98.6213V535.866C98.6213 536.206 98.3622 536.486 98.0256 536.516L49.5285 540.682V543.064ZM159.144 544.37H48.8766C48.5167 544.37 48.2251 544.077 48.2251 543.717V540.085C48.2251 539.745 48.4842 539.465 48.8208 539.435L97.3179 535.269V402.734C97.3179 402.374 97.6096 402.084 97.9698 402.084H109.764C110.124 402.084 110.416 402.374 110.416 402.734V535.157L159.201 539.435C159.537 539.465 159.796 539.748 159.796 540.085V543.717C159.796 544.077 159.504 544.37 159.144 544.37Z" fill="#242B37"/>
<path d="M111.722 259.663V296.453C111.722 324.571 133.945 347.364 161.36 347.364C188.774 347.364 210.997 370.16 210.997 398.278V402.814H75.0653C33.9678 402.814 0.651855 368.642 0.651855 326.489V259.663H111.722Z" fill="white"/>
<path d="M1.30337 260.313V326.488C1.30337 368.216 34.393 402.161 75.0652 402.161H210.344V398.278C210.344 370.562 188.37 348.017 161.359 348.017C133.629 348.017 111.07 324.884 111.07 296.453V260.313H1.30337ZM210.997 403.467H75.0652C33.6738 403.467 0 368.934 0 326.488V259.663C0 259.302 0.291345 259.01 0.651535 259.01H111.721C112.082 259.01 112.373 259.302 112.373 259.663V296.453C112.373 324.166 134.348 346.714 161.359 346.714C189.089 346.714 211.65 369.844 211.65 398.278V402.814C211.65 403.174 211.357 403.467 210.997 403.467Z" fill="#242B37"/>
<path d="M268.482 398.057C256.314 377.243 196.733 367.43 196.733 367.43L142.155 363.58H141.19H94.3022L95.3864 392.8C95.3864 401.756 99.0397 410.328 105.505 416.539C111.654 422.449 133.536 430.604 142.07 430.604L248.54 436.191H277.275C276.956 428.822 276.442 411.675 268.482 398.057Z" fill="#4EB966"/>
<path d="M95.3864 392.8L94.3022 363.58L206.177 369.203L95.3864 392.8Z" fill="#242B37"/>
<path d="M234.419 382.053L181.387 379.086L147.336 384.757L140.383 399.808L85.2817 538.217H140.452L175.409 463.585C191.085 430.119 220.765 397.988 220.765 397.988L207.217 538.217H262.386L274.43 464.43C279.214 431.593 280.044 420.129 270.695 402.808C263.855 390.137 248.806 382.857 234.419 382.053Z" fill="#4EB966"/>
<path d="M262.387 538.868H207.218C207.035 538.868 206.857 538.791 206.733 538.652C206.612 538.516 206.55 538.333 206.571 538.15L216.957 439.072C216.992 438.715 217.297 438.446 217.672 438.493C218.029 438.531 218.289 438.851 218.251 439.208L207.942 537.565H261.834L273.786 464.324C280.349 419.287 276.384 401.57 256.817 388.507C241.999 378.611 201.669 368.166 201.261 368.062C200.912 367.971 200.702 367.616 200.794 367.268C200.883 366.919 201.243 366.709 201.586 366.798C201.994 366.904 242.539 377.406 257.541 387.422C268.075 394.455 273.908 402.885 276.458 414.754C278.907 426.169 278.493 441.052 275.075 464.525L263.031 538.321C262.981 538.637 262.706 538.868 262.387 538.868Z" fill="#242B37"/>
<path d="M161.896 217.204C161.896 225.459 162.429 236.91 154.16 236.91C145.89 236.91 131.948 225.459 131.948 217.204C131.948 208.948 138.652 202.254 146.922 202.254C155.192 202.254 161.896 208.948 161.896 217.204Z" fill="#FEDFFF"/>
<path d="M167.392 213.544C165.108 205.932 158.04 200.38 149.67 200.38C141.3 200.38 134.49 205.486 132.4 213.544H167.392Z" fill="#242B37"/>
<path d="M152.289 242.888H134.969V217.202H152.289V242.888Z" fill="#FEDFFF"/>
<path d="M152.289 243.802C151.929 243.802 151.637 243.512 151.637 243.152V228.682C151.637 228.322 151.929 228.029 152.289 228.029C152.649 228.029 152.941 228.322 152.941 228.682V243.152C152.941 243.512 152.649 243.802 152.289 243.802Z" fill="#242B37"/>
<path d="M233.817 209.744L226.71 228.005L225.044 217.249L226.761 212.587C227.721 209.978 230.602 208.621 233.232 209.537L233.817 209.744Z" fill="#FEDFFF"/>
<path d="M261.264 223.78L258.492 244.65L232.969 252.102L225.484 232.656C223.469 227.426 223.428 221.643 225.363 216.384L226.548 213.166L261.264 223.78Z" fill="#FEDFFF"/>
<path d="M249.031 189.084L234.943 227.528L227.902 224.944L241.99 186.5C242.676 184.636 244.746 183.682 246.61 184.368L246.896 184.473C248.76 185.156 249.717 187.22 249.031 189.084Z" fill="#FEDFFF"/>
<path d="M250.996 205.636L242.753 228.029L235.153 224.959L243.958 203.051C244.648 201.177 246.727 200.217 248.601 200.904L248.848 200.996C250.725 201.683 251.689 203.762 250.996 205.636Z" fill="#FEDFFF"/>
<path d="M265.067 210.835L256.953 232.866L249.915 230.283L258.025 208.249C258.723 206.358 260.821 205.389 262.712 206.083L262.898 206.151C264.792 206.849 265.761 208.944 265.067 210.835Z" fill="#FEDFFF"/>
<path d="M265.064 227.056L258.572 244.49L251.495 241.892L262.446 212.353L264.999 218.966C266.003 221.566 266.027 224.441 265.064 227.056Z" fill="#FEDFFF"/>
<path d="M254.985 205.067L255.369 205.206C257.207 205.882 258.052 208.175 257.26 210.332L250.012 232.195L241.948 228.989L250.219 207.75C251.014 205.593 253.147 204.39 254.985 205.067Z" fill="#FEDFFF"/>
<path d="M258.808 242.814L258.055 274.363L230.82 265.679L231.444 232.771L258.808 242.814Z" fill="#FEDFFF"/>
<path d="M258.551 253.567L258.055 274.363L230.82 265.679L230.992 256.572L247.899 254.728L258.551 253.567Z" fill="#242B37"/>
<path d="M248.214 213.844C248.137 213.844 248.062 213.832 247.991 213.805C247.651 213.68 247.478 213.305 247.604 212.968L250.383 205.413C250.657 204.671 250.624 203.867 250.294 203.149C249.96 202.431 249.367 201.883 248.622 201.609L248.378 201.519C246.841 200.956 245.131 201.746 244.565 203.28L241.407 211.863C241.282 212.199 240.907 212.372 240.57 212.247C240.233 212.125 240.061 211.749 240.183 211.41L243.341 202.827C244.154 200.623 246.615 199.485 248.825 200.298L249.072 200.387C250.145 200.781 250.997 201.567 251.476 202.601C251.956 203.635 252.001 204.793 251.607 205.863L248.825 213.418C248.73 213.683 248.479 213.844 248.214 213.844Z" fill="#242B37"/>
<path d="M254.846 217.536C254.772 217.536 254.696 217.521 254.622 217.495C254.285 217.371 254.111 216.995 254.235 216.659L256.861 209.526C257.127 208.802 257.098 208.019 256.773 207.318C256.451 206.618 255.872 206.086 255.145 205.817L254.761 205.679C253.263 205.129 251.596 205.897 251.043 207.392L248.511 214.277C248.387 214.614 248.012 214.788 247.675 214.661C247.335 214.537 247.164 214.165 247.288 213.825L249.82 206.943C250.621 204.774 253.038 203.655 255.21 204.455L255.594 204.594C256.646 204.981 257.485 205.755 257.958 206.772C258.428 207.788 258.472 208.926 258.085 209.978L255.458 217.108C255.363 217.374 255.112 217.536 254.846 217.536Z" fill="#242B37"/>
<path d="M228.629 223.633C228.555 223.633 228.478 223.62 228.404 223.593C228.066 223.47 227.893 223.094 228.016 222.755L241.38 186.275C242.19 184.076 244.636 182.945 246.835 183.752L247.122 183.857C248.188 184.248 249.038 185.031 249.512 186.06C249.993 187.089 250.036 188.241 249.645 189.306L240.85 213.381C240.727 213.72 240.351 213.892 240.012 213.769C239.673 213.646 239.497 213.273 239.624 212.934L248.422 188.857C248.693 188.117 248.662 187.32 248.329 186.608C248 185.896 247.411 185.354 246.672 185.083L246.386 184.975C244.861 184.418 243.166 185.2 242.606 186.722L229.239 223.205C229.144 223.47 228.894 223.633 228.629 223.633Z" fill="#242B37"/>
<path d="M258.055 275.013C257.987 275.013 257.922 275.004 257.857 274.984L230.623 266.299C230.348 266.211 230.162 265.954 230.168 265.667L230.514 247.534L224.876 232.89C223.011 228.047 222.79 222.636 224.255 217.658C224.359 217.312 224.719 217.111 225.065 217.217C225.411 217.318 225.609 217.681 225.505 218.024C224.122 222.731 224.329 227.843 226.093 232.423L231.775 247.185C231.805 247.265 231.82 247.347 231.817 247.433L231.48 265.206L257.423 273.477L258.129 244.041C258.129 243.97 258.144 243.899 258.171 243.831L264.452 226.832C265.36 224.365 265.339 221.655 264.393 219.203L262.937 215.436C262.883 215.291 262.881 215.131 262.931 214.983L264.452 210.619C264.73 209.857 264.698 209.047 264.364 208.32C264.027 207.593 263.427 207.041 262.674 206.766L262.49 206.698C260.939 206.125 259.208 206.926 258.637 208.474L255.056 218.207C254.929 218.544 254.557 218.718 254.217 218.594C253.88 218.467 253.709 218.095 253.833 217.755L257.414 208.025C258.233 205.8 260.715 204.656 262.94 205.475L263.123 205.54C264.204 205.939 265.064 206.731 265.546 207.774C266.027 208.814 266.075 209.981 265.679 211.059L264.24 215.187L265.608 218.733C266.669 221.481 266.695 224.516 265.676 227.281L259.429 244.183L258.705 274.378C258.699 274.585 258.599 274.774 258.434 274.892C258.321 274.972 258.188 275.013 258.055 275.013Z" fill="#242B37"/>
<path d="M244.738 350.419C231.864 350.198 221.608 339.599 221.829 326.745L222.778 261.072L269.599 261.167L268.45 327.549C268.228 340.4 257.612 350.641 244.738 350.419Z" fill="#F0E097"/>
<path d="M223.419 261.725L222.482 326.755C222.376 332.797 224.636 338.521 228.841 342.864C233.045 347.211 238.695 349.663 244.749 349.767C244.882 349.77 245.015 349.77 245.145 349.77C257.461 349.77 267.587 339.877 267.8 327.538L268.934 261.817L223.419 261.725ZM245.148 351.076C245.006 351.076 244.868 351.073 244.726 351.07C238.326 350.96 232.351 348.369 227.904 343.771C223.454 339.177 221.067 333.125 221.176 326.734L222.124 261.064C222.13 260.706 222.42 260.419 222.777 260.419L269.599 260.514C269.774 260.514 269.942 260.585 270.063 260.709C270.184 260.833 270.252 261.002 270.249 261.179L269.103 327.558C268.878 340.61 258.17 351.073 245.148 351.076Z" fill="#242B37"/>
<path d="M261.876 310.94L220.183 269.307C203.249 252.391 180.274 242.888 156.318 242.888H129.328C110.722 242.888 93.7586 253.526 85.6775 270.256L65.1366 312.787C59.4755 324.547 62.8969 341.842 74.6747 347.494C82.6358 351.315 89.2921 351.028 96.6806 347.485L94.3271 373.916L207.986 369.171L201.911 321.731L228.903 343.857L261.876 310.94Z" fill="#F0E097"/>
<path d="M228.903 344.51C228.758 344.51 228.611 344.462 228.489 344.362L178.682 303.536C178.404 303.305 178.364 302.894 178.591 302.617C178.819 302.339 179.231 302.297 179.509 302.528L229.317 343.354C229.595 343.582 229.636 343.993 229.408 344.27C229.278 344.427 229.092 344.51 228.903 344.51Z" fill="#242B37"/>
<path d="M94.3029 342.755C94.2684 342.755 94.2341 342.755 94.1992 342.749C93.8435 342.69 93.6015 342.356 93.6588 342.001L103.921 278.003C103.978 277.649 104.312 277.407 104.667 277.463C105.023 277.519 105.265 277.856 105.208 278.21L94.9456 342.208C94.8942 342.527 94.6173 342.755 94.3029 342.755Z" fill="#242B37"/>
<path d="M261.875 311.593C261.71 311.593 261.541 311.528 261.414 311.404L219.722 269.768C202.543 252.61 180.363 243.541 155.579 243.541H133.269C132.908 243.541 132.617 243.249 132.617 242.888C132.617 242.528 132.908 242.238 133.269 242.238H155.579C180.716 242.238 203.217 251.436 220.644 268.843L262.336 310.479C262.59 310.733 262.59 311.147 262.336 311.401C262.209 311.528 262.041 311.593 261.875 311.593Z" fill="#242B37"/>
<path d="M103.159 283.257L88.1938 350.101C88.1938 350.101 90.4631 349.909 92.8441 349.126C94.5375 348.57 96.6806 347.486 96.6806 347.486L103.159 283.257Z" fill="#242B37"/>
<path d="M166.137 577.419V443.531H154.266V577.531L104.852 581.778V585.433H215.839V581.778L166.137 577.419Z" fill="white"/>
<path d="M105.504 584.783H215.187V582.375L166.081 578.07C165.744 578.04 165.486 577.756 165.486 577.42V444.185H154.918V577.532C154.918 577.872 154.659 578.152 154.322 578.182L105.504 582.378V584.783ZM215.84 586.086H104.853C104.492 586.086 104.201 585.793 104.201 585.433V581.778C104.201 581.441 104.46 581.157 104.796 581.131L153.614 576.935V443.532C153.614 443.171 153.906 442.879 154.266 442.879H166.138C166.498 442.879 166.789 443.171 166.789 443.532V576.823L215.896 581.131C216.233 581.157 216.49 581.441 216.49 581.778V585.433C216.49 585.793 216.2 586.086 215.84 586.086Z" fill="#242B37"/>
<path d="M168.108 299.523V336.555C168.108 364.857 190.477 387.801 218.071 387.801C245.663 387.801 268.031 410.742 268.031 439.046V443.611H131.212C89.8458 443.611 56.312 409.217 56.312 366.789V299.523H168.108Z" fill="white"/>
<path d="M56.9635 300.176V366.789C56.9635 408.788 90.2709 442.958 131.211 442.958H267.38V439.046C267.38 411.146 245.261 388.45 218.071 388.45C190.161 388.45 167.455 365.17 167.455 336.555V300.176H56.9635ZM268.03 444.264H131.211C89.5523 444.264 55.6602 409.506 55.6602 366.789V299.523C55.6602 299.162 55.9515 298.873 56.3117 298.873H168.107C168.467 298.873 168.759 299.162 168.759 299.523V336.555C168.759 364.452 190.88 387.147 218.071 387.147C245.979 387.147 268.683 410.428 268.683 439.046V443.611C268.683 443.971 268.391 444.264 268.03 444.264Z" fill="#242B37"/>
<path d="M340.212 107.824C340.212 116.324 338.55 124.416 335.539 131.791C326.443 154.029 305.079 169.637 280.17 169.637C279.952 169.637 279.745 169.637 279.526 169.629C279.449 169.629 279.381 169.629 279.302 169.621C279.074 169.629 278.849 169.621 278.619 169.613H278.598C277.948 169.601 277.298 169.57 276.654 169.523C266.416 168.923 256.863 165.673 248.628 160.423C238.062 153.699 229.667 143.694 224.803 131.783C223.412 128.388 222.315 124.843 221.532 121.174C220.61 116.877 220.129 112.411 220.129 107.824C220.129 99.2299 221.834 91.0358 224.916 83.5944C228.683 74.4946 234.51 66.5122 241.799 60.2784C251.361 52.0882 263.437 46.8934 276.654 46.121C277.298 46.07 277.948 46.0426 278.598 46.0269H278.619C278.849 46.023 279.074 46.0151 279.302 46.023C279.381 46.0151 279.449 46.0151 279.526 46.0151C279.745 46.0073 279.952 46.0073 280.17 46.0073C294.756 46.0073 308.13 51.3668 318.539 60.2784C325.827 66.5122 331.657 74.5025 335.429 83.6062C338.507 91.0436 340.212 99.2299 340.212 107.824Z" fill="#C3D3FD"/>
<path d="M335.439 84.2583C335.417 84.2583 335.395 84.2583 335.373 84.2546C318.628 82.507 299.519 81.5831 280.103 81.5831C260.703 81.5831 241.6 82.507 224.861 84.2546C224.498 84.2954 224.182 84.032 224.146 83.6721C224.108 83.3159 224.368 82.9931 224.726 82.956C241.509 81.2047 260.659 80.2808 280.103 80.2808C299.564 80.2808 318.717 81.2084 335.506 82.9597C335.866 82.9968 336.126 83.3159 336.085 83.6758C336.052 84.0097 335.77 84.2583 335.439 84.2583Z" fill="white"/>
<path d="M280.171 135.112C260.7 135.112 241.528 134.184 224.725 132.427C224.368 132.389 224.108 132.07 224.146 131.713C224.182 131.353 224.498 131.091 224.861 131.132C241.62 132.882 260.744 133.81 280.171 133.81C299.608 133.81 318.743 132.882 335.508 131.129C335.865 131.088 336.185 131.353 336.222 131.71C336.259 132.067 335.998 132.389 335.641 132.427C318.834 134.184 299.652 135.112 280.171 135.112Z" fill="white"/>
<path d="M318.563 60.9307C318.532 60.9307 318.501 60.9268 318.474 60.923C306.153 59.2316 293.266 58.3724 280.169 58.3724C267.082 58.3724 254.205 59.2316 241.892 60.9191C241.538 60.9692 241.21 60.7188 241.16 60.3605C241.11 60.006 241.361 59.6747 241.715 59.6284C254.087 57.9294 267.023 57.0702 280.169 57.0702C293.323 57.0702 306.273 57.9332 318.652 59.6323C319.006 59.6785 319.256 60.0098 319.206 60.3643C319.16 60.6918 318.883 60.9307 318.563 60.9307Z" fill="white"/>
<path d="M280.149 156.788C266.162 156.788 252.455 155.794 239.403 153.837C239.05 153.785 238.801 153.452 238.857 153.096C238.909 152.739 239.233 152.501 239.595 152.547C252.583 154.497 266.227 155.487 280.149 155.487C294.14 155.487 308.124 154.514 320.588 152.671C320.945 152.619 321.278 152.864 321.33 153.22C321.382 153.576 321.134 153.906 320.781 153.958C308.251 155.811 294.202 156.788 280.149 156.788Z" fill="white"/>
<path d="M279.079 46.6604C256.616 46.6604 238.341 74.0975 238.341 107.822C238.341 141.546 256.616 168.983 279.079 168.983C301.543 168.983 319.816 141.546 319.816 107.822C319.816 74.0975 301.543 46.6604 279.079 46.6604ZM279.079 170.286C255.898 170.286 237.038 142.264 237.038 107.822C237.038 73.3792 255.898 45.3574 279.079 45.3574C302.257 45.3574 321.119 73.3792 321.119 107.822C321.119 142.264 302.257 170.286 279.079 170.286Z" fill="white"/>
<path d="M279.051 46.6604C270.001 46.6604 262.354 74.6705 262.354 107.822C262.354 140.977 270.001 168.983 279.051 168.983C288.102 168.983 295.754 140.977 295.754 107.822C295.754 74.6705 288.102 46.6604 279.051 46.6604ZM279.051 170.286C268.958 170.286 261.051 142.849 261.051 107.822C261.051 72.7945 268.958 45.3574 279.051 45.3574C289.148 45.3574 297.056 72.7945 297.056 107.822C297.056 142.849 289.148 170.286 279.051 170.286Z" fill="white"/>
<path d="M340.215 108.475H220.13C219.77 108.475 219.477 108.18 219.477 107.822C219.477 107.461 219.77 107.17 220.13 107.17H340.215C340.576 107.17 340.867 107.461 340.867 107.822C340.867 108.18 340.576 108.475 340.215 108.475Z" fill="white"/>
<path d="M258.661 111.892L245.584 89.4914C242.38 80.345 249.2 70.7878 258.889 70.8406C268.575 70.8934 275.288 80.5297 271.985 89.6346L258.661 111.892Z" fill="white"/>
<path d="M267.329 85.0005C267.303 89.7092 263.467 93.4994 258.76 93.477C254.056 93.4508 250.262 89.6121 250.289 84.9071C250.312 80.2021 254.151 76.4083 258.855 76.4344C263.562 76.4605 267.356 80.2955 267.329 85.0005Z" fill="#C3D3FD"/>
<path d="M278.958 141.95L270.203 126.952C268.057 120.833 272.622 114.433 279.109 114.468C285.592 114.503 290.087 120.952 287.875 127.05L278.958 141.95Z" fill="white"/>
<path d="M284.759 123.947C284.741 127.098 282.175 129.636 279.024 129.619C275.876 129.602 273.334 127.035 273.352 123.884C273.369 120.733 275.936 118.195 279.087 118.212C282.237 118.229 284.776 120.796 284.759 123.947Z" fill="#C3D3FD"/>
<path d="M324.231 65.8264H438.627C453.516 65.8264 465.585 77.896 465.585 92.7844V136.105L456.035 119.739H322.601C307.716 119.739 295.646 107.669 295.646 92.7844C295.646 77.896 307.716 65.8264 322.601 65.8264H324.231Z" fill="white"/>
<path d="M339.1 120.393H322.598C307.379 120.393 294.992 108.006 294.992 92.7863C294.992 77.5628 307.379 65.1763 322.598 65.1763H324.23C324.591 65.1763 324.884 65.4691 324.884 65.8266C324.884 66.1879 324.591 66.4807 324.23 66.4807H322.598C308.097 66.4807 296.297 78.2816 296.297 92.7863C296.297 107.291 308.097 119.088 322.598 119.088H339.1C339.461 119.088 339.75 119.381 339.75 119.742C339.75 120.1 339.461 120.393 339.1 120.393Z" fill="#9BB4F6"/>
<path d="M465.581 136.757C465.357 136.757 465.14 136.636 465.022 136.434L455.659 120.393H339.1C338.738 120.393 338.446 120.1 338.446 119.743C338.446 119.381 338.738 119.088 339.1 119.088H456.032C456.264 119.088 456.48 119.214 456.595 119.412L464.935 133.696V92.7866C464.935 78.2818 453.13 66.481 438.625 66.481H324.23C323.872 66.481 323.58 66.1882 323.58 65.8269C323.58 65.4694 323.872 65.1766 324.23 65.1766H438.625C453.849 65.1766 466.235 77.5631 466.235 92.7866V136.103C466.235 136.4 466.038 136.658 465.756 136.734C465.699 136.75 465.638 136.757 465.581 136.757Z" fill="#F0E097"/>
<path d="M363.929 107.313H329.459C329.1 107.313 328.805 107.022 328.805 106.659C328.805 106.301 329.1 106.009 329.459 106.009H363.929C364.291 106.009 364.583 106.301 364.583 106.659C364.583 107.022 364.291 107.313 363.929 107.313Z" fill="#F0E097"/>
<path d="M444.127 107.313H373.276C372.917 107.313 372.625 107.022 372.625 106.659C372.625 106.301 372.917 106.009 373.276 106.009H444.127C444.486 106.009 444.777 106.301 444.777 106.659C444.777 107.022 444.486 107.313 444.127 107.313Z" fill="#F0E097"/>
<path d="M390.007 97.959H329.461C329.1 97.959 328.808 97.6666 328.808 97.3092C328.808 96.9482 329.1 96.6558 329.461 96.6558H390.007C390.368 96.6558 390.66 96.9482 390.66 97.3092C390.66 97.6666 390.368 97.959 390.007 97.959Z" fill="#F0E097"/>
<path d="M444.127 97.959H408.703C408.342 97.959 408.053 97.6666 408.053 97.3092C408.053 96.9482 408.342 96.6558 408.703 96.6558H444.127C444.488 96.6558 444.776 96.9482 444.776 97.3092C444.776 97.6666 444.488 97.959 444.127 97.959Z" fill="#F0E097"/>
<path d="M363.933 88.6045H329.461C329.101 88.6045 328.808 88.3148 328.808 87.9554C328.808 87.5923 329.101 87.3026 329.461 87.3026H363.933C364.293 87.3026 364.586 87.5923 364.586 87.9554C364.586 88.3148 364.293 88.6045 363.933 88.6045Z" fill="#F0E097"/>
<path d="M444.13 88.6045H373.278C372.922 88.6045 372.628 88.3148 372.628 87.9554C372.628 87.5923 372.922 87.3026 373.278 87.3026H444.13C444.489 87.3026 444.779 87.5923 444.779 87.9554C444.779 88.3148 444.489 88.6045 444.13 88.6045Z" fill="#F0E097"/>
<path d="M390.009 79.5605H329.462C329.1 79.5605 328.81 79.2702 328.81 78.9091C328.81 78.5479 329.1 78.2576 329.462 78.2576H390.009C390.37 78.2576 390.66 78.5479 390.66 78.9091C390.66 79.2702 390.37 79.5605 390.009 79.5605Z" fill="#F0E097"/>
<path d="M444.131 79.5605H408.705C408.344 79.5605 408.053 79.2702 408.053 78.9091C408.053 78.5479 408.344 78.2576 408.705 78.2576H444.131C444.488 78.2576 444.778 78.5479 444.778 78.9091C444.778 79.2702 444.488 79.5605 444.131 79.5605Z" fill="#F0E097"/>
<path d="M120.496 173.426H225.471C234.938 173.426 243.634 168.251 248.157 159.922C250.194 156.174 251.271 151.921 251.271 147.626C251.271 133.398 239.695 121.823 225.471 121.823H162.213C147.986 121.823 136.412 133.398 136.412 147.623V162.322C136.412 162.537 136.304 162.737 136.125 162.859L120.496 173.426ZM225.471 174.728H118.369C118.082 174.728 117.83 174.541 117.746 174.267C117.661 173.994 117.766 173.699 118.004 173.537L135.109 161.975V147.623C135.109 132.678 147.267 120.521 162.213 120.521H225.471C240.416 120.521 252.577 132.678 252.577 147.623C252.577 152.136 251.444 156.604 249.304 160.545C244.55 169.294 235.417 174.728 225.471 174.728Z" fill="#C3D3FD"/>
<path d="M218.797 162.313H187.452C187.092 162.313 186.801 162.024 186.801 161.664C186.801 161.304 187.092 161.011 187.452 161.011H218.797C219.157 161.011 219.447 161.304 219.447 161.664C219.447 162.024 219.157 162.313 218.797 162.313Z" fill="#C3D3FD"/>
<path d="M178.954 162.313H153.585C153.224 162.313 152.933 162.024 152.933 161.664C152.933 161.304 153.224 161.011 153.585 161.011H178.954C179.314 161.011 179.605 161.304 179.605 161.664C179.605 162.024 179.314 162.313 178.954 162.313Z" fill="#C3D3FD"/>
<path d="M218.797 154.256H163.741C163.381 154.256 163.089 153.966 163.089 153.607C163.089 153.244 163.381 152.954 163.741 152.954H218.797C219.157 152.954 219.446 153.244 219.446 153.607C219.446 153.966 219.157 154.256 218.797 154.256Z" fill="#C3D3FD"/>
<path d="M185.794 154.256H153.584C153.223 154.256 152.932 153.966 152.932 153.607C152.932 153.244 153.223 152.954 153.584 152.954H185.794C186.155 152.954 186.446 153.244 186.446 153.607C186.446 153.966 186.155 154.256 185.794 154.256Z" fill="#C3D3FD"/>
<path d="M218.798 146.194H187.453C187.093 146.194 186.802 145.902 186.802 145.544C186.802 145.183 187.093 144.891 187.453 144.891H218.798C219.159 144.891 219.448 145.183 219.448 145.544C219.448 145.902 219.159 146.194 218.798 146.194Z" fill="#C3D3FD"/>
<path d="M178.955 146.194H153.585C153.225 146.194 152.934 145.902 152.934 145.544C152.934 145.183 153.225 144.891 153.585 144.891H178.955C179.315 144.891 179.607 145.183 179.607 145.544C179.607 145.902 179.315 146.194 178.955 146.194Z" fill="#C3D3FD"/>
<path d="M218.796 138.403H163.741C163.381 138.403 163.089 138.11 163.089 137.751C163.089 137.391 163.381 137.098 163.741 137.098H218.796C219.157 137.098 219.446 137.391 219.446 137.751C219.446 138.11 219.157 138.403 218.796 138.403Z" fill="#C3D3FD"/>
<path d="M185.794 138.403H153.583C153.223 138.403 152.932 138.11 152.932 137.751C152.932 137.391 153.223 137.098 153.583 137.098H185.794C186.155 137.098 186.446 137.391 186.446 137.751C186.446 138.11 186.155 138.403 185.794 138.403Z" fill="#C3D3FD"/>
<path d="M251.92 147.626C251.92 149.67 251.691 151.663 251.252 153.579C251.169 153.936 251.076 154.292 250.979 154.642C250.446 156.603 249.692 158.478 248.737 160.232C248.699 160.294 248.664 160.357 248.63 160.422C238.063 153.697 229.669 143.689 224.805 131.781C223.413 128.384 222.317 124.841 221.534 121.171H225.47C230.549 121.171 235.303 122.603 239.334 125.09C241.095 126.177 242.726 127.46 244.18 128.913C245.589 130.325 246.842 131.899 247.903 133.597C250.446 137.666 251.92 142.474 251.92 147.626Z" fill="#9BB4F6"/>
</g>
</svg>
