<svg width="24" height="24" viewBox="0 0 24 24" fill="none" xmlns="http://www.w3.org/2000/svg">
<g clip-path="url(#clip0_717_10118)">
<path d="M15.5 10.5C15.5 9.17392 14.9732 7.90215 14.0355 6.96447C13.0979 6.02678 11.8261 5.5 10.5 5.5C9.17392 5.5 7.90215 6.02678 6.96447 6.96447C6.02678 7.90215 5.5 9.17392 5.5 10.5C5.5 11.8261 6.02678 13.0979 6.96447 14.0355C7.90215 14.9732 9.17392 15.5 10.5 15.5C11.8261 15.5 13.0979 14.9732 14.0355 14.0355C14.9732 13.0979 15.5 11.8261 15.5 10.5ZM14.5344 15.5969C13.4281 16.475 12.025 17 10.5 17C6.90937 17 4 14.0906 4 10.5C4 6.90937 6.90937 4 10.5 4C14.0906 4 17 6.90937 17 10.5C17 12.025 16.475 13.4281 15.5969 14.5344L19.7812 18.7188C20.075 19.0125 20.075 19.4875 19.7812 19.7781C19.4875 20.0688 19.0125 20.0719 18.7219 19.7781L14.5344 15.5969Z" fill="#242B37"/>
</g>
<defs>
<clipPath id="clip0_717_10118">
<rect width="16" height="16" fill="white" transform="translate(4 4)"/>
</clipPath>
</defs>
</svg>
