<svg width="15" height="16" viewBox="0 0 15 16" fill="none" xmlns="http://www.w3.org/2000/svg">
<g clip-path="url(#clip0_31_13135)">
<path d="M9.93896 4C9.93896 3.33696 9.67557 2.70107 9.20673 2.23223C8.73789 1.76339 8.10201 1.5 7.43896 1.5C6.77592 1.5 6.14004 1.76339 5.6712 2.23223C5.20236 2.70107 4.93896 3.33696 4.93896 4C4.93896 4.66304 5.20236 5.29893 5.6712 5.76777C6.14004 6.23661 6.77592 6.5 7.43896 6.5C8.10201 6.5 8.73789 6.23661 9.20673 5.76777C9.67557 5.29893 9.93896 4.66304 9.93896 4ZM3.43896 4C3.43896 2.93913 3.86039 1.92172 4.61054 1.17157C5.36068 0.421427 6.3781 0 7.43896 0C8.49983 0 9.51725 0.421427 10.2674 1.17157C11.0175 1.92172 11.439 2.93913 11.439 4C11.439 5.06087 11.0175 6.07828 10.2674 6.82843C9.51725 7.57857 8.49983 8 7.43896 8C6.3781 8 5.36068 7.57857 4.61054 6.82843C3.86039 6.07828 3.43896 5.06087 3.43896 4ZM1.97959 14.5H12.8983C12.6202 12.5219 10.9202 11 8.86709 11H6.01084C3.95772 11 2.25771 12.5219 1.97959 14.5ZM0.438965 15.0719C0.438965 11.9937 2.93271 9.5 6.01084 9.5H8.86709C11.9452 9.5 14.439 11.9937 14.439 15.0719C14.439 15.5844 14.0233 16 13.5108 16H1.36709C0.85459 16 0.438965 15.5844 0.438965 15.0719Z" fill="#242B37"/>
</g>
<defs>
<clipPath id="clip0_31_13135">
<rect width="14" height="16" fill="white" transform="translate(0.438965)"/>
</clipPath>
</defs>
</svg>
