<svg width="14" height="16" viewBox="0 0 14 16" fill="none" xmlns="http://www.w3.org/2000/svg">
<path d="M4.5 4V6H9.5V4C9.5 2.61875 8.38125 1.5 7 1.5C5.61875 1.5 4.5 2.61875 4.5 4ZM3 6V4C3 1.79063 4.79063 0 7 0C9.20938 0 11 1.79063 11 4V6H12C13.1031 6 14 6.89687 14 8V14C14 15.1031 13.1031 16 12 16H2C0.896875 16 0 15.1031 0 14V8C0 6.89687 0.896875 6 2 6H3ZM1.5 8V14C1.5 14.275 1.725 14.5 2 14.5H12C12.275 14.5 12.5 14.275 12.5 14V8C12.5 7.725 12.275 7.5 12 7.5H2C1.725 7.5 1.5 7.725 1.5 8Z" fill="#242B37"/>
</svg>
