<svg width="24" height="24" viewBox="0 0 24 24" fill="none" xmlns="http://www.w3.org/2000/svg">
<path d="M12.0001 5.42857C11.7727 5.42857 11.5547 5.51888 11.394 5.67962C11.2332 5.84037 11.1429 6.05839 11.1429 6.28571C11.1429 6.51304 11.2332 6.73106 11.394 6.89181C11.5547 7.05255 11.7727 7.14286 12.0001 7.14286C12.2274 7.14286 12.4454 7.05255 12.6062 6.89181C12.7669 6.73106 12.8572 6.51304 12.8572 6.28571C12.8572 6.05839 12.7669 5.84037 12.6062 5.67962C12.4454 5.51888 12.2274 5.42857 12.0001 5.42857ZM12.0001 8.57143C11.3939 8.57143 10.8125 8.33061 10.3838 7.90196C9.95517 7.4733 9.71436 6.89192 9.71436 6.28571C9.71436 5.67951 9.95517 5.09812 10.3838 4.66947C10.8125 4.24082 11.3939 4 12.0001 4C12.6063 4 13.1877 4.24082 13.6163 4.66947C14.045 5.09812 14.2858 5.67951 14.2858 6.28571C14.2858 6.89192 14.045 7.4733 13.6163 7.90196C13.1877 8.33061 12.6063 8.57143 12.0001 8.57143ZM12.8572 12C12.8572 11.7727 12.7669 11.5547 12.6062 11.3939C12.4454 11.2332 12.2274 11.1429 12.0001 11.1429C11.7727 11.1429 11.5547 11.2332 11.394 11.3939C11.2332 11.5547 11.1429 11.7727 11.1429 12C11.1429 12.2273 11.2332 12.4453 11.394 12.6061C11.5547 12.7668 11.7727 12.8571 12.0001 12.8571C12.2274 12.8571 12.4454 12.7668 12.6062 12.6061C12.7669 12.4453 12.8572 12.2273 12.8572 12ZM9.71436 12C9.71436 11.3938 9.95517 10.8124 10.3838 10.3838C10.8125 9.9551 11.3939 9.71429 12.0001 9.71429C12.6063 9.71429 13.1877 9.9551 13.6163 10.3838C14.045 10.8124 14.2858 11.3938 14.2858 12C14.2858 12.6062 14.045 13.1876 13.6163 13.6162C13.1877 14.0449 12.6063 14.2857 12.0001 14.2857C11.3939 14.2857 10.8125 14.0449 10.3838 13.6162C9.95517 13.1876 9.71436 12.6062 9.71436 12ZM12.8572 17.7143C12.8572 17.487 12.7669 17.2689 12.6062 17.1082C12.4454 16.9474 12.2274 16.8571 12.0001 16.8571C11.7727 16.8571 11.5547 16.9474 11.394 17.1082C11.2332 17.2689 11.1429 17.487 11.1429 17.7143C11.1429 17.9416 11.2332 18.1596 11.394 18.3204C11.5547 18.4811 11.7727 18.5714 12.0001 18.5714C12.2274 18.5714 12.4454 18.4811 12.6062 18.3204C12.7669 18.1596 12.8572 17.9416 12.8572 17.7143ZM9.71436 17.7143C9.71436 17.1081 9.95517 16.5267 10.3838 16.098C10.8125 15.6694 11.3939 15.4286 12.0001 15.4286C12.6063 15.4286 13.1877 15.6694 13.6163 16.098C14.045 16.5267 14.2858 17.1081 14.2858 17.7143C14.2858 18.3205 14.045 18.9019 13.6163 19.3305C13.1877 19.7592 12.6063 20 12.0001 20C11.3939 20 10.8125 19.7592 10.3838 19.3305C9.95517 18.9019 9.71436 18.3205 9.71436 17.7143Z" fill="#242B37"/>
</svg>
