<svg width="25" height="24" viewBox="0 0 25 24" fill="none" xmlns="http://www.w3.org/2000/svg">
<g clip-path="url(#clip0_1864_567)">
<path d="M13.4231 4.92308C13.4231 4.41154 13.0115 4 12.5 4C11.9885 4 11.5769 4.41154 11.5769 4.92308V11.0769H5.42308C4.91154 11.0769 4.5 11.4885 4.5 12C4.5 12.5115 4.91154 12.9231 5.42308 12.9231H11.5769V19.0769C11.5769 19.5885 11.9885 20 12.5 20C13.0115 20 13.4231 19.5885 13.4231 19.0769V12.9231H19.5769C20.0885 12.9231 20.5 12.5115 20.5 12C20.5 11.4885 20.0885 11.0769 19.5769 11.0769H13.4231V4.92308Z" fill="#242B37"/>
</g>
<defs>
<clipPath id="clip0_1864_567">
<rect width="16" height="16" fill="white" transform="translate(4.5 4)"/>
</clipPath>
</defs>
</svg>
