<svg width="16" height="16" viewBox="0 0 16 16" fill="none" xmlns="http://www.w3.org/2000/svg">
<path d="M0 2.75C0 2.33437 0.334375 2 0.75 2H13.25C13.6656 2 14 2.33437 14 2.75C14 3.16562 13.6656 3.5 13.25 3.5H0.75C0.334375 3.5 0 3.16562 0 2.75ZM2 7.75C2 7.33437 2.33437 7 2.75 7H15.25C15.6656 7 16 7.33437 16 7.75C16 8.16563 15.6656 8.5 15.25 8.5H2.75C2.33437 8.5 2 8.16563 2 7.75ZM14 12.75C14 13.1656 13.6656 13.5 13.25 13.5H0.75C0.334375 13.5 0 13.1656 0 12.75C0 12.3344 0.334375 12 0.75 12H13.25C13.6656 12 14 12.3344 14 12.75Z" fill="#242B37"/>
</svg>
