<svg width="16" height="16" viewBox="0 0 16 16" fill="none" xmlns="http://www.w3.org/2000/svg">
<path d="M5.5 4V6H10.5V4C10.5 2.61875 9.38125 1.5 8 1.5C6.61875 1.5 5.5 2.61875 5.5 4ZM4 6V4C4 1.79063 5.79063 0 8 0C10.2094 0 12 1.79063 12 4V6H13C14.1031 6 15 6.89687 15 8V14C15 15.1031 14.1031 16 13 16H3C1.89688 16 1 15.1031 1 14V8C1 6.89687 1.89688 6 3 6H4ZM2.5 8V14C2.5 14.275 2.725 14.5 3 14.5H13C13.275 14.5 13.5 14.275 13.5 14V8C13.5 7.725 13.275 7.5 13 7.5H3C2.725 7.5 2.5 7.725 2.5 8Z" fill="#242B37"/>
</svg>
