<svg width="25" height="24" viewBox="0 0 25 24" fill="none" xmlns="http://www.w3.org/2000/svg">
<g clip-path="url(#clip0_3308_3111)">
<path d="M20.1476 6.05186C20.6175 5.58201 20.6175 4.82224 20.1476 4.35739C19.6778 3.89253 18.918 3.88754 18.4531 4.35739L12.505 10.3055L6.55186 4.35239C6.08201 3.88254 5.32224 3.88254 4.85739 4.35239C4.39253 4.82224 4.38754 5.58201 4.85739 6.04686L10.8055 11.995L4.85239 17.9481C4.38254 18.418 4.38254 19.1778 4.85239 19.6426C5.32224 20.1075 6.08201 20.1125 6.54686 19.6426L12.495 13.6945L18.4481 19.6476C18.918 20.1175 19.6778 20.1175 20.1426 19.6476C20.6075 19.1778 20.6125 18.418 20.1426 17.9531L14.1945 12.005L20.1476 6.05186Z" fill="#242B37"/>
</g>
<defs>
<clipPath id="clip0_3308_3111">
<rect width="16" height="16" fill="white" transform="translate(4.5 4)"/>
</clipPath>
</defs>
</svg>
