<svg width="24" height="24" viewBox="0 0 24 24" fill="none" xmlns="http://www.w3.org/2000/svg">
<path d="M9.6 7.2C10.1304 7.2 10.6391 7.41071 11.0142 7.78579C11.3893 8.16086 11.6 8.66957 11.6 9.2C11.6 9.73043 11.3893 10.2391 11.0142 10.6142C10.6391 10.9893 10.1304 11.2 9.6 11.2C9.06957 11.2 8.56086 10.9893 8.18579 10.6142C7.81071 10.2391 7.6 9.73043 7.6 9.2C7.6 8.66957 7.81071 8.16086 8.18579 7.78579C8.56086 7.41071 9.06957 7.2 9.6 7.2ZM9.6 12.4C10.4487 12.4 11.2626 12.0629 11.8627 11.4627C12.4629 10.8626 12.8 10.0487 12.8 9.2C12.8 8.35131 12.4629 7.53737 11.8627 6.93726C11.2626 6.33714 10.4487 6 9.6 6C8.75131 6 7.93737 6.33714 7.33726 6.93726C6.73714 7.53737 6.4 8.35131 6.4 9.2C6.4 10.0487 6.73714 10.8626 7.33726 11.4627C7.93737 12.0629 8.75131 12.4 9.6 12.4ZM8.4575 14.8H10.7425C12.385 14.8 13.745 16.0175 13.9675 17.6H5.2325C5.455 16.0175 6.815 14.8 8.4575 14.8ZM8.4575 13.6C5.995 13.6 4 15.595 4 18.0575C4 18.4675 4.3325 18.8 4.7425 18.8H14.4575C14.8675 18.8 15.2 18.4675 15.2 18.0575C15.2 15.595 13.205 13.6 10.7425 13.6H8.4575ZM15.8 11C15.4675 11 15.2 11.2675 15.2 11.6C15.2 11.9325 15.4675 12.2 15.8 12.2H19.4C19.7325 12.2 20 11.9325 20 11.6C20 11.2675 19.7325 11 19.4 11H15.8Z" fill="white"/>
</svg>
