<svg width="24" height="24" viewBox="0 0 24 24" fill="none" xmlns="http://www.w3.org/2000/svg">
<g clip-path="url(#clip0_4791_15096)">
<path d="M5.7132 6.28622V17.7173C5.7132 18.0317 5.9704 18.2889 6.28476 18.2889H17.7159C18.0302 18.2889 18.2874 18.0317 18.2874 17.7173V8.94753C18.2874 8.7975 18.2267 8.65104 18.1195 8.54387L19.3305 7.33289C19.7592 7.76155 19.9985 8.34383 19.9985 8.95111V17.7173C19.9985 18.9783 18.9733 20.0036 17.7123 20.0036H6.28476C5.02376 20.0036 3.99854 18.9783 3.99854 17.7173V6.28622C3.99854 5.02523 5.02376 4 6.28476 4H15.0546C15.6619 4 16.2441 4.23934 16.6728 4.66801L19.3341 7.32931L18.1231 8.5403L15.4582 5.88256C15.4475 5.87185 15.4404 5.8647 15.4297 5.85399V9.42978C15.4297 9.90489 15.0474 10.2871 14.5723 10.2871H7.71365C7.23854 10.2871 6.85632 9.90489 6.85632 9.42978V5.71467H6.28476C5.9704 5.71467 5.7132 5.97187 5.7132 6.28622ZM8.57098 5.71467V8.57245H13.715V5.71467H8.57098ZM9.7141 14.288C9.7141 13.6817 9.95497 13.1002 10.3837 12.6714C10.8125 12.2427 11.394 12.0018 12.0003 12.0018C12.6067 12.0018 13.1882 12.2427 13.6169 12.6714C14.0457 13.1002 14.2865 13.6817 14.2865 14.288C14.2865 14.8944 14.0457 15.4759 13.6169 15.9046C13.1882 16.3334 12.6067 16.5742 12.0003 16.5742C11.394 16.5742 10.8125 16.3334 10.3837 15.9046C9.95497 15.4759 9.7141 14.8944 9.7141 14.288Z" fill="white"/>
</g>
<defs>
<clipPath id="clip0_4791_15096">
<rect width="16" height="16" fill="white" transform="translate(4 4)"/>
</clipPath>
</defs>
</svg>
