<svg width="19" height="20" viewBox="0 0 19 20" fill="none" xmlns="http://www.w3.org/2000/svg">
<path d="M3.69231 1.84375C3.69231 1.37617 3.31017 1 2.83517 1C2.36017 1 1.97803 1.37617 1.97803 1.84375V3.25V13.3223V15.0625V18.1562C1.97803 18.6238 2.36017 19 2.83517 19C3.31017 19 3.69231 18.6238 3.69231 18.1562V14.6406L6.56017 13.934C8.02803 13.5719 9.5816 13.7406 10.9352 14.4051C12.5137 15.182 14.3459 15.277 15.9959 14.6652L17.2352 14.2082C17.6816 14.043 17.978 13.6246 17.978 13.1535V3.32383C17.978 2.51523 17.1137 1.98789 16.378 2.35L16.0352 2.51875C14.3816 3.33438 12.4352 3.33438 10.7816 2.51875C9.52803 1.9 8.08874 1.74531 6.72803 2.0793L3.69231 2.82812V1.84375ZM3.69231 4.56836L7.14231 3.71758C8.1066 3.48203 9.12446 3.59102 10.0137 4.02695C11.9745 4.99023 14.253 5.07109 16.2637 4.26602V12.7668L15.3923 13.0867C14.1887 13.5297 12.8495 13.4629 11.6995 12.8969C9.97803 12.0496 8.01017 11.8387 6.14231 12.2957L3.69231 12.9004V4.56836Z" fill="#242B37"/>
</svg>
