<svg width="24" height="24" viewBox="0 0 24 24" fill="none" xmlns="http://www.w3.org/2000/svg">
<g clip-path="url(#clip0_4625_39866)">
<path d="M11.9998 4C12.5311 4 13.0498 4.05313 13.5561 4.15C13.803 4.19688 14.2373 4.34062 14.4748 4.77812C14.5373 4.89375 14.5873 5.01562 14.6186 5.14688L14.9092 6.35C14.953 6.53125 15.2592 6.70937 15.4373 6.65625L16.6248 6.30625C16.7498 6.26875 16.878 6.25 17.0061 6.24688C17.5092 6.23125 17.8498 6.54063 18.0155 6.72813C18.7061 7.5125 19.2373 8.43438 19.5748 9.425C19.6561 9.6625 19.7498 10.1062 19.4905 10.5312C19.4217 10.6438 19.3373 10.75 19.2405 10.8438L18.3436 11.6969C18.2123 11.8219 18.2123 12.1812 18.3436 12.3062L19.2405 13.1594C19.3373 13.2531 19.4217 13.3594 19.4905 13.4719C19.7467 13.8969 19.653 14.3406 19.5748 14.5781C19.2373 15.5688 18.7061 16.4875 18.0155 17.275C17.8498 17.4625 17.5061 17.7719 17.0061 17.7563C16.878 17.7531 16.7498 17.7312 16.6248 17.6969L15.4373 17.3438C15.2592 17.2906 14.953 17.4688 14.9092 17.65L14.6186 18.8531C14.5873 18.9844 14.5373 19.1094 14.4748 19.2219C14.2342 19.6594 13.7998 19.8 13.5561 19.85C13.0498 19.9469 12.5311 20 11.9998 20C11.4686 20 10.9498 19.9469 10.4436 19.85C10.1967 19.8031 9.76235 19.6594 9.52485 19.2219C9.46235 19.1062 9.41235 18.9844 9.3811 18.8531L9.09047 17.65C9.04672 17.4688 8.74047 17.2906 8.56235 17.3438L7.37485 17.6938C7.24985 17.7313 7.12172 17.75 6.9936 17.7531C6.49047 17.7688 6.14985 17.4594 5.98422 17.2719C5.29672 16.4875 4.76235 15.5656 4.42485 14.575C4.3436 14.3375 4.24985 13.8938 4.50922 13.4688C4.57797 13.3562 4.66235 13.25 4.75922 13.1562L5.6561 12.3031C5.78735 12.1781 5.78735 11.8187 5.6561 11.6937L4.7561 10.8406C4.65922 10.7469 4.57485 10.6406 4.5061 10.5281C4.24985 10.1031 4.3436 9.65938 4.42485 9.425C4.76235 8.43438 5.2936 7.51562 5.98422 6.72813C6.14985 6.54063 6.4936 6.23125 6.9936 6.24688C7.12172 6.25 7.24985 6.27188 7.37485 6.30625L8.56235 6.65625C8.74047 6.70937 9.04672 6.53125 9.09047 6.35L9.3811 5.14688C9.41235 5.01562 9.46235 4.89062 9.52485 4.77812C9.76547 4.34062 10.1998 4.2 10.4436 4.15C10.9498 4.05313 11.4686 4 11.9998 4ZM10.8155 5.60625L10.5498 6.70312C10.3061 7.7125 9.13422 8.3875 8.13735 8.09688L7.05922 7.77813C6.5436 8.38125 6.13735 9.08125 5.87172 9.83125L6.69047 10.6094C7.44047 11.3219 7.44047 12.6781 6.69047 13.3906L5.87172 14.1687C6.13735 14.9187 6.5436 15.6188 7.05922 16.2219L8.14047 15.9031C9.13422 15.6094 10.3092 16.2875 10.553 17.2969L10.8186 18.3938C11.5873 18.5344 12.4217 18.5344 13.1905 18.3938L13.4561 17.2969C13.6998 16.2875 14.8717 15.6125 15.8686 15.9031L16.9498 16.2219C17.4655 15.6188 17.8717 14.9187 18.1373 14.1687L17.3186 13.3906C16.5686 12.6781 16.5686 11.3219 17.3186 10.6094L18.1373 9.83125C17.8717 9.08125 17.4655 8.38125 16.9498 7.77813L15.8686 8.09688C14.8748 8.39062 13.6998 7.7125 13.4561 6.70312L13.1905 5.60625C12.4217 5.46563 11.5873 5.46563 10.8186 5.60625H10.8155ZM10.4998 12C10.4998 12.3978 10.6579 12.7794 10.9392 13.0607C11.2205 13.342 11.602 13.5 11.9998 13.5C12.3977 13.5 12.7792 13.342 13.0605 13.0607C13.3418 12.7794 13.4998 12.3978 13.4998 12C13.4998 11.6022 13.3418 11.2206 13.0605 10.9393C12.7792 10.658 12.3977 10.5 11.9998 10.5C11.602 10.5 11.2205 10.658 10.9392 10.9393C10.6579 11.2206 10.4998 11.6022 10.4998 12ZM11.9998 15C11.2042 15 10.4411 14.6839 9.87853 14.1213C9.31592 13.5587 8.99985 12.7956 8.99985 12C8.99985 11.2044 9.31592 10.4413 9.87853 9.87868C10.4411 9.31607 11.2042 9 11.9998 9C12.7955 9 13.5586 9.31607 14.1212 9.87868C14.6838 10.4413 14.9998 11.2044 14.9998 12C14.9998 12.7956 14.6838 13.5587 14.1212 14.1213C13.5586 14.6839 12.7955 15 11.9998 15Z" fill="#242B37"/>
</g>
<defs>
<clipPath id="clip0_4625_39866">
<rect width="16" height="16" fill="white" transform="translate(4 4)"/>
</clipPath>
</defs>
</svg>
