<svg width="19" height="25" viewBox="0 0 19 25" fill="none" xmlns="http://www.w3.org/2000/svg">
<path d="M1.10547 18.4726H0.352189V19.2259H1.10547V18.4726ZM18.2103 19.0052C18.5044 18.7111 18.5044 18.2341 18.2103 17.9399L13.4164 13.1461C13.1223 12.8519 12.6453 12.8519 12.3511 13.1461C12.057 13.4403 12.057 13.9172 12.3511 14.2114L16.6123 18.4726L12.3511 22.7338C12.057 23.0279 12.057 23.5049 12.3511 23.7991C12.6453 24.0932 13.1223 24.0932 13.4164 23.7991L18.2103 19.0052ZM0.352189 0.770508V18.4726H1.85875V0.770508H0.352189ZM1.10547 19.2259H17.6776V17.7193H1.10547V19.2259Z" fill="#4EB966"/>
</svg>
