<svg width="24" height="24" viewBox="0 0 24 24" fill="none" xmlns="http://www.w3.org/2000/svg">
<g clip-path="url(#clip0_4625_39857)">
<path d="M4 4.85714C4 4.38214 4.38214 4 4.85714 4C13.2214 4 20 10.7786 20 19.1429C20 19.6179 19.6179 20 19.1429 20C18.6679 20 18.2857 19.6179 18.2857 19.1429C18.2857 11.725 12.275 5.71429 4.85714 5.71429C4.38214 5.71429 4 5.33214 4 4.85714ZM6.28571 18.2857C6.43727 18.2857 6.58261 18.2255 6.68978 18.1183C6.79694 18.0112 6.85714 17.8658 6.85714 17.7143C6.85714 17.5627 6.79694 17.4174 6.68978 17.3102C6.58261 17.2031 6.43727 17.1429 6.28571 17.1429C6.13416 17.1429 5.98882 17.2031 5.88165 17.3102C5.77449 17.4174 5.71429 17.5627 5.71429 17.7143C5.71429 17.8658 5.77449 18.0112 5.88165 18.1183C5.98882 18.2255 6.13416 18.2857 6.28571 18.2857ZM6.28571 15.4286C6.89192 15.4286 7.4733 15.6694 7.90196 16.098C8.33061 16.5267 8.57143 17.1081 8.57143 17.7143C8.57143 18.3205 8.33061 18.9019 7.90196 19.3305C7.4733 19.7592 6.89192 20 6.28571 20C5.67951 20 5.09812 19.7592 4.66947 19.3305C4.24082 18.9019 4 18.3205 4 17.7143C4 17.1081 4.24082 16.5267 4.66947 16.098C5.09812 15.6694 5.67951 15.4286 6.28571 15.4286ZM4.85714 9.14286C10.3786 9.14286 14.8571 13.6214 14.8571 19.1429C14.8571 19.6179 14.475 20 14 20C13.525 20 13.1429 19.6179 13.1429 19.1429C13.1429 14.5679 9.43214 10.8571 4.85714 10.8571C4.38214 10.8571 4 10.475 4 10C4 9.525 4.38214 9.14286 4.85714 9.14286Z" fill="#242B37"/>
</g>
<defs>
<clipPath id="clip0_4625_39857">
<rect width="16" height="16" fill="white" transform="translate(4 4)"/>
</clipPath>
</defs>
</svg>
