<svg xmlns="http://www.w3.org/2000/svg" width="19.447" height="21.644" viewBox="0 0 19.447 21.644">
  <g id="Group_9167" data-name="Group 9167" transform="translate(1 1)">
    <path id="Path_4498" data-name="Path 4498" d="M3.172,0h11.1a3.172,3.172,0,0,1,3.172,3.172V11.1a3.172,3.172,0,0,1-3.172,3.172H10.512L2.756,19.643l1.451-5.368H3.172A3.172,3.172,0,0,1,0,11.1V3.172A3.172,3.172,0,0,1,3.172,0Z" fill="#fff" stroke="#2e68db" stroke-linecap="round" stroke-linejoin="round" stroke-width="2"/>
    <path id="Path_4501" data-name="Path 4501" d="M159.475,107.138a.317.317,0,0,0-.174-.54l-2.4-.349a.312.312,0,0,1-.237-.174L155.6,103.9a.317.317,0,0,0-.569,0l-1.067,2.172a.33.33,0,0,1-.237.174l-2.4.349a.317.317,0,0,0-.174.54l1.732,1.69a.32.32,0,0,1,.091.278l-.407,2.384a.316.316,0,0,0,.461.332l2.143-1.126a.309.309,0,0,1,.295,0l2.143,1.126a.318.318,0,0,0,.461-.332l-.411-2.384a.313.313,0,0,1,.091-.278Z" transform="translate(-146.589 -100.522)" fill="#2e68db"/>
  </g>
</svg>
