<svg width="20" height="22" viewBox="0 0 20 22" fill="none" xmlns="http://www.w3.org/2000/svg">
<path d="M4.172 1H15.272C16.1133 1 16.9201 1.33419 17.5149 1.92906C18.1098 2.52392 18.444 3.33073 18.444 4.172V12.1C18.444 12.9413 18.1098 13.7481 17.5149 14.3429C16.9201 14.9378 16.1133 15.272 15.272 15.272H11.512L3.756 20.643L5.207 15.275H4.172C3.7552 15.275 3.34248 15.1929 2.95744 15.0333C2.5724 14.8737 2.22258 14.6397 1.928 14.3449C1.63341 14.05 1.39983 13.7 1.24059 13.3148C1.08136 12.9296 0.999607 12.5168 1 12.1V4.172C1 3.33073 1.33419 2.52392 1.92906 1.92906C2.52392 1.33419 3.33073 1 4.172 1Z" fill="#F89D15"/>
<path d="M13.8861 7.61611C13.9282 7.57491 13.958 7.52278 13.9721 7.46558C13.9863 7.40838 13.9842 7.34837 13.9661 7.29228C13.9481 7.2362 13.9147 7.18626 13.8698 7.14808C13.825 7.10989 13.7703 7.08497 13.7121 7.07611L11.3121 6.72711C11.2613 6.71982 11.2131 6.70013 11.1718 6.66978C11.1304 6.63943 11.0972 6.59935 11.0751 6.55311L10.0111 4.37811C9.98495 4.32495 9.94444 4.28017 9.89415 4.24885C9.84387 4.21753 9.78582 4.20093 9.72658 4.20093C9.66734 4.20093 9.60928 4.21753 9.55899 4.24885C9.50871 4.28017 9.46821 4.32495 9.44208 4.37811L8.37508 6.55011C8.35171 6.59546 8.31815 6.63477 8.27702 6.66496C8.2359 6.69515 8.18834 6.7154 8.13808 6.72411L5.73807 7.07311C5.67982 7.08197 5.62518 7.1069 5.58031 7.14508C5.53543 7.18327 5.5021 7.2332 5.48403 7.28928C5.46595 7.34537 5.46387 7.40538 5.47801 7.46258C5.49215 7.51978 5.52195 7.57191 5.56407 7.61311L7.29607 9.30311C7.33224 9.33888 7.35937 9.38276 7.3752 9.43111C7.39103 9.47945 7.39509 9.53087 7.38707 9.58111L6.98007 11.9651C6.97002 12.0235 6.97657 12.0835 6.99898 12.1383C7.02139 12.1931 7.05875 12.2406 7.10681 12.2752C7.15487 12.3098 7.2117 12.3302 7.2708 12.3341C7.3299 12.338 7.3889 12.3251 7.44107 12.2971L9.58408 11.1711C9.62935 11.1465 9.68005 11.1336 9.73157 11.1336C9.78309 11.1336 9.8338 11.1465 9.87908 11.1711L12.0221 12.2971C12.0743 12.3243 12.1331 12.3365 12.1919 12.3323C12.2506 12.3281 12.3071 12.3076 12.3549 12.2731C12.4027 12.2387 12.44 12.1917 12.4626 12.1373C12.4853 12.0829 12.4923 12.0233 12.4831 11.9651L12.0721 9.58111C12.0635 9.53086 12.0672 9.47927 12.0831 9.43082C12.099 9.38237 12.1264 9.33853 12.1631 9.30311L13.8861 7.61611Z" fill="white"/>
</svg>
