<svg width="24" height="24" viewBox="0 0 24 24" fill="none" xmlns="http://www.w3.org/2000/svg">
<g clip-path="url(#clip0_5434_9406)">
<path d="M4.97014 6.12764C4.71014 5.92264 4.33264 5.97014 4.12764 6.23014C3.92264 6.49014 3.97014 6.86764 4.23014 7.07264L19.0301 18.6726C19.2901 18.8776 19.6676 18.8301 19.8726 18.5701C20.0776 18.3101 20.0301 17.9326 19.7701 17.7276L16.2326 14.9551L18.5076 12.6801C19.9126 11.2751 19.9126 8.99764 18.5076 7.59264C17.1701 6.25514 15.0226 6.18264 13.5976 7.43014L13.4451 7.56514C13.1951 7.78264 13.1701 8.16264 13.3876 8.41264C13.6051 8.66264 13.9851 8.68764 14.2351 8.47014L14.3876 8.33514C15.3376 7.50514 16.7676 7.55264 17.6601 8.44514C18.5951 9.38014 18.5951 10.8976 17.6601 11.8351L15.2826 14.2126L14.1451 13.3201C14.7501 11.9876 14.4976 10.3726 13.4126 9.28764C12.1101 7.98514 10.0526 7.89014 8.64264 9.00764L4.97014 6.12764ZM9.62764 9.77764C10.5501 9.22014 11.7676 9.33764 12.5626 10.1351C13.2126 10.7851 13.4126 11.7176 13.1551 12.5451L9.62764 9.77764ZM12.8151 15.3451C12.3101 15.2776 11.8226 15.0526 11.4351 14.6626C11.1901 14.4176 11.0101 14.1326 10.8926 13.8301L9.53764 12.7626C9.48264 13.7526 9.83514 14.7601 10.5851 15.5101C11.5551 16.4801 12.9401 16.7801 14.1701 16.4101L12.8151 15.3426V15.3451ZM6.91514 10.6951L5.49264 12.1201C4.08764 13.5251 4.08764 15.8026 5.49264 17.2051C6.83264 18.5451 8.98014 18.6151 10.4051 17.3676L10.5576 17.2326C10.8076 17.0151 10.8326 16.6351 10.6151 16.3851C10.3976 16.1351 10.0176 16.1101 9.76764 16.3276L9.61514 16.4626C8.66514 17.2926 7.23514 17.2451 6.34264 16.3526C5.40764 15.4176 5.40764 13.9001 6.34264 12.9626L7.86514 11.4401L6.91514 10.6926V10.6951Z" fill="#DB4F4F"/>
</g>
<defs>
<clipPath id="clip0_5434_9406">
<rect width="16" height="16" fill="white" transform="translate(4 4)"/>
</clipPath>
</defs>
</svg>
