<svg width="19" height="16" viewBox="0 0 19 16" fill="none" xmlns="http://www.w3.org/2000/svg">
<g clip-path="url(#clip0_292_28654)">
<path d="M6.34053 1.90625C6.93726 1.90625 7.50956 2.15318 7.93152 2.59272C8.35347 3.03226 8.59053 3.6284 8.59053 4.25C8.59053 4.8716 8.35347 5.46774 7.93152 5.90728C7.50956 6.34682 6.93726 6.59375 6.34053 6.59375C5.74379 6.59375 5.17149 6.34682 4.74954 5.90728C4.32758 5.46774 4.09053 4.8716 4.09053 4.25C4.09053 3.6284 4.32758 3.03226 4.74954 2.59272C5.17149 2.15318 5.74379 1.90625 6.34053 1.90625ZM6.34053 8C7.29531 8 8.21098 7.60491 8.88611 6.90165C9.56124 6.19839 9.94053 5.24456 9.94053 4.25C9.94053 3.25544 9.56124 2.30161 8.88611 1.59835C8.21098 0.895088 7.29531 0.5 6.34053 0.5C5.38575 0.5 4.47007 0.895088 3.79494 1.59835C3.11981 2.30161 2.74053 3.25544 2.74053 4.25C2.74053 5.24456 3.11981 6.19839 3.79494 6.90165C4.47007 7.60491 5.38575 8 6.34053 8ZM5.05521 10.8125H7.62584C9.47365 10.8125 11.0037 12.2393 11.254 14.0938H1.42709C1.6774 12.2393 3.2074 10.8125 5.05521 10.8125ZM5.05521 9.40625C2.2849 9.40625 0.0405273 11.7441 0.0405273 14.6299C0.0405273 15.1104 0.41459 15.5 0.87584 15.5H11.8052C12.2665 15.5 12.6405 15.1104 12.6405 14.6299C12.6405 11.7441 10.3962 9.40625 7.62584 9.40625H5.05521ZM13.3155 6.35938C12.9415 6.35938 12.6405 6.67285 12.6405 7.0625C12.6405 7.45215 12.9415 7.76562 13.3155 7.76562H17.3655C17.7396 7.76562 18.0405 7.45215 18.0405 7.0625C18.0405 6.67285 17.7396 6.35938 17.3655 6.35938H13.3155Z" fill="#5482C8"/>
<path d="M15.3421 4.3625C15.7317 4.3625 16.0452 4.66344 16.0452 5.0375V9.0875C16.0452 9.46156 15.7317 9.7625 15.3421 9.7625C14.9524 9.7625 14.639 9.46156 14.639 9.0875V5.0375C14.639 4.66344 14.9524 4.3625 15.3421 4.3625Z" fill="#5482C8"/>
</g>
<defs>
<clipPath id="clip0_292_28654">
<rect width="18" height="15" fill="white" transform="translate(0.041748 0.5)"/>
</clipPath>
</defs>
</svg>
