<svg width="19" height="16" viewBox="0 0 19 16" fill="none" xmlns="http://www.w3.org/2000/svg">
<g clip-path="url(#clip0_296_31725)">
<path d="M6.84175 1.90625C7.43849 1.90625 8.01078 2.15318 8.43274 2.59272C8.8547 3.03226 9.09175 3.6284 9.09175 4.25C9.09175 4.8716 8.8547 5.46774 8.43274 5.90728C8.01078 6.34682 7.43849 6.59375 6.84175 6.59375C6.24501 6.59375 5.67271 6.34682 5.25076 5.90728C4.8288 5.46774 4.59175 4.8716 4.59175 4.25C4.59175 3.6284 4.8288 3.03226 5.25076 2.59272C5.67271 2.15318 6.24501 1.90625 6.84175 1.90625ZM6.84175 8C7.79653 8 8.7122 7.60491 9.38733 6.90165C10.0625 6.19839 10.4417 5.24456 10.4417 4.25C10.4417 3.25544 10.0625 2.30161 9.38733 1.59835C8.7122 0.895088 7.79653 0.5 6.84175 0.5C5.88697 0.5 4.97129 0.895088 4.29616 1.59835C3.62103 2.30161 3.24175 3.25544 3.24175 4.25C3.24175 5.24456 3.62103 6.19839 4.29616 6.90165C4.97129 7.60491 5.88697 8 6.84175 8ZM5.55644 10.8125H8.12706C9.97487 10.8125 11.5049 12.2393 11.7552 14.0938H1.92831C2.17862 12.2393 3.70862 10.8125 5.55644 10.8125ZM5.55644 9.40625C2.78612 9.40625 0.541748 11.7441 0.541748 14.6299C0.541748 15.1104 0.915811 15.5 1.37706 15.5H12.3064C12.7677 15.5 13.1417 15.1104 13.1417 14.6299C13.1417 11.7441 10.8974 9.40625 8.12706 9.40625H5.55644ZM13.8167 6.35938C13.4427 6.35938 13.1417 6.67285 13.1417 7.0625C13.1417 7.45215 13.4427 7.76562 13.8167 7.76562H17.8667C18.2408 7.76562 18.5417 7.45215 18.5417 7.0625C18.5417 6.67285 18.2408 6.35938 17.8667 6.35938H13.8167Z" fill="#E46B6B"/>
</g>
<defs>
<clipPath id="clip0_296_31725">
<rect width="18" height="15" fill="white" transform="translate(0.541748 0.5)"/>
</clipPath>
</defs>
</svg>
