<svg width="16" height="13" viewBox="0 0 16 13" fill="none" xmlns="http://www.w3.org/2000/svg">
<path d="M0.970141 0.127641C0.710141 -0.0773595 0.33264 -0.0298595 0.127641 0.230141C-0.0773595 0.490141 -0.0298595 0.867641 0.230141 1.07264L15.0301 12.6726C15.2901 12.8776 15.6676 12.8301 15.8726 12.5701C16.0776 12.3101 16.0301 11.9326 15.7701 11.7276L13.1401 9.66764C14.1301 8.65264 14.8001 7.51514 15.1376 6.70764C15.2201 6.51014 15.2201 6.29014 15.1376 6.09264C14.7651 5.20014 13.9826 3.90014 12.8126 2.81514C11.6376 1.72014 10.0201 0.800141 8.00014 0.800141C6.29514 0.800141 4.87514 1.45764 3.76764 2.32014L0.970141 0.127641ZM4.74514 3.08514C5.65014 2.44264 6.73764 2.00014 8.00014 2.00014C9.63014 2.00014 10.9701 2.74014 11.9976 3.69264C12.9601 4.58764 13.6251 5.65014 13.9651 6.40014C13.6501 7.10014 13.0501 8.07014 12.1926 8.92264L10.8476 7.86764C11.0751 7.42764 11.2026 6.93014 11.2026 6.40014C11.2026 4.63264 9.77014 3.20014 8.00264 3.20014C7.19764 3.20014 6.46014 3.49764 5.89764 3.98764L4.74514 3.08514ZM9.87264 7.10514L7.83514 5.50764C7.94014 5.29514 8.00014 5.05264 8.00014 4.80014C8.00014 4.66264 7.98264 4.52764 7.95014 4.40014C7.96764 4.40014 7.98264 4.40014 8.00014 4.40014C9.10514 4.40014 10.0001 5.29514 10.0001 6.40014C10.0001 6.64764 9.95514 6.88514 9.87264 7.10514ZM11.1551 11.1876L10.1076 10.3626C9.47014 10.6351 8.76764 10.8001 8.00014 10.8001C6.37014 10.8001 5.03014 10.0601 4.00264 9.10764C3.04014 8.21264 2.37514 7.15014 2.03514 6.40014C2.24264 5.94014 2.57264 5.36264 3.02014 4.78014L2.07764 4.03764C1.50764 4.78014 1.10014 5.52014 0.862641 6.09264C0.780141 6.29014 0.780141 6.51014 0.862641 6.70764C1.23514 7.60014 2.01764 8.90014 3.18764 9.98514C4.36264 11.0801 5.98014 12.0001 8.00014 12.0001C9.19514 12.0001 10.2476 11.6776 11.1551 11.1876ZM8.95514 9.45514L7.55014 8.35014C6.96264 8.21514 6.47264 7.82014 6.20764 7.29264L4.80514 6.18764C4.80014 6.25764 4.79764 6.32764 4.79764 6.40014C4.79764 8.16764 6.23014 9.60014 7.99764 9.60014C8.33014 9.60014 8.65014 9.55014 8.95264 9.45514H8.95514Z" fill="#242B37"/>
</svg>
