<svg xmlns="http://www.w3.org/2000/svg" width="141.525" height="26.315" viewBox="0 0 141.525 26.315">
  <g id="Group_9467" data-name="Group 9467" transform="translate(-23.815 -21)">
    <g id="Group_9223" data-name="Group 9223" transform="translate(53.295 28.707)">
      <path id="Path_4539" data-name="Path 4539" d="M167.717,53.787a6.207,6.207,0,0,1-4.9,1.908c-3.838,0-7.019-2.311-7.019-7s3.181-7,7.019-7a6.176,6.176,0,0,1,4.729,1.908l-.36.636a8.046,8.046,0,0,0-.551,1.23l-.318.869a5.057,5.057,0,0,0-3.456-1.569,3.709,3.709,0,0,0-3.8,3.923,3.6,3.6,0,0,0,3.753,3.859,5.4,5.4,0,0,0,3.626-1.612l.276.848a6.343,6.343,0,0,0,.615,1.336Z" transform="translate(-155.8 -41.7)" fill="#fff"/>
      <path id="Path_4540" data-name="Path 4540" d="M225.834,42.19V55.528l-2.926-1.463a6.115,6.115,0,0,1-4.6,1.866c-3.923.021-6.807-2.375-6.807-7.019,0-4.559,3.032-6.934,6.891-6.913a6.732,6.732,0,0,1,4.919,1.845Zm-11.069,6.7a3.79,3.79,0,0,0,3.923,4.029c5.153,0,5.153-8.015,0-8.015A3.767,3.767,0,0,0,214.766,48.891Z" transform="translate(-199.689 -41.936)" fill="#fff"/>
      <path id="Path_4541" data-name="Path 4541" d="M295,55.64V48.41c0-2.014-1.1-3.541-3.181-3.541a3.471,3.471,0,0,0-3.371,3.69V55.64H285.2V42.091l2.969,1.23c1.336-1.315,2.863-1.421,4.517-1.421,3.117,0,5.6,2.332,5.6,6.489V55.64Z" transform="translate(-257.761 -41.858)" fill="#fff"/>
      <path id="Path_4542" data-name="Path 4542" d="M433.7,55.64V48.41c0-2.014-1.1-3.541-3.181-3.541a3.471,3.471,0,0,0-3.371,3.69V55.64H423.9V42.091l2.969,1.23c1.336-1.315,2.863-1.421,4.517-1.421,3.117,0,5.6,2.332,5.6,6.489V55.64Z" transform="translate(-367.051 -41.858)" fill="#fff"/>
      <path id="Path_4543" data-name="Path 4543" d="M366.962,49.191a6.881,6.881,0,1,1-13.762,0,6.619,6.619,0,0,1,6.828-6.891A6.694,6.694,0,0,1,366.962,49.191Zm-10.475,0a3.595,3.595,0,1,0,7.167,0,3.737,3.737,0,0,0-3.584-3.923A3.63,3.63,0,0,0,356.487,49.191Z" transform="translate(-311.342 -42.173)" fill="#fff"/>
      <rect id="Rectangle_419" data-name="Rectangle 419" width="3.265" height="13.486" transform="translate(71.099 0.318)" fill="#fff"/>
      <path id="Path_4544" data-name="Path 4544" d="M523.269,42.6l-1.442,3.5-5.153,7h5.131l.445.933a7.111,7.111,0,0,0,.742,1.209l.827,1.081H512.2V53.563l5.81-7.994h-5.556V42.6Z" transform="translate(-436.627 -42.409)" fill="#fff"/>
      <path id="Path_4545" data-name="Path 4545" d="M565.65,50.164c.212,1.633,1.633,2.82,3.944,2.82a4.583,4.583,0,0,0,3.244-1.166l2.333,1.718c-1.251,1.8-3.711,2.417-5.619,2.417-4.559,0-7.252-2.82-7.252-7.04A6.606,6.606,0,0,1,569.319,42c4.432,0,7.422,2.969,6.573,8.164H565.65Zm7.188-2.693c-.212-1.718-1.548-2.566-3.435-2.566a3.536,3.536,0,0,0-3.69,2.566Z" transform="translate(-476.104 -41.936)" fill="#fff"/>
      <path id="Path_4546" data-name="Path 4546" d="M636.226,43.718A4.918,4.918,0,0,1,640.276,42a4.369,4.369,0,0,1,3.817,2.142l-1.887,1.951a3.241,3.241,0,0,0-2.354-.848c-1.718,0-3.287,2.926-3.287,5.365v5.174H633.3V42.339Z" transform="translate(-532.049 -41.936)" fill="#fff"/>
    </g>
    <g id="Group_9392" data-name="Group 9392" transform="translate(23.815 21)">
      <circle id="Ellipse_7870" data-name="Ellipse 7870" cx="13.158" cy="13.158" r="13.158" fill="#fff"/>
      <g id="Group_9391" data-name="Group 9391" transform="translate(1.937 3.762)">
        <path id="Path_4725" data-name="Path 4725" d="M263.664,383.271l5.847,3.9c.714.449.9.282,2.186-.067l15.62-5.1-17.1,9.1A84.269,84.269,0,0,1,263.664,383.271Z" transform="translate(-263.664 -370.443)" fill="#4484ce"/>
        <g id="Group_9245" data-name="Group 9245" transform="translate(3.21 0)">
          <g id="Group_9241" data-name="Group 9241" transform="translate(0 4.928)">
            <path id="Path_4720" data-name="Path 4720" d="M289.023,340.347a1.623,1.623,0,1,1,1.623-1.623A1.627,1.627,0,0,1,289.023,340.347Z" transform="translate(-287.4 -337.1)" fill="#4484ce"/>
          </g>
          <g id="Group_9242" data-name="Group 9242" transform="translate(4.338 2.327)">
            <path id="Path_4721" data-name="Path 4721" d="M323.123,312.147a1.623,1.623,0,1,1,1.624-1.623A1.627,1.627,0,0,1,323.123,312.147Z" transform="translate(-321.5 -308.9)" fill="#4484ce"/>
          </g>
          <g id="Group_9243" data-name="Group 9243" transform="translate(8.65 0)">
            <path id="Path_4722" data-name="Path 4722" d="M357.224,297.647a1.623,1.623,0,1,1,1.624-1.623A1.627,1.627,0,0,1,357.224,297.647Z" transform="translate(-355.6 -294.4)" fill="#4484ce"/>
          </g>
          <g id="Group_9244" data-name="Group 9244" transform="translate(12.962 2.975)">
            <path id="Path_4723" data-name="Path 4723" d="M391.223,327.447a1.623,1.623,0,1,1,1.624-1.623A1.627,1.627,0,0,1,391.223,327.447Z" transform="translate(-389.6 -324.2)" fill="#4484ce"/>
          </g>
        </g>
        <g id="Group_9246" data-name="Group 9246" transform="translate(3.21 4.217)">
          <path id="Path_4724" data-name="Path 4724" d="M291.332,339.931a1.628,1.628,0,0,1-1.687-1.078l-.013-.089a4.669,4.669,0,0,1-.076-.837v-1.9a.535.535,0,0,0-1.065.063v2.277a.545.545,0,1,1-1.091,0v-2.2a1.676,1.676,0,0,1,1.433-1.687,1.6,1.6,0,0,1,1.344.469,1.569,1.569,0,0,1,.457.939,1.093,1.093,0,0,1,.013.216v2.214a.533.533,0,0,0,1.065,0v-4.663a1.688,1.688,0,0,1,1.421-1.7,1.626,1.626,0,0,1,1.839,1.611V337a.533.533,0,1,0,1.065,0v-5.658a1.676,1.676,0,0,1,1.306-1.662,1.633,1.633,0,0,1,1.953,1.6v4.491a.533.533,0,0,0,1.065,0v-1.624a1.676,1.676,0,0,1,1.306-1.662,1.633,1.633,0,0,1,1.953,1.6v1.192a.545.545,0,1,1-1.091,0v-1.192a.533.533,0,0,0-1.065,0v1.624a1.676,1.676,0,0,1-1.306,1.661,1.632,1.632,0,0,1-1.953-1.6V331.28a.533.533,0,1,0-1.065,0v5.658a1.676,1.676,0,0,1-1.306,1.662,1.633,1.633,0,0,1-1.953-1.6v-3.433a.537.537,0,0,0-.152-.381.516.516,0,0,0-.38-.152.536.536,0,0,0-.533.533v4.651A1.706,1.706,0,0,1,291.332,339.931Z" transform="translate(-287.4 -329.65)" fill="#4484ce"/>
        </g>
      </g>
    </g>
  </g>
</svg>
