<svg xmlns="http://www.w3.org/2000/svg" width="16" height="16.062" viewBox="0 0 16 16.062">
  <path id="archive_FILL1_wght500_GRAD0_opsz24" d="M113.847,221.062a1.974,1.974,0,0,1-1.978-1.978V208.219a1.724,1.724,0,0,1,.119-.652,2.459,2.459,0,0,1,.314-.554l1.217-1.473a1.385,1.385,0,0,1,.5-.4,1.463,1.463,0,0,1,.633-.14h10.431a1.463,1.463,0,0,1,.633.14,1.385,1.385,0,0,1,.5.4l1.217,1.473a2.458,2.458,0,0,1,.314.554,1.724,1.724,0,0,1,.119.652v10.866a1.974,1.974,0,0,1-1.978,1.978Zm.317-13.215h11.412l-.739-.869H114.9Zm5.706,10.389,3.571-3.565-1.285-1.295-1.365,1.365V211.1h-1.842v3.64l-1.365-1.365-1.285,1.295Z" transform="translate(-111.869 -205)" fill="#ef5e5e"/>
</svg>
