<svg width="9" height="11" viewBox="0 0 9 11" fill="none" xmlns="http://www.w3.org/2000/svg">
<path d="M4.64001 0C4.83096 0 5.0141 0.0758571 5.14912 0.210883C5.28415 0.345909 5.36001 0.529044 5.36001 0.72V10.8C5.36001 10.991 5.28415 11.1741 5.14912 11.3091C5.0141 11.4441 4.83096 11.52 4.64001 11.52C4.44905 11.52 4.26592 11.4441 4.13089 11.3091C3.99586 11.1741 3.92001 10.991 3.92001 10.8V0.72C3.92001 0.529044 3.99586 0.345909 4.13089 0.210883C4.26592 0.0758571 4.44905 0 4.64001 0ZM8.24001 2.88C8.43096 2.88 8.6141 2.95586 8.74913 3.09088C8.88415 3.22591 8.96001 3.40904 8.96001 3.6V10.8C8.96001 10.991 8.88415 11.1741 8.74913 11.3091C8.6141 11.4441 8.43096 11.52 8.24001 11.52C8.04905 11.52 7.86592 11.4441 7.73089 11.3091C7.59586 11.1741 7.52001 10.991 7.52001 10.8V3.6C7.52001 3.40904 7.59586 3.22591 7.73089 3.09088C7.86592 2.95586 8.04905 2.88 8.24001 2.88ZM1.04001 5.76C1.23096 5.76 1.4141 5.83586 1.54912 5.97088C1.68415 6.10591 1.76001 6.28904 1.76001 6.48V10.8C1.76001 10.991 1.68415 11.1741 1.54912 11.3091C1.4141 11.4441 1.23096 11.52 1.04001 11.52C0.849051 11.52 0.665917 11.4441 0.530891 11.3091C0.395864 11.1741 0.320007 10.991 0.320007 10.8V6.48C0.320007 6.28904 0.395864 6.10591 0.530891 5.97088C0.665917 5.83586 0.849051 5.76 1.04001 5.76Z" fill="#868686"/>
</svg>
