<svg xmlns="http://www.w3.org/2000/svg" width="12.934" height="15.656" viewBox="0 0 12.934 15.656">
  <path id="fi-rr-copy-alt" d="M9.807,12.934a3.408,3.408,0,0,0,3.4-3.4V4.25a2.7,2.7,0,0,0-.8-1.926L10.887.8A2.7,2.7,0,0,0,8.961,0H6.4A3.408,3.408,0,0,0,3,3.4V9.53a3.408,3.408,0,0,0,3.4,3.4ZM4.361,9.53V3.4A2.042,2.042,0,0,1,6.4,1.361s2.668.01,2.723.016V2.723a1.361,1.361,0,0,0,1.361,1.361h1.345c.007.055.016,5.446.016,5.446a2.042,2.042,0,0,1-2.042,2.042H6.4A2.042,2.042,0,0,1,4.361,9.53ZM15.934,5.446v6.807a3.408,3.408,0,0,1-3.4,3.4H7.084a.681.681,0,0,1,0-1.361H12.53a2.042,2.042,0,0,0,2.042-2.042V5.446a.681.681,0,0,1,1.361,0Z" transform="translate(-3 0)" fill="#4484ce"/>
</svg>
