<svg xmlns="http://www.w3.org/2000/svg" width="13.609" height="16.634" viewBox="0 0 13.609 16.634">
  <g id="File_Download" data-name="File Download" transform="translate(-3 -1)">
    <path id="Path_43670" data-name="Path 43670" d="M3,4.024A3.024,3.024,0,0,1,6.024,1h6.308a3.024,3.024,0,0,1,2.139.886l1.253,1.253a3.024,3.024,0,0,1,.886,2.138v9.332a3.024,3.024,0,0,1-3.024,3.024H6.024A3.024,3.024,0,0,1,3,14.609ZM15.1,6.293v8.317a1.512,1.512,0,0,1-1.512,1.512H6.024a1.512,1.512,0,0,1-1.512-1.512V4.024A1.512,1.512,0,0,1,6.024,2.512h5.293V4.024a2.268,2.268,0,0,0,2.268,2.268ZM15.013,4.78a1.512,1.512,0,0,0-.359-.573L13.4,2.955a1.512,1.512,0,0,0-.573-.359V4.024a.756.756,0,0,0,.756.756Z" fill="#4484ce" fill-rule="evenodd"/>
    <path id="Path_43671" data-name="Path 43671" d="M11.314,15.747a.754.754,0,0,0,.245-.164l2.268-2.268a.756.756,0,0,0-1.069-1.069l-.978.978V9.756a.756.756,0,0,0-1.512,0v3.467l-.978-.978a.756.756,0,0,0-1.069,1.069l2.268,2.268A.756.756,0,0,0,11.314,15.747Z" transform="translate(-1.22 -1.951)" fill="#4484ce"/>
  </g>
</svg>
