<svg xmlns="http://www.w3.org/2000/svg" width="15.206" height="11.837" viewBox="0 0 15.206 11.837">
  <g id="fi-rr-eye" transform="translate(0.004 -2.655)">
    <path id="Path_43633" data-name="Path 43633" d="M14.737,6.939A8.388,8.388,0,0,0,7.6,2.655,8.388,8.388,0,0,0,.46,6.939a3.108,3.108,0,0,0,0,3.269A8.388,8.388,0,0,0,7.6,14.492a8.388,8.388,0,0,0,7.138-4.284A3.108,3.108,0,0,0,14.737,6.939Zm-1.08,2.606A7.166,7.166,0,0,1,7.6,13.225,7.166,7.166,0,0,1,1.54,9.545a1.848,1.848,0,0,1,0-1.943A7.166,7.166,0,0,1,7.6,3.922,7.16,7.16,0,0,1,13.657,7.6,1.848,1.848,0,0,1,13.657,9.545Z" transform="translate(0 0)" fill="#4484ce"/>
    <path id="Path_43634" data-name="Path 43634" d="M10.167,7a3.167,3.167,0,1,0,3.167,3.167A3.167,3.167,0,0,0,10.167,7Zm0,5.067a1.9,1.9,0,1,1,1.9-1.9A1.9,1.9,0,0,1,10.167,12.067Z" transform="translate(-2.568 -1.593)" fill="#4484ce"/>
  </g>
</svg>
