<svg xmlns="http://www.w3.org/2000/svg" width="16.99" height="17" viewBox="0 0 16.99 17">
  <path id="face_retouching_natural_FILL0_wght600_GRAD0_opsz24" d="M69.077,136.411a8.183,8.183,0,0,1,1.863.207,7.668,7.668,0,0,1,1.661.588l-2.691,1.244q-.193-.028-.406-.052a3.8,3.8,0,0,0-.426-.024q-.277,0-.534.025t-.534.074a6.344,6.344,0,0,0,2.256,2.226,6.112,6.112,0,0,0,3.166.841h.188l.726,1.579a8.292,8.292,0,0,1-3.737-.416,7.1,7.1,0,0,1-3.277-2.386,7.268,7.268,0,0,1-1.884,2.725,7.6,7.6,0,0,1-2.566,1.566,6.088,6.088,0,0,0,1.811,4.483,6.208,6.208,0,0,0,10.6-4.386,2.7,2.7,0,0,0-.014-.3q-.014-.124-.031-.309l1.336-2.923a7.539,7.539,0,0,1,.621,1.782,8.576,8.576,0,0,1,.186,1.751,8.05,8.05,0,0,1-.643,3.191,8.358,8.358,0,0,1-1.768,2.64,8.514,8.514,0,0,1-2.637,1.8,8.246,8.246,0,0,1-6.47.009,8.4,8.4,0,0,1-4.426-4.426,8.245,8.245,0,0,1,.013-6.48,8.323,8.323,0,0,1,1.813-2.636,8.527,8.527,0,0,1,2.646-1.753A8.018,8.018,0,0,1,69.077,136.411Zm-2.318,8.063a1,1,0,1,1-.73.292A.991.991,0,0,1,66.758,144.474ZM70.85,139.957Zm.545,4.517a1,1,0,1,1-.73.292A.991.991,0,0,1,71.4,144.474ZM75,136l.871,1.9,1.9.871-1.9.871L75,141.54l-.871-1.9-1.9-.871,1.9-.871Zm-11.92,6.707a6.378,6.378,0,0,0,2.889-3.522,6.379,6.379,0,0,0-2.889,3.522ZM65.97,139.185Z" transform="translate(-60.782 -136)" fill="#fff"/>
</svg>
