<svg id="filter" xmlns="http://www.w3.org/2000/svg" width="20" height="17.342" viewBox="0 0 20 17.342">
  <path id="Path_2756" data-name="Path 2756" d="M83.485,82.049H71.569a2.44,2.44,0,0,0-4.66,0h-1.86a.8.8,0,0,0,0,1.6h1.86a2.44,2.44,0,0,0,4.66,0H83.485a.8.8,0,0,0,0-1.6ZM69.239,83.763a.914.914,0,1,1,.894-.914A.905.905,0,0,1,69.239,83.763Z" transform="translate(-64.267 -80.334)" fill="#707070"/>
  <path id="Path_2757" data-name="Path 2757" d="M83.485,210.582h-1.86a2.44,2.44,0,0,0-4.66,0H65.049a.8.8,0,0,0,0,1.6H76.965a2.44,2.44,0,0,0,4.66,0h1.86a.8.8,0,0,0,0-1.6Zm-4.19,1.715a.914.914,0,1,1,.894-.914A.905.905,0,0,1,79.295,212.3Z" transform="translate(-64.267 -202.711)" fill="#707070"/>
  <path id="Path_2758" data-name="Path 2758" d="M83.485,339.115H74.921a2.44,2.44,0,0,0-4.66,0H65.049a.8.8,0,0,0,0,1.6h5.212a2.44,2.44,0,0,0,4.66,0h8.564a.8.8,0,0,0,0-1.6Zm-10.894,1.715a.915.915,0,1,1,.894-.914A.905.905,0,0,1,72.591,340.829Z" transform="translate(-64.267 -325.089)" fill="#707070"/>
</svg>
