<svg xmlns="http://www.w3.org/2000/svg" width="22" height="20" viewBox="0 0 22 20">
  <path id="fi-rr-folder" d="M17,3H12.472a1.019,1.019,0,0,1-.447-.1L8.869,1.316A3.014,3.014,0,0,0,7.528,1H5A5.006,5.006,0,0,0,0,6V16a5.006,5.006,0,0,0,5,5H17a5.006,5.006,0,0,0,5-5V8a5.006,5.006,0,0,0-5-5ZM5,3H7.528a1.019,1.019,0,0,1,.447.1l3.156,1.579A3.014,3.014,0,0,0,12.472,5H17a3,3,0,0,1,2.779,1.882L2,6.994V6A3,3,0,0,1,5,3ZM17,19H5a3,3,0,0,1-3-3V8.994l18-.113V16A3,3,0,0,1,17,19Z" transform="translate(0 -1)" fill="#d1d4db"/>
</svg>
