<svg width="28" height="28" viewBox="0 0 28 28" fill="none" xmlns="http://www.w3.org/2000/svg">
<path fill-rule="evenodd" clip-rule="evenodd" d="M14.2063 0.000976562C21.7417 0.000976562 27.8495 6.10969 27.8495 13.6442C27.8495 21.1787 21.7417 27.2873 14.2063 27.2873C6.67102 27.2873 0.563232 21.1786 0.563232 13.6442C0.563232 6.10978 6.67111 0.000976562 14.2063 0.000976562Z" fill="#0E76A8"/>
<path fill-rule="evenodd" clip-rule="evenodd" d="M8.66012 9.98662C9.4845 9.98662 10.1536 9.31753 10.1536 8.49315C10.1536 7.66877 9.4845 6.99978 8.66012 6.99978C7.83574 6.99978 7.16664 7.66886 7.16664 8.49325C7.16664 9.31763 7.83574 9.98662 8.66012 9.98662ZM18.8035 10.6359C17.3558 10.6359 16.0605 11.1646 15.1416 12.3315V10.9476H12.1478V20.9227H15.1416V15.5285C15.1416 14.3884 16.1861 13.2763 17.4943 13.2763C18.8025 13.2763 19.1251 14.3884 19.1251 15.5006V20.9217H22.108V15.2786C22.1079 11.3587 20.2521 10.6359 18.8035 10.6359ZM7.18263 20.9227H10.1655V10.9804H7.18263V20.9227Z" fill="white"/>
</svg>
