<svg id="Group_26707" data-name="Group 26707" xmlns="http://www.w3.org/2000/svg" width="12.525" height="12.88" viewBox="0 0 12.525 12.88">
  <path id="Path_43931" data-name="Path 43931" d="M36.425,5H26.106a1.057,1.057,0,1,0,0,2.113H36.425a1.115,1.115,0,0,0,.97-.549A1.058,1.058,0,0,0,36.425,5Z" transform="translate(-25 -4.995)" fill="#85888d"/>
  <path id="Path_43933" data-name="Path 43933" d="M26.107,59.229h4.974a1.116,1.116,0,0,0,.971-.55,1.059,1.059,0,0,0-.971-1.565H26.107a1.058,1.058,0,1,0,0,2.114Z" transform="translate(-25 -46.35)" fill="#85888d"/>
  <path id="Path_43934" data-name="Path 43934" d="M34.724,32.61a1.06,1.06,0,0,0-.972-1.566H26.108a1.059,1.059,0,1,0,0,2.116h7.644A1.117,1.117,0,0,0,34.724,32.61Z" transform="translate(-25 -25.664)" fill="#85888d"/>
</svg>
