<svg width="12" height="3" viewBox="0 0 12 3" fill="none" xmlns="http://www.w3.org/2000/svg">
<path d="M1.30384 2.625C0.959147 2.625 0.663693 2.50379 0.41748 2.26136C0.171268 2.01894 0.0500563 1.72348 0.0538441 1.375C0.0500563 1.03409 0.171268 0.742424 0.41748 0.5C0.663693 0.257576 0.959147 0.136364 1.30384 0.136364C1.63718 0.136364 1.92695 0.257576 2.17316 0.5C2.42316 0.742424 2.55006 1.03409 2.55384 1.375C2.55006 1.60606 2.48945 1.81629 2.37203 2.00568C2.25839 2.19508 2.10687 2.34659 1.91748 2.46023C1.73187 2.57008 1.52733 2.625 1.30384 2.625ZM5.94447 2.625C5.59977 2.625 5.30432 2.50379 5.05811 2.26136C4.81189 2.01894 4.69068 1.72348 4.69447 1.375C4.69068 1.03409 4.81189 0.742424 5.05811 0.5C5.30432 0.257576 5.59977 0.136364 5.94447 0.136364C6.2778 0.136364 6.56758 0.257576 6.81379 0.5C7.06379 0.742424 7.19068 1.03409 7.19447 1.375C7.19068 1.60606 7.13008 1.81629 7.01265 2.00568C6.89901 2.19508 6.7475 2.34659 6.55811 2.46023C6.3725 2.57008 6.16795 2.625 5.94447 2.625ZM10.5851 2.625C10.2404 2.625 9.94494 2.50379 9.69873 2.26136C9.45252 2.01894 9.33131 1.72348 9.33509 1.375C9.33131 1.03409 9.45252 0.742424 9.69873 0.5C9.94494 0.257576 10.2404 0.136364 10.5851 0.136364C10.9184 0.136364 11.2082 0.257576 11.4544 0.5C11.7044 0.742424 11.8313 1.03409 11.8351 1.375C11.8313 1.60606 11.7707 1.81629 11.6533 2.00568C11.5396 2.19508 11.3881 2.34659 11.1987 2.46023C11.0131 2.57008 10.8086 2.625 10.5851 2.625Z" fill="#242B37"/>
</svg>
