<svg xmlns="http://www.w3.org/2000/svg" width="13.093" height="15.712" viewBox="0 0 13.093 15.712">
  <g id="fi-rr-trash" transform="translate(-2)">
    <path id="Path_43635" data-name="Path 43635" d="M14.439,2.619H12.409A3.279,3.279,0,0,0,9.2,0H7.892A3.279,3.279,0,0,0,4.684,2.619H2.655a.655.655,0,0,0,0,1.309h.655v8.511a3.277,3.277,0,0,0,3.273,3.273h3.928a3.277,3.277,0,0,0,3.273-3.273V3.928h.655a.655.655,0,0,0,0-1.309ZM7.892,1.309H9.2a1.968,1.968,0,0,1,1.852,1.309H6.04A1.968,1.968,0,0,1,7.892,1.309Zm4.583,11.129A1.964,1.964,0,0,1,10.511,14.4H6.583a1.964,1.964,0,0,1-1.964-1.964V3.928h7.856Z" fill="#4484ce"/>
    <path id="Path_43636" data-name="Path 43636" d="M9.655,15.237a.655.655,0,0,0,.655-.655V10.655a.655.655,0,0,0-1.309,0v3.928A.655.655,0,0,0,9.655,15.237Z" transform="translate(-2.417 -3.453)" fill="#4484ce"/>
    <path id="Path_43637" data-name="Path 43637" d="M13.655,15.237a.655.655,0,0,0,.655-.655V10.655a.655.655,0,0,0-1.309,0v3.928A.655.655,0,0,0,13.655,15.237Z" transform="translate(-3.799 -3.453)" fill="#4484ce"/>
  </g>
</svg>
