<svg width="28" height="28" viewBox="0 0 28 28" fill="none" xmlns="http://www.w3.org/2000/svg">
<path fill-rule="evenodd" clip-rule="evenodd" d="M0.281982 13.6411C0.281982 6.10894 6.39022 0.00292969 13.9251 0.00292969C21.46 0.00292969 27.5683 6.10894 27.5683 13.6411C27.5683 21.1732 21.46 27.2792 13.9251 27.2792C6.39022 27.2792 0.281982 21.1732 0.281982 13.6411Z" fill="black"/>
<path fill-rule="evenodd" clip-rule="evenodd" d="M21 20.9999L15.5251 12.8405L15.5345 12.8481L20.4709 6.99992H18.8213L14.7999 11.7599L11.6065 6.99992H7.28014L12.3915 14.6178L7.00002 20.9999H8.64964L13.1204 15.7041L16.6737 20.9999H21ZM10.9529 8.27264L18.6345 19.7272H17.3273L9.63943 8.27264H10.9529Z" fill="white"/>
</svg>
